G04 #@! TF.GenerationSoftware,KiCad,Pcbnew,(6.0.4)*
G04 #@! TF.CreationDate,2022-04-28T11:38:26-07:00*
G04 #@! TF.ProjectId,Lec18-PCB_kicad,4c656331-382d-4504-9342-5f6b69636164,rev?*
G04 #@! TF.SameCoordinates,Original*
G04 #@! TF.FileFunction,Copper,L1,Top*
G04 #@! TF.FilePolarity,Positive*
%FSLAX46Y46*%
G04 Gerber Fmt 4.6, Leading zero omitted, Abs format (unit mm)*
G04 Created by KiCad (PCBNEW (6.0.4)) date 2022-04-28 11:38:26*
%MOMM*%
%LPD*%
G01*
G04 APERTURE LIST*
G04 #@! TA.AperFunction,ComponentPad*
%ADD10R,1.700000X1.700000*%
G04 #@! TD*
G04 #@! TA.AperFunction,ComponentPad*
%ADD11O,1.700000X1.700000*%
G04 #@! TD*
G04 #@! TA.AperFunction,ComponentPad*
%ADD12C,1.600000*%
G04 #@! TD*
G04 #@! TA.AperFunction,ComponentPad*
%ADD13O,1.600000X1.600000*%
G04 #@! TD*
G04 #@! TA.AperFunction,ComponentPad*
%ADD14C,0.700000*%
G04 #@! TD*
G04 #@! TA.AperFunction,ComponentPad*
%ADD15O,0.900000X2.400000*%
G04 #@! TD*
G04 #@! TA.AperFunction,ComponentPad*
%ADD16O,0.900000X1.700000*%
G04 #@! TD*
G04 #@! TA.AperFunction,ComponentPad*
%ADD17R,3.000000X3.000000*%
G04 #@! TD*
G04 #@! TA.AperFunction,ComponentPad*
%ADD18C,3.000000*%
G04 #@! TD*
G04 #@! TA.AperFunction,Conductor*
%ADD19C,0.200000*%
G04 #@! TD*
G04 APERTURE END LIST*
D10*
X112475000Y-87975000D03*
D11*
X115015000Y-87975000D03*
X117555000Y-87975000D03*
D10*
X102535155Y-81273009D03*
D11*
X102535155Y-83813009D03*
X102535155Y-86353009D03*
X102535155Y-88893009D03*
D12*
X132190000Y-48000000D03*
D13*
X139810000Y-48000000D03*
D12*
X120000000Y-56810000D03*
D13*
X120000000Y-49190000D03*
D10*
X120200000Y-45000000D03*
D11*
X122740000Y-45000000D03*
X125280000Y-45000000D03*
X127820000Y-45000000D03*
D10*
X144025000Y-48400000D03*
D11*
X144025000Y-50940000D03*
X144025000Y-53480000D03*
X144025000Y-56020000D03*
D12*
X132190000Y-51000000D03*
D13*
X139810000Y-51000000D03*
D12*
X123000000Y-56810000D03*
D13*
X123000000Y-49190000D03*
D12*
X126000000Y-49190000D03*
D13*
X126000000Y-56810000D03*
D14*
X104975000Y-49025000D03*
X104125000Y-49025000D03*
X103275000Y-49025000D03*
X102425000Y-49025000D03*
X101575000Y-49025000D03*
X100725000Y-49025000D03*
X99875000Y-49025000D03*
X99025000Y-49025000D03*
X99025000Y-47675000D03*
X99875000Y-47675000D03*
X100725000Y-47675000D03*
X101575000Y-47675000D03*
X102425000Y-47675000D03*
X103275000Y-47675000D03*
X104125000Y-47675000D03*
X104975000Y-47675000D03*
D15*
X97675000Y-48045000D03*
X106325000Y-48045000D03*
D16*
X97675000Y-44665000D03*
X106325000Y-44665000D03*
D10*
X138475000Y-87975000D03*
D11*
X141015000Y-87975000D03*
X143555000Y-87975000D03*
D17*
X96150682Y-82627673D03*
D18*
X96150682Y-87707673D03*
D10*
X102424592Y-54743501D03*
D11*
X102424592Y-57283501D03*
X102424592Y-59823501D03*
X102424592Y-62363501D03*
D10*
X125475000Y-87975000D03*
D11*
X128015000Y-87975000D03*
X130555000Y-87975000D03*
D17*
X96000000Y-56000000D03*
D18*
X96000000Y-61080000D03*
D12*
X108490000Y-81420000D03*
X111030000Y-81420000D03*
X113570000Y-81420000D03*
X116110000Y-81420000D03*
X118650000Y-81420000D03*
X121190000Y-81420000D03*
X123730000Y-81420000D03*
X126270000Y-81420000D03*
X128810000Y-81420000D03*
X131350000Y-81420000D03*
X133890000Y-81420000D03*
X136430000Y-81420000D03*
X138970000Y-81420000D03*
X141510000Y-81420000D03*
X141510000Y-78880000D03*
X141510000Y-76340000D03*
X141510000Y-73800000D03*
X141510000Y-71260000D03*
X141510000Y-68720000D03*
X141510000Y-66180000D03*
X138970000Y-66180000D03*
X136430000Y-66180000D03*
X133890000Y-66180000D03*
X131350000Y-66180000D03*
X128810000Y-66180000D03*
X126270000Y-66180000D03*
X123730000Y-66180000D03*
X121190000Y-66180000D03*
X118650000Y-66180000D03*
X116110000Y-66180000D03*
X113570000Y-66180000D03*
X111030000Y-66180000D03*
X108490000Y-66180000D03*
X111030000Y-68720000D03*
X139810000Y-54000000D03*
D13*
X132190000Y-54000000D03*
D10*
X147180000Y-93280000D03*
D11*
X147180000Y-95820000D03*
X144640000Y-93280000D03*
X144640000Y-95820000D03*
X142100000Y-93280000D03*
X142100000Y-95820000D03*
X139560000Y-93280000D03*
X139560000Y-95820000D03*
X137020000Y-93280000D03*
X137020000Y-95820000D03*
X134480000Y-93280000D03*
X134480000Y-95820000D03*
X131940000Y-93280000D03*
X131940000Y-95820000D03*
X129400000Y-93280000D03*
X129400000Y-95820000D03*
X126860000Y-93280000D03*
X126860000Y-95820000D03*
X124320000Y-93280000D03*
X124320000Y-95820000D03*
X121780000Y-93280000D03*
X121780000Y-95820000D03*
X119240000Y-93280000D03*
X119240000Y-95820000D03*
X116700000Y-93280000D03*
X116700000Y-95820000D03*
X114160000Y-93280000D03*
X114160000Y-95820000D03*
X111620000Y-93280000D03*
X111620000Y-95820000D03*
X109080000Y-93280000D03*
X109080000Y-95820000D03*
X106540000Y-93280000D03*
X106540000Y-95820000D03*
X104000000Y-93280000D03*
X104000000Y-95820000D03*
X101460000Y-93280000D03*
X101460000Y-95820000D03*
X98920000Y-93280000D03*
X98920000Y-95820000D03*
D19*
X107000000Y-59000000D02*
X102743501Y-54743501D01*
X133890000Y-81420000D02*
X129470000Y-77000000D01*
X102743501Y-54743501D02*
X102424592Y-54743501D01*
X129470000Y-77000000D02*
X114000000Y-77000000D01*
X107000000Y-70000000D02*
X107000000Y-59000000D01*
X114000000Y-77000000D02*
X107000000Y-70000000D01*
X117555000Y-87975000D02*
X117555000Y-88445000D01*
X113900000Y-91000000D02*
X111620000Y-93280000D01*
X115000000Y-91000000D02*
X113900000Y-91000000D01*
X117555000Y-88445000D02*
X115000000Y-91000000D01*
X136760000Y-91000000D02*
X134480000Y-93280000D01*
X143000000Y-88530000D02*
X143000000Y-91000000D01*
X143555000Y-87975000D02*
X143000000Y-88530000D01*
X143000000Y-91000000D02*
X136760000Y-91000000D01*
X130555000Y-87975000D02*
X130555000Y-92125000D01*
X130555000Y-92125000D02*
X129400000Y-93280000D01*
X127930000Y-78000000D02*
X113000000Y-78000000D01*
X131350000Y-81420000D02*
X127930000Y-78000000D01*
X105521200Y-60380109D02*
X102424592Y-57283501D01*
X113000000Y-78000000D02*
X105521200Y-70521200D01*
X105521200Y-70521200D02*
X105521200Y-60380109D01*
X104000000Y-71000000D02*
X104000000Y-61398909D01*
X112000000Y-79000000D02*
X104000000Y-71000000D01*
X104000000Y-61398909D02*
X102424592Y-59823501D01*
X126390000Y-79000000D02*
X112000000Y-79000000D01*
X128810000Y-81420000D02*
X126390000Y-79000000D01*
X111000000Y-80000000D02*
X102424592Y-71424592D01*
X124850000Y-80000000D02*
X111000000Y-80000000D01*
X102424592Y-71424592D02*
X102424592Y-62363501D01*
X126270000Y-81420000D02*
X124850000Y-80000000D01*
X102535155Y-81273009D02*
X104273009Y-81273009D01*
X116110000Y-82890000D02*
X116110000Y-81420000D01*
X106000000Y-83000000D02*
X116000000Y-83000000D01*
X116000000Y-83000000D02*
X116110000Y-82890000D01*
X104273009Y-81273009D02*
X106000000Y-83000000D01*
X117186991Y-83813009D02*
X118650000Y-82350000D01*
X118650000Y-82350000D02*
X118650000Y-81420000D01*
X102535155Y-83813009D02*
X117186991Y-83813009D01*
X102535155Y-86353009D02*
X104646991Y-86353009D01*
X104646991Y-86353009D02*
X106316401Y-84683599D01*
X106316401Y-84683599D02*
X119316401Y-84683599D01*
X119316401Y-84683599D02*
X121190000Y-82810000D01*
X121190000Y-82810000D02*
X121190000Y-81420000D01*
X123730000Y-83270000D02*
X123730000Y-81420000D01*
X121418778Y-85581222D02*
X123730000Y-83270000D01*
X104106991Y-88893009D02*
X107418778Y-85581222D01*
X107418778Y-85581222D02*
X121418778Y-85581222D01*
X102535155Y-88893009D02*
X104106991Y-88893009D01*
X142965000Y-52000000D02*
X144025000Y-50940000D01*
X141810000Y-52000000D02*
X142965000Y-52000000D01*
X139810000Y-54000000D02*
X141810000Y-52000000D01*
X122740000Y-45000000D02*
X126000000Y-48260000D01*
X126000000Y-48260000D02*
X126000000Y-49190000D01*
X139810000Y-51000000D02*
X138000000Y-51000000D01*
X135000000Y-48000000D02*
X132190000Y-48000000D01*
X138000000Y-51000000D02*
X135000000Y-48000000D01*
X123000000Y-52000000D02*
X120000000Y-55000000D01*
X123000000Y-49190000D02*
X123000000Y-52000000D01*
X120000000Y-55000000D02*
X120000000Y-56810000D01*
X123000000Y-59290000D02*
X116110000Y-66180000D01*
X126000000Y-56810000D02*
X123000000Y-56810000D01*
X123000000Y-56810000D02*
X123000000Y-59290000D01*
X132190000Y-54000000D02*
X132190000Y-56810000D01*
X126270000Y-62730000D02*
X126270000Y-66180000D01*
X132190000Y-56810000D02*
X126270000Y-62730000D01*
X132190000Y-51000000D02*
X132190000Y-54000000D01*
X128810000Y-64190000D02*
X128810000Y-66180000D01*
X144025000Y-53480000D02*
X139505000Y-58000000D01*
X139505000Y-58000000D02*
X135000000Y-58000000D01*
X135000000Y-58000000D02*
X128810000Y-64190000D01*
X125280000Y-45000000D02*
X127269521Y-46989521D01*
X127269521Y-57560479D02*
X118650000Y-66180000D01*
X127269521Y-46989521D02*
X127269521Y-57560479D01*
M02*
