M48
; DRILL file {KiCad (6.0.4)} date Thu Apr 28 11:38:30 2022
; FORMAT={-:-/ absolute / inch / decimal}
; #@! TF.CreationDate,2022-04-28T11:38:30-07:00
; #@! TF.GenerationSoftware,Kicad,Pcbnew,(6.0.4)
; #@! TF.FileFunction,Plated,1,2,PTH
FMAT,2
INCH
; #@! TA.AperFunction,Plated,PTH,ComponentDrill
T1C0.0157
; #@! TA.AperFunction,Plated,PTH,ComponentDrill
T2C0.0236
; #@! TA.AperFunction,Plated,PTH,ComponentDrill
T3C0.0315
; #@! TA.AperFunction,Plated,PTH,ComponentDrill
T4C0.0394
; #@! TA.AperFunction,Plated,PTH,ComponentDrill
T5C0.0433
; #@! TA.AperFunction,Plated,PTH,ComponentDrill
T6C0.0598
%
G90
G05
T1
X3.8986Y-1.877
X3.8986Y-1.9301
X3.9321Y-1.877
X3.9321Y-1.9301
X3.9656Y-1.877
X3.9656Y-1.9301
X3.999Y-1.877
X3.999Y-1.9301
X4.0325Y-1.877
X4.0325Y-1.9301
X4.0659Y-1.877
X4.0659Y-1.9301
X4.0994Y-1.877
X4.0994Y-1.9301
X4.1329Y-1.877
X4.1329Y-1.9301
T3
X4.7244Y-1.9366
X4.7244Y-2.2366
X4.8425Y-1.9366
X4.8425Y-2.2366
X4.9606Y-1.9366
X4.9606Y-2.2366
X5.2043Y-1.8898
X5.2043Y-2.0079
X5.2043Y-2.126
X5.5043Y-1.8898
X5.5043Y-2.0079
X5.5043Y-2.126
T4
X3.8945Y-3.6724
X3.8945Y-3.7724
X3.9945Y-3.6724
X3.9945Y-3.7724
X4.0325Y-2.1553
X4.0325Y-2.2553
X4.0325Y-2.3553
X4.0325Y-2.4553
X4.0368Y-3.1997
X4.0368Y-3.2997
X4.0368Y-3.3997
X4.0368Y-3.4997
X4.0945Y-3.6724
X4.0945Y-3.7724
X4.1945Y-3.6724
X4.1945Y-3.7724
X4.2945Y-3.6724
X4.2945Y-3.7724
X4.3945Y-3.6724
X4.3945Y-3.7724
X4.4281Y-3.4636
X4.4945Y-3.6724
X4.4945Y-3.7724
X4.5281Y-3.4636
X4.5945Y-3.6724
X4.5945Y-3.7724
X4.6281Y-3.4636
X4.6945Y-3.6724
X4.6945Y-3.7724
X4.7323Y-1.7717
X4.7945Y-3.6724
X4.7945Y-3.7724
X4.8323Y-1.7717
X4.8945Y-3.6724
X4.8945Y-3.7724
X4.9323Y-1.7717
X4.94Y-3.4636
X4.9945Y-3.6724
X4.9945Y-3.7724
X5.0323Y-1.7717
X5.04Y-3.4636
X5.0945Y-3.6724
X5.0945Y-3.7724
X5.14Y-3.4636
X5.1945Y-3.6724
X5.1945Y-3.7724
X5.2945Y-3.6724
X5.2945Y-3.7724
X5.3945Y-3.6724
X5.3945Y-3.7724
X5.4518Y-3.4636
X5.4945Y-3.6724
X5.4945Y-3.7724
X5.5518Y-3.4636
X5.5945Y-3.6724
X5.5945Y-3.7724
X5.6518Y-3.4636
X5.6703Y-1.9055
X5.6703Y-2.0055
X5.6703Y-2.1055
X5.6703Y-2.2055
X5.6945Y-3.6724
X5.6945Y-3.7724
X5.7945Y-3.6724
X5.7945Y-3.7724
T5
X4.2713Y-2.6055
X4.2713Y-3.2055
X4.3713Y-2.6055
X4.3713Y-2.7055
X4.3713Y-3.2055
X4.4713Y-2.6055
X4.4713Y-3.2055
X4.5713Y-2.6055
X4.5713Y-3.2055
X4.6713Y-2.6055
X4.6713Y-3.2055
X4.7713Y-2.6055
X4.7713Y-3.2055
X4.8713Y-2.6055
X4.8713Y-3.2055
X4.9713Y-2.6055
X4.9713Y-3.2055
X5.0713Y-2.6055
X5.0713Y-3.2055
X5.1713Y-2.6055
X5.1713Y-3.2055
X5.2713Y-2.6055
X5.2713Y-3.2055
X5.3713Y-2.6055
X5.3713Y-3.2055
X5.4713Y-2.6055
X5.4713Y-3.2055
X5.5713Y-2.6055
X5.5713Y-2.7055
X5.5713Y-2.8055
X5.5713Y-2.9055
X5.5713Y-3.0055
X5.5713Y-3.1055
X5.5713Y-3.2055
T6
X3.7795Y-2.2047
X3.7795Y-2.4047
X3.7855Y-3.2531
X3.7855Y-3.4531
T2
G00X3.8455Y-1.7742
M15
G01X3.8455Y-1.7427
M16
G05
G00X3.8455Y-1.9211
M15
G01X3.8455Y-1.862
M16
G05
G00X4.186Y-1.7742
M15
G01X4.186Y-1.7427
M16
G05
G00X4.186Y-1.9211
M15
G01X4.186Y-1.862
M16
G05
T0
M30
