G04 #@! TF.GenerationSoftware,KiCad,Pcbnew,(6.0.4)*
G04 #@! TF.CreationDate,2022-04-28T11:38:27-07:00*
G04 #@! TF.ProjectId,Lec18-PCB_kicad,4c656331-382d-4504-9342-5f6b69636164,rev?*
G04 #@! TF.SameCoordinates,Original*
G04 #@! TF.FileFunction,Profile,NP*
%FSLAX46Y46*%
G04 Gerber Fmt 4.6, Leading zero omitted, Abs format (unit mm)*
G04 Created by KiCad (PCBNEW (6.0.4)) date 2022-04-28 11:38:27*
%MOMM*%
%LPD*%
G01*
G04 APERTURE LIST*
G04 #@! TA.AperFunction,Profile*
%ADD10C,0.100000*%
G04 #@! TD*
G04 APERTURE END LIST*
D10*
X155550000Y-61050000D02*
X155550000Y-45050000D01*
X90550000Y-45050000D02*
X90550000Y-95050000D01*
X152550000Y-42050000D02*
X113640000Y-42050000D01*
X151050000Y-61550000D02*
G75*
G03*
X150550000Y-62050000I0J-500000D01*
G01*
X151050000Y-61550000D02*
X155050000Y-61550000D01*
X108560000Y-61100000D02*
G75*
G03*
X113640000Y-61100000I2540000J0D01*
G01*
X113640000Y-42050000D02*
X113640000Y-61050000D01*
X108560000Y-61100000D02*
X108560000Y-42050000D01*
X90550000Y-95050000D02*
G75*
G03*
X93550000Y-98050000I3000000J0D01*
G01*
X155550000Y-79050000D02*
G75*
G03*
X155050000Y-78550000I-500000J0D01*
G01*
X93550000Y-42050000D02*
G75*
G03*
X90550000Y-45050000I0J-3000000D01*
G01*
X155050873Y-61549999D02*
G75*
G03*
X155550000Y-61050000I-873J499999D01*
G01*
X155550000Y-45050000D02*
G75*
G03*
X152550000Y-42050000I-3000000J0D01*
G01*
X150550000Y-78050000D02*
G75*
G03*
X151050000Y-78550000I500000J0D01*
G01*
X152550000Y-98050000D02*
G75*
G03*
X155550000Y-95050000I0J3000000D01*
G01*
X93550000Y-98050000D02*
X152550000Y-98050000D01*
X108560000Y-42050000D02*
X93320000Y-42050000D01*
X155050000Y-78550000D02*
X151050000Y-78550000D01*
X155550000Y-95050000D02*
X155550000Y-79050000D01*
X150550000Y-78050000D02*
X150550000Y-62050000D01*
M02*
