G04 #@! TF.GenerationSoftware,KiCad,Pcbnew,(6.0.4)*
G04 #@! TF.CreationDate,2022-04-28T11:38:26-07:00*
G04 #@! TF.ProjectId,Lec18-PCB_kicad,4c656331-382d-4504-9342-5f6b69636164,rev?*
G04 #@! TF.SameCoordinates,Original*
G04 #@! TF.FileFunction,Legend,Top*
G04 #@! TF.FilePolarity,Positive*
%FSLAX46Y46*%
G04 Gerber Fmt 4.6, Leading zero omitted, Abs format (unit mm)*
G04 Created by KiCad (PCBNEW (6.0.4)) date 2022-04-28 11:38:26*
%MOMM*%
%LPD*%
G01*
G04 APERTURE LIST*
%ADD10C,0.150000*%
%ADD11C,0.120000*%
%ADD12C,0.100000*%
G04 APERTURE END LIST*
D10*
X146238095Y-47500000D02*
X146142857Y-47452380D01*
X146000000Y-47452380D01*
X145857142Y-47500000D01*
X145761904Y-47595238D01*
X145714285Y-47690476D01*
X145666666Y-47880952D01*
X145666666Y-48023809D01*
X145714285Y-48214285D01*
X145761904Y-48309523D01*
X145857142Y-48404761D01*
X146000000Y-48452380D01*
X146095238Y-48452380D01*
X146238095Y-48404761D01*
X146285714Y-48357142D01*
X146285714Y-48023809D01*
X146095238Y-48023809D01*
X146714285Y-48452380D02*
X146714285Y-47452380D01*
X147285714Y-48452380D01*
X147285714Y-47452380D01*
X147761904Y-48452380D02*
X147761904Y-47452380D01*
X148000000Y-47452380D01*
X148142857Y-47500000D01*
X148238095Y-47595238D01*
X148285714Y-47690476D01*
X148333333Y-47880952D01*
X148333333Y-48023809D01*
X148285714Y-48214285D01*
X148238095Y-48309523D01*
X148142857Y-48404761D01*
X148000000Y-48452380D01*
X147761904Y-48452380D01*
X124238095Y-84500000D02*
X124142857Y-84452380D01*
X124000000Y-84452380D01*
X123857142Y-84500000D01*
X123761904Y-84595238D01*
X123714285Y-84690476D01*
X123666666Y-84880952D01*
X123666666Y-85023809D01*
X123714285Y-85214285D01*
X123761904Y-85309523D01*
X123857142Y-85404761D01*
X124000000Y-85452380D01*
X124095238Y-85452380D01*
X124238095Y-85404761D01*
X124285714Y-85357142D01*
X124285714Y-85023809D01*
X124095238Y-85023809D01*
X124714285Y-85452380D02*
X124714285Y-84452380D01*
X125285714Y-85452380D01*
X125285714Y-84452380D01*
X125761904Y-85452380D02*
X125761904Y-84452380D01*
X126000000Y-84452380D01*
X126142857Y-84500000D01*
X126238095Y-84595238D01*
X126285714Y-84690476D01*
X126333333Y-84880952D01*
X126333333Y-85023809D01*
X126285714Y-85214285D01*
X126238095Y-85309523D01*
X126142857Y-85404761D01*
X126000000Y-85452380D01*
X125761904Y-85452380D01*
X95238095Y-64500000D02*
X95142857Y-64452380D01*
X95000000Y-64452380D01*
X94857142Y-64500000D01*
X94761904Y-64595238D01*
X94714285Y-64690476D01*
X94666666Y-64880952D01*
X94666666Y-65023809D01*
X94714285Y-65214285D01*
X94761904Y-65309523D01*
X94857142Y-65404761D01*
X95000000Y-65452380D01*
X95095238Y-65452380D01*
X95238095Y-65404761D01*
X95285714Y-65357142D01*
X95285714Y-65023809D01*
X95095238Y-65023809D01*
X95714285Y-65452380D02*
X95714285Y-64452380D01*
X96285714Y-65452380D01*
X96285714Y-64452380D01*
X96761904Y-65452380D02*
X96761904Y-64452380D01*
X97000000Y-64452380D01*
X97142857Y-64500000D01*
X97238095Y-64595238D01*
X97285714Y-64690476D01*
X97333333Y-64880952D01*
X97333333Y-65023809D01*
X97285714Y-65214285D01*
X97238095Y-65309523D01*
X97142857Y-65404761D01*
X97000000Y-65452380D01*
X96761904Y-65452380D01*
X126714285Y-85071428D02*
X127476190Y-85071428D01*
X127095238Y-85452380D02*
X127095238Y-84690476D01*
X128428571Y-84452380D02*
X127952380Y-84452380D01*
X127904761Y-84928571D01*
X127952380Y-84880952D01*
X128047619Y-84833333D01*
X128285714Y-84833333D01*
X128380952Y-84880952D01*
X128428571Y-84928571D01*
X128476190Y-85023809D01*
X128476190Y-85261904D01*
X128428571Y-85357142D01*
X128380952Y-85404761D01*
X128285714Y-85452380D01*
X128047619Y-85452380D01*
X127952380Y-85404761D01*
X127904761Y-85357142D01*
X128761904Y-84452380D02*
X129095238Y-85452380D01*
X129428571Y-84452380D01*
X95714285Y-52071428D02*
X96476190Y-52071428D01*
X96095238Y-52452380D02*
X96095238Y-51690476D01*
X97428571Y-51452380D02*
X96952380Y-51452380D01*
X96904761Y-51928571D01*
X96952380Y-51880952D01*
X97047619Y-51833333D01*
X97285714Y-51833333D01*
X97380952Y-51880952D01*
X97428571Y-51928571D01*
X97476190Y-52023809D01*
X97476190Y-52261904D01*
X97428571Y-52357142D01*
X97380952Y-52404761D01*
X97285714Y-52452380D01*
X97047619Y-52452380D01*
X96952380Y-52404761D01*
X96904761Y-52357142D01*
X97761904Y-51452380D02*
X98095238Y-52452380D01*
X98428571Y-51452380D01*
X139714285Y-85071428D02*
X140476190Y-85071428D01*
X140095238Y-85452380D02*
X140095238Y-84690476D01*
X141428571Y-84452380D02*
X140952380Y-84452380D01*
X140904761Y-84928571D01*
X140952380Y-84880952D01*
X141047619Y-84833333D01*
X141285714Y-84833333D01*
X141380952Y-84880952D01*
X141428571Y-84928571D01*
X141476190Y-85023809D01*
X141476190Y-85261904D01*
X141428571Y-85357142D01*
X141380952Y-85404761D01*
X141285714Y-85452380D01*
X141047619Y-85452380D01*
X140952380Y-85404761D01*
X140904761Y-85357142D01*
X141761904Y-84452380D02*
X142095238Y-85452380D01*
X142428571Y-84452380D01*
X104523265Y-54582657D02*
X104523265Y-53582657D01*
X104999455Y-54582657D02*
X104999455Y-53582657D01*
X105570884Y-54582657D01*
X105570884Y-53582657D01*
X106570884Y-54582657D02*
X105999455Y-54582657D01*
X106285169Y-54582657D02*
X106285169Y-53582657D01*
X106189931Y-53725515D01*
X106094693Y-53820753D01*
X105999455Y-53868372D01*
X116238095Y-46500000D02*
X116142857Y-46452380D01*
X116000000Y-46452380D01*
X115857142Y-46500000D01*
X115761904Y-46595238D01*
X115714285Y-46690476D01*
X115666666Y-46880952D01*
X115666666Y-47023809D01*
X115714285Y-47214285D01*
X115761904Y-47309523D01*
X115857142Y-47404761D01*
X116000000Y-47452380D01*
X116095238Y-47452380D01*
X116238095Y-47404761D01*
X116285714Y-47357142D01*
X116285714Y-47023809D01*
X116095238Y-47023809D01*
X116714285Y-47452380D02*
X116714285Y-46452380D01*
X117285714Y-47452380D01*
X117285714Y-46452380D01*
X117761904Y-47452380D02*
X117761904Y-46452380D01*
X118000000Y-46452380D01*
X118142857Y-46500000D01*
X118238095Y-46595238D01*
X118285714Y-46690476D01*
X118333333Y-46880952D01*
X118333333Y-47023809D01*
X118285714Y-47214285D01*
X118238095Y-47309523D01*
X118142857Y-47404761D01*
X118000000Y-47452380D01*
X117761904Y-47452380D01*
X104552220Y-84030482D02*
X104552220Y-83030482D01*
X105028410Y-84030482D02*
X105028410Y-83030482D01*
X105599839Y-84030482D01*
X105599839Y-83030482D01*
X106028410Y-83125721D02*
X106076029Y-83078102D01*
X106171267Y-83030482D01*
X106409362Y-83030482D01*
X106504600Y-83078102D01*
X106552220Y-83125721D01*
X106599839Y-83220959D01*
X106599839Y-83316197D01*
X106552220Y-83459054D01*
X105980791Y-84030482D01*
X106599839Y-84030482D01*
X95714285Y-79071428D02*
X96476190Y-79071428D01*
X96095238Y-79452380D02*
X96095238Y-78690476D01*
X97428571Y-78452380D02*
X96952380Y-78452380D01*
X96904761Y-78928571D01*
X96952380Y-78880952D01*
X97047619Y-78833333D01*
X97285714Y-78833333D01*
X97380952Y-78880952D01*
X97428571Y-78928571D01*
X97476190Y-79023809D01*
X97476190Y-79261904D01*
X97428571Y-79357142D01*
X97380952Y-79404761D01*
X97285714Y-79452380D01*
X97047619Y-79452380D01*
X96952380Y-79404761D01*
X96904761Y-79357142D01*
X97761904Y-78452380D02*
X98095238Y-79452380D01*
X98428571Y-78452380D01*
X129714285Y-45071428D02*
X130476190Y-45071428D01*
X130095238Y-45452380D02*
X130095238Y-44690476D01*
X131428571Y-44452380D02*
X130952380Y-44452380D01*
X130904761Y-44928571D01*
X130952380Y-44880952D01*
X131047619Y-44833333D01*
X131285714Y-44833333D01*
X131380952Y-44880952D01*
X131428571Y-44928571D01*
X131476190Y-45023809D01*
X131476190Y-45261904D01*
X131428571Y-45357142D01*
X131380952Y-45404761D01*
X131285714Y-45452380D01*
X131047619Y-45452380D01*
X130952380Y-45404761D01*
X130904761Y-45357142D01*
X131761904Y-44452380D02*
X132095238Y-45452380D01*
X132428571Y-44452380D01*
X142976190Y-85404761D02*
X143119047Y-85452380D01*
X143357142Y-85452380D01*
X143452380Y-85404761D01*
X143500000Y-85357142D01*
X143547619Y-85261904D01*
X143547619Y-85166666D01*
X143500000Y-85071428D01*
X143452380Y-85023809D01*
X143357142Y-84976190D01*
X143166666Y-84928571D01*
X143071428Y-84880952D01*
X143023809Y-84833333D01*
X142976190Y-84738095D01*
X142976190Y-84642857D01*
X143023809Y-84547619D01*
X143071428Y-84500000D01*
X143166666Y-84452380D01*
X143404761Y-84452380D01*
X143547619Y-84500000D01*
X143976190Y-85452380D02*
X143976190Y-84452380D01*
X144976190Y-84500000D02*
X144880952Y-84452380D01*
X144738095Y-84452380D01*
X144595238Y-84500000D01*
X144500000Y-84595238D01*
X144452380Y-84690476D01*
X144404761Y-84880952D01*
X144404761Y-85023809D01*
X144452380Y-85214285D01*
X144500000Y-85309523D01*
X144595238Y-85404761D01*
X144738095Y-85452380D01*
X144833333Y-85452380D01*
X144976190Y-85404761D01*
X145023809Y-85357142D01*
X145023809Y-85023809D01*
X144833333Y-85023809D01*
X111048095Y-84500000D02*
X110952857Y-84452380D01*
X110810000Y-84452380D01*
X110667142Y-84500000D01*
X110571904Y-84595238D01*
X110524285Y-84690476D01*
X110476666Y-84880952D01*
X110476666Y-85023809D01*
X110524285Y-85214285D01*
X110571904Y-85309523D01*
X110667142Y-85404761D01*
X110810000Y-85452380D01*
X110905238Y-85452380D01*
X111048095Y-85404761D01*
X111095714Y-85357142D01*
X111095714Y-85023809D01*
X110905238Y-85023809D01*
X111524285Y-85452380D02*
X111524285Y-84452380D01*
X112095714Y-85452380D01*
X112095714Y-84452380D01*
X112571904Y-85452380D02*
X112571904Y-84452380D01*
X112810000Y-84452380D01*
X112952857Y-84500000D01*
X113048095Y-84595238D01*
X113095714Y-84690476D01*
X113143333Y-84880952D01*
X113143333Y-85023809D01*
X113095714Y-85214285D01*
X113048095Y-85309523D01*
X112952857Y-85404761D01*
X112810000Y-85452380D01*
X112571904Y-85452380D01*
X104523265Y-63582657D02*
X104523265Y-62582657D01*
X104999455Y-63582657D02*
X104999455Y-62582657D01*
X105570884Y-63582657D01*
X105570884Y-62582657D01*
X106475645Y-62915991D02*
X106475645Y-63582657D01*
X106237550Y-62535038D02*
X105999455Y-63249324D01*
X106618503Y-63249324D01*
X104523265Y-57582657D02*
X104523265Y-56582657D01*
X104999455Y-57582657D02*
X104999455Y-56582657D01*
X105570884Y-57582657D01*
X105570884Y-56582657D01*
X105999455Y-56677896D02*
X106047074Y-56630277D01*
X106142312Y-56582657D01*
X106380407Y-56582657D01*
X106475645Y-56630277D01*
X106523265Y-56677896D01*
X106570884Y-56773134D01*
X106570884Y-56868372D01*
X106523265Y-57011229D01*
X105951836Y-57582657D01*
X106570884Y-57582657D01*
X104523265Y-60582657D02*
X104523265Y-59582657D01*
X104999455Y-60582657D02*
X104999455Y-59582657D01*
X105570884Y-60582657D01*
X105570884Y-59582657D01*
X105951836Y-59582657D02*
X106570884Y-59582657D01*
X106237550Y-59963610D01*
X106380407Y-59963610D01*
X106475645Y-60011229D01*
X106523265Y-60058848D01*
X106570884Y-60154086D01*
X106570884Y-60392181D01*
X106523265Y-60487419D01*
X106475645Y-60535038D01*
X106380407Y-60582657D01*
X106094693Y-60582657D01*
X105999455Y-60535038D01*
X105951836Y-60487419D01*
X104552220Y-81030482D02*
X104552220Y-80030482D01*
X105028410Y-81030482D02*
X105028410Y-80030482D01*
X105599839Y-81030482D01*
X105599839Y-80030482D01*
X106599839Y-81030482D02*
X106028410Y-81030482D01*
X106314124Y-81030482D02*
X106314124Y-80030482D01*
X106218886Y-80173340D01*
X106123648Y-80268578D01*
X106028410Y-80316197D01*
X96238095Y-90500000D02*
X96142857Y-90452380D01*
X96000000Y-90452380D01*
X95857142Y-90500000D01*
X95761904Y-90595238D01*
X95714285Y-90690476D01*
X95666666Y-90880952D01*
X95666666Y-91023809D01*
X95714285Y-91214285D01*
X95761904Y-91309523D01*
X95857142Y-91404761D01*
X96000000Y-91452380D01*
X96095238Y-91452380D01*
X96238095Y-91404761D01*
X96285714Y-91357142D01*
X96285714Y-91023809D01*
X96095238Y-91023809D01*
X96714285Y-91452380D02*
X96714285Y-90452380D01*
X97285714Y-91452380D01*
X97285714Y-90452380D01*
X97761904Y-91452380D02*
X97761904Y-90452380D01*
X98000000Y-90452380D01*
X98142857Y-90500000D01*
X98238095Y-90595238D01*
X98285714Y-90690476D01*
X98333333Y-90880952D01*
X98333333Y-91023809D01*
X98285714Y-91214285D01*
X98238095Y-91309523D01*
X98142857Y-91404761D01*
X98000000Y-91452380D01*
X97761904Y-91452380D01*
X104552220Y-90030482D02*
X104552220Y-89030482D01*
X105028410Y-90030482D02*
X105028410Y-89030482D01*
X105599839Y-90030482D01*
X105599839Y-89030482D01*
X106504600Y-89363816D02*
X106504600Y-90030482D01*
X106266505Y-88982863D02*
X106028410Y-89697149D01*
X106647458Y-89697149D01*
X145714285Y-56071428D02*
X146476190Y-56071428D01*
X146095238Y-56452380D02*
X146095238Y-55690476D01*
X147428571Y-55452380D02*
X146952380Y-55452380D01*
X146904761Y-55928571D01*
X146952380Y-55880952D01*
X147047619Y-55833333D01*
X147285714Y-55833333D01*
X147380952Y-55880952D01*
X147428571Y-55928571D01*
X147476190Y-56023809D01*
X147476190Y-56261904D01*
X147428571Y-56357142D01*
X147380952Y-56404761D01*
X147285714Y-56452380D01*
X147047619Y-56452380D01*
X146952380Y-56404761D01*
X146904761Y-56357142D01*
X147761904Y-55452380D02*
X148095238Y-56452380D01*
X148428571Y-55452380D01*
X104552220Y-87030482D02*
X104552220Y-86030482D01*
X105028410Y-87030482D02*
X105028410Y-86030482D01*
X105599839Y-87030482D01*
X105599839Y-86030482D01*
X105980791Y-86030482D02*
X106599839Y-86030482D01*
X106266505Y-86411435D01*
X106409362Y-86411435D01*
X106504600Y-86459054D01*
X106552220Y-86506673D01*
X106599839Y-86601911D01*
X106599839Y-86840006D01*
X106552220Y-86935244D01*
X106504600Y-86982863D01*
X106409362Y-87030482D01*
X106123648Y-87030482D01*
X106028410Y-86982863D01*
X105980791Y-86935244D01*
X129976190Y-85404761D02*
X130119047Y-85452380D01*
X130357142Y-85452380D01*
X130452380Y-85404761D01*
X130500000Y-85357142D01*
X130547619Y-85261904D01*
X130547619Y-85166666D01*
X130500000Y-85071428D01*
X130452380Y-85023809D01*
X130357142Y-84976190D01*
X130166666Y-84928571D01*
X130071428Y-84880952D01*
X130023809Y-84833333D01*
X129976190Y-84738095D01*
X129976190Y-84642857D01*
X130023809Y-84547619D01*
X130071428Y-84500000D01*
X130166666Y-84452380D01*
X130404761Y-84452380D01*
X130547619Y-84500000D01*
X130976190Y-85452380D02*
X130976190Y-84452380D01*
X131976190Y-84500000D02*
X131880952Y-84452380D01*
X131738095Y-84452380D01*
X131595238Y-84500000D01*
X131500000Y-84595238D01*
X131452380Y-84690476D01*
X131404761Y-84880952D01*
X131404761Y-85023809D01*
X131452380Y-85214285D01*
X131500000Y-85309523D01*
X131595238Y-85404761D01*
X131738095Y-85452380D01*
X131833333Y-85452380D01*
X131976190Y-85404761D01*
X132023809Y-85357142D01*
X132023809Y-85023809D01*
X131833333Y-85023809D01*
X137238095Y-84500000D02*
X137142857Y-84452380D01*
X137000000Y-84452380D01*
X136857142Y-84500000D01*
X136761904Y-84595238D01*
X136714285Y-84690476D01*
X136666666Y-84880952D01*
X136666666Y-85023809D01*
X136714285Y-85214285D01*
X136761904Y-85309523D01*
X136857142Y-85404761D01*
X137000000Y-85452380D01*
X137095238Y-85452380D01*
X137238095Y-85404761D01*
X137285714Y-85357142D01*
X137285714Y-85023809D01*
X137095238Y-85023809D01*
X137714285Y-85452380D02*
X137714285Y-84452380D01*
X138285714Y-85452380D01*
X138285714Y-84452380D01*
X138761904Y-85452380D02*
X138761904Y-84452380D01*
X139000000Y-84452380D01*
X139142857Y-84500000D01*
X139238095Y-84595238D01*
X139285714Y-84690476D01*
X139333333Y-84880952D01*
X139333333Y-85023809D01*
X139285714Y-85214285D01*
X139238095Y-85309523D01*
X139142857Y-85404761D01*
X139000000Y-85452380D01*
X138761904Y-85452380D01*
X113714285Y-85071428D02*
X114476190Y-85071428D01*
X114095238Y-85452380D02*
X114095238Y-84690476D01*
X115428571Y-84452380D02*
X114952380Y-84452380D01*
X114904761Y-84928571D01*
X114952380Y-84880952D01*
X115047619Y-84833333D01*
X115285714Y-84833333D01*
X115380952Y-84880952D01*
X115428571Y-84928571D01*
X115476190Y-85023809D01*
X115476190Y-85261904D01*
X115428571Y-85357142D01*
X115380952Y-85404761D01*
X115285714Y-85452380D01*
X115047619Y-85452380D01*
X114952380Y-85404761D01*
X114904761Y-85357142D01*
X115761904Y-84452380D02*
X116095238Y-85452380D01*
X116428571Y-84452380D01*
X116976190Y-85404761D02*
X117119047Y-85452380D01*
X117357142Y-85452380D01*
X117452380Y-85404761D01*
X117500000Y-85357142D01*
X117547619Y-85261904D01*
X117547619Y-85166666D01*
X117500000Y-85071428D01*
X117452380Y-85023809D01*
X117357142Y-84976190D01*
X117166666Y-84928571D01*
X117071428Y-84880952D01*
X117023809Y-84833333D01*
X116976190Y-84738095D01*
X116976190Y-84642857D01*
X117023809Y-84547619D01*
X117071428Y-84500000D01*
X117166666Y-84452380D01*
X117404761Y-84452380D01*
X117547619Y-84500000D01*
X117976190Y-85452380D02*
X117976190Y-84452380D01*
X118976190Y-84500000D02*
X118880952Y-84452380D01*
X118738095Y-84452380D01*
X118595238Y-84500000D01*
X118500000Y-84595238D01*
X118452380Y-84690476D01*
X118404761Y-84880952D01*
X118404761Y-85023809D01*
X118452380Y-85214285D01*
X118500000Y-85309523D01*
X118595238Y-85404761D01*
X118738095Y-85452380D01*
X118833333Y-85452380D01*
X118976190Y-85404761D01*
X119023809Y-85357142D01*
X119023809Y-85023809D01*
X118833333Y-85023809D01*
X92740476Y-49702380D02*
X92740476Y-48702380D01*
X93073809Y-49416666D01*
X93407142Y-48702380D01*
X93407142Y-49702380D01*
X93883333Y-49702380D02*
X93883333Y-48702380D01*
X94454761Y-49702380D02*
X94026190Y-49130952D01*
X94454761Y-48702380D02*
X93883333Y-49273809D01*
X95311904Y-49035714D02*
X95311904Y-49702380D01*
X95073809Y-48654761D02*
X94835714Y-49369047D01*
X95454761Y-49369047D01*
X150740476Y-49702380D02*
X150740476Y-48702380D01*
X151073809Y-49416666D01*
X151407142Y-48702380D01*
X151407142Y-49702380D01*
X151883333Y-49702380D02*
X151883333Y-48702380D01*
X152454761Y-49702380D02*
X152026190Y-49130952D01*
X152454761Y-48702380D02*
X151883333Y-49273809D01*
X152788095Y-48702380D02*
X153407142Y-48702380D01*
X153073809Y-49083333D01*
X153216666Y-49083333D01*
X153311904Y-49130952D01*
X153359523Y-49178571D01*
X153407142Y-49273809D01*
X153407142Y-49511904D01*
X153359523Y-49607142D01*
X153311904Y-49654761D01*
X153216666Y-49702380D01*
X152930952Y-49702380D01*
X152835714Y-49654761D01*
X152788095Y-49607142D01*
X150740476Y-91302380D02*
X150740476Y-90302380D01*
X151073809Y-91016666D01*
X151407142Y-90302380D01*
X151407142Y-91302380D01*
X151883333Y-91302380D02*
X151883333Y-90302380D01*
X152454761Y-91302380D02*
X152026190Y-90730952D01*
X152454761Y-90302380D02*
X151883333Y-90873809D01*
X153407142Y-91302380D02*
X152835714Y-91302380D01*
X153121428Y-91302380D02*
X153121428Y-90302380D01*
X153026190Y-90445238D01*
X152930952Y-90540476D01*
X152835714Y-90588095D01*
X93017355Y-92490280D02*
X93017355Y-91490280D01*
X93350688Y-92204566D01*
X93684021Y-91490280D01*
X93684021Y-92490280D01*
X94160212Y-92490280D02*
X94160212Y-91490280D01*
X94731640Y-92490280D02*
X94303069Y-91918852D01*
X94731640Y-91490280D02*
X94160212Y-92061709D01*
X95112593Y-91585519D02*
X95160212Y-91537900D01*
X95255450Y-91490280D01*
X95493545Y-91490280D01*
X95588783Y-91537900D01*
X95636402Y-91585519D01*
X95684021Y-91680757D01*
X95684021Y-91775995D01*
X95636402Y-91918852D01*
X95064974Y-92490280D01*
X95684021Y-92490280D01*
X109371666Y-87427380D02*
X109371666Y-88141666D01*
X109324047Y-88284523D01*
X109228809Y-88379761D01*
X109085952Y-88427380D01*
X108990714Y-88427380D01*
X110371666Y-88427380D02*
X109800238Y-88427380D01*
X110085952Y-88427380D02*
X110085952Y-87427380D01*
X109990714Y-87570238D01*
X109895476Y-87665476D01*
X109800238Y-87713095D01*
X102201821Y-77955389D02*
X102201821Y-78669675D01*
X102154202Y-78812532D01*
X102058964Y-78907770D01*
X101916107Y-78955389D01*
X101820869Y-78955389D01*
X103154202Y-77955389D02*
X102678012Y-77955389D01*
X102630393Y-78431580D01*
X102678012Y-78383961D01*
X102773250Y-78336342D01*
X103011345Y-78336342D01*
X103106583Y-78383961D01*
X103154202Y-78431580D01*
X103201821Y-78526818D01*
X103201821Y-78764913D01*
X103154202Y-78860151D01*
X103106583Y-78907770D01*
X103011345Y-78955389D01*
X102773250Y-78955389D01*
X102678012Y-78907770D01*
X102630393Y-78860151D01*
X129833333Y-48452380D02*
X129500000Y-47976190D01*
X129261904Y-48452380D02*
X129261904Y-47452380D01*
X129642857Y-47452380D01*
X129738095Y-47500000D01*
X129785714Y-47547619D01*
X129833333Y-47642857D01*
X129833333Y-47785714D01*
X129785714Y-47880952D01*
X129738095Y-47928571D01*
X129642857Y-47976190D01*
X129261904Y-47976190D01*
X130166666Y-47452380D02*
X130785714Y-47452380D01*
X130452380Y-47833333D01*
X130595238Y-47833333D01*
X130690476Y-47880952D01*
X130738095Y-47928571D01*
X130785714Y-48023809D01*
X130785714Y-48261904D01*
X130738095Y-48357142D01*
X130690476Y-48404761D01*
X130595238Y-48452380D01*
X130309523Y-48452380D01*
X130214285Y-48404761D01*
X130166666Y-48357142D01*
X119833333Y-59452380D02*
X119500000Y-58976190D01*
X119261904Y-59452380D02*
X119261904Y-58452380D01*
X119642857Y-58452380D01*
X119738095Y-58500000D01*
X119785714Y-58547619D01*
X119833333Y-58642857D01*
X119833333Y-58785714D01*
X119785714Y-58880952D01*
X119738095Y-58928571D01*
X119642857Y-58976190D01*
X119261904Y-58976190D01*
X120690476Y-58452380D02*
X120500000Y-58452380D01*
X120404761Y-58500000D01*
X120357142Y-58547619D01*
X120261904Y-58690476D01*
X120214285Y-58880952D01*
X120214285Y-59261904D01*
X120261904Y-59357142D01*
X120309523Y-59404761D01*
X120404761Y-59452380D01*
X120595238Y-59452380D01*
X120690476Y-59404761D01*
X120738095Y-59357142D01*
X120785714Y-59261904D01*
X120785714Y-59023809D01*
X120738095Y-58928571D01*
X120690476Y-58880952D01*
X120595238Y-58833333D01*
X120404761Y-58833333D01*
X120309523Y-58880952D01*
X120261904Y-58928571D01*
X120214285Y-59023809D01*
X117096666Y-44452380D02*
X117096666Y-45166666D01*
X117049047Y-45309523D01*
X116953809Y-45404761D01*
X116810952Y-45452380D01*
X116715714Y-45452380D01*
X117477619Y-44452380D02*
X118144285Y-44452380D01*
X117715714Y-45452380D01*
X143691666Y-45082380D02*
X143691666Y-45796666D01*
X143644047Y-45939523D01*
X143548809Y-46034761D01*
X143405952Y-46082380D01*
X143310714Y-46082380D01*
X144596428Y-45082380D02*
X144405952Y-45082380D01*
X144310714Y-45130000D01*
X144263095Y-45177619D01*
X144167857Y-45320476D01*
X144120238Y-45510952D01*
X144120238Y-45891904D01*
X144167857Y-45987142D01*
X144215476Y-46034761D01*
X144310714Y-46082380D01*
X144501190Y-46082380D01*
X144596428Y-46034761D01*
X144644047Y-45987142D01*
X144691666Y-45891904D01*
X144691666Y-45653809D01*
X144644047Y-45558571D01*
X144596428Y-45510952D01*
X144501190Y-45463333D01*
X144310714Y-45463333D01*
X144215476Y-45510952D01*
X144167857Y-45558571D01*
X144120238Y-45653809D01*
X129833333Y-51452380D02*
X129500000Y-50976190D01*
X129261904Y-51452380D02*
X129261904Y-50452380D01*
X129642857Y-50452380D01*
X129738095Y-50500000D01*
X129785714Y-50547619D01*
X129833333Y-50642857D01*
X129833333Y-50785714D01*
X129785714Y-50880952D01*
X129738095Y-50928571D01*
X129642857Y-50976190D01*
X129261904Y-50976190D01*
X130214285Y-50547619D02*
X130261904Y-50500000D01*
X130357142Y-50452380D01*
X130595238Y-50452380D01*
X130690476Y-50500000D01*
X130738095Y-50547619D01*
X130785714Y-50642857D01*
X130785714Y-50738095D01*
X130738095Y-50880952D01*
X130166666Y-51452380D01*
X130785714Y-51452380D01*
X122833333Y-59452380D02*
X122500000Y-58976190D01*
X122261904Y-59452380D02*
X122261904Y-58452380D01*
X122642857Y-58452380D01*
X122738095Y-58500000D01*
X122785714Y-58547619D01*
X122833333Y-58642857D01*
X122833333Y-58785714D01*
X122785714Y-58880952D01*
X122738095Y-58928571D01*
X122642857Y-58976190D01*
X122261904Y-58976190D01*
X123738095Y-58452380D02*
X123261904Y-58452380D01*
X123214285Y-58928571D01*
X123261904Y-58880952D01*
X123357142Y-58833333D01*
X123595238Y-58833333D01*
X123690476Y-58880952D01*
X123738095Y-58928571D01*
X123785714Y-59023809D01*
X123785714Y-59261904D01*
X123738095Y-59357142D01*
X123690476Y-59404761D01*
X123595238Y-59452380D01*
X123357142Y-59452380D01*
X123261904Y-59404761D01*
X123214285Y-59357142D01*
X125833333Y-59452380D02*
X125500000Y-58976190D01*
X125261904Y-59452380D02*
X125261904Y-58452380D01*
X125642857Y-58452380D01*
X125738095Y-58500000D01*
X125785714Y-58547619D01*
X125833333Y-58642857D01*
X125833333Y-58785714D01*
X125785714Y-58880952D01*
X125738095Y-58928571D01*
X125642857Y-58976190D01*
X125261904Y-58976190D01*
X126690476Y-58785714D02*
X126690476Y-59452380D01*
X126452380Y-58404761D02*
X126214285Y-59119047D01*
X126833333Y-59119047D01*
X105190476Y-50277380D02*
X105190476Y-50991666D01*
X105142857Y-51134523D01*
X105047619Y-51229761D01*
X104904761Y-51277380D01*
X104809523Y-51277380D01*
X106190476Y-51277380D02*
X105619047Y-51277380D01*
X105904761Y-51277380D02*
X105904761Y-50277380D01*
X105809523Y-50420238D01*
X105714285Y-50515476D01*
X105619047Y-50563095D01*
X106809523Y-50277380D02*
X106904761Y-50277380D01*
X107000000Y-50325000D01*
X107047619Y-50372619D01*
X107095238Y-50467857D01*
X107142857Y-50658333D01*
X107142857Y-50896428D01*
X107095238Y-51086904D01*
X107047619Y-51182142D01*
X107000000Y-51229761D01*
X106904761Y-51277380D01*
X106809523Y-51277380D01*
X106714285Y-51229761D01*
X106666666Y-51182142D01*
X106619047Y-51086904D01*
X106571428Y-50896428D01*
X106571428Y-50658333D01*
X106619047Y-50467857D01*
X106666666Y-50372619D01*
X106714285Y-50325000D01*
X106809523Y-50277380D01*
X135371666Y-87427380D02*
X135371666Y-88141666D01*
X135324047Y-88284523D01*
X135228809Y-88379761D01*
X135085952Y-88427380D01*
X134990714Y-88427380D01*
X135752619Y-87427380D02*
X136371666Y-87427380D01*
X136038333Y-87808333D01*
X136181190Y-87808333D01*
X136276428Y-87855952D01*
X136324047Y-87903571D01*
X136371666Y-87998809D01*
X136371666Y-88236904D01*
X136324047Y-88332142D01*
X136276428Y-88379761D01*
X136181190Y-88427380D01*
X135895476Y-88427380D01*
X135800238Y-88379761D01*
X135752619Y-88332142D01*
X92666666Y-78452380D02*
X92666666Y-79166666D01*
X92619047Y-79309523D01*
X92523809Y-79404761D01*
X92380952Y-79452380D01*
X92285714Y-79452380D01*
X93190476Y-79452380D02*
X93380952Y-79452380D01*
X93476190Y-79404761D01*
X93523809Y-79357142D01*
X93619047Y-79214285D01*
X93666666Y-79023809D01*
X93666666Y-78642857D01*
X93619047Y-78547619D01*
X93571428Y-78500000D01*
X93476190Y-78452380D01*
X93285714Y-78452380D01*
X93190476Y-78500000D01*
X93142857Y-78547619D01*
X93095238Y-78642857D01*
X93095238Y-78880952D01*
X93142857Y-78976190D01*
X93190476Y-79023809D01*
X93285714Y-79071428D01*
X93476190Y-79071428D01*
X93571428Y-79023809D01*
X93619047Y-78976190D01*
X93666666Y-78880952D01*
X102091258Y-51452380D02*
X102091258Y-52166666D01*
X102043639Y-52309523D01*
X101948401Y-52404761D01*
X101805544Y-52452380D01*
X101710306Y-52452380D01*
X102996020Y-51785714D02*
X102996020Y-52452380D01*
X102757925Y-51404761D02*
X102519830Y-52119047D01*
X103138877Y-52119047D01*
X122371666Y-87427380D02*
X122371666Y-88141666D01*
X122324047Y-88284523D01*
X122228809Y-88379761D01*
X122085952Y-88427380D01*
X121990714Y-88427380D01*
X122800238Y-87522619D02*
X122847857Y-87475000D01*
X122943095Y-87427380D01*
X123181190Y-87427380D01*
X123276428Y-87475000D01*
X123324047Y-87522619D01*
X123371666Y-87617857D01*
X123371666Y-87713095D01*
X123324047Y-87855952D01*
X122752619Y-88427380D01*
X123371666Y-88427380D01*
X92666666Y-51452380D02*
X92666666Y-52166666D01*
X92619047Y-52309523D01*
X92523809Y-52404761D01*
X92380952Y-52452380D01*
X92285714Y-52452380D01*
X93285714Y-51880952D02*
X93190476Y-51833333D01*
X93142857Y-51785714D01*
X93095238Y-51690476D01*
X93095238Y-51642857D01*
X93142857Y-51547619D01*
X93190476Y-51500000D01*
X93285714Y-51452380D01*
X93476190Y-51452380D01*
X93571428Y-51500000D01*
X93619047Y-51547619D01*
X93666666Y-51642857D01*
X93666666Y-51690476D01*
X93619047Y-51785714D01*
X93571428Y-51833333D01*
X93476190Y-51880952D01*
X93285714Y-51880952D01*
X93190476Y-51928571D01*
X93142857Y-51976190D01*
X93095238Y-52071428D01*
X93095238Y-52261904D01*
X93142857Y-52357142D01*
X93190476Y-52404761D01*
X93285714Y-52452380D01*
X93476190Y-52452380D01*
X93571428Y-52404761D01*
X93619047Y-52357142D01*
X93666666Y-52261904D01*
X93666666Y-52071428D01*
X93619047Y-51976190D01*
X93571428Y-51928571D01*
X93476190Y-51880952D01*
X121047619Y-63137324D02*
X121619047Y-63137324D01*
X121333333Y-64137324D02*
X121333333Y-63137324D01*
X122333333Y-64089705D02*
X122238095Y-64137324D01*
X122047619Y-64137324D01*
X121952380Y-64089705D01*
X121904761Y-63994467D01*
X121904761Y-63613515D01*
X121952380Y-63518277D01*
X122047619Y-63470658D01*
X122238095Y-63470658D01*
X122333333Y-63518277D01*
X122380952Y-63613515D01*
X122380952Y-63708753D01*
X121904761Y-63803991D01*
X123190476Y-64089705D02*
X123095238Y-64137324D01*
X122904761Y-64137324D01*
X122809523Y-64089705D01*
X122761904Y-63994467D01*
X122761904Y-63613515D01*
X122809523Y-63518277D01*
X122904761Y-63470658D01*
X123095238Y-63470658D01*
X123190476Y-63518277D01*
X123238095Y-63613515D01*
X123238095Y-63708753D01*
X122761904Y-63803991D01*
X123666666Y-63470658D02*
X123666666Y-64137324D01*
X123666666Y-63565896D02*
X123714285Y-63518277D01*
X123809523Y-63470658D01*
X123952380Y-63470658D01*
X124047619Y-63518277D01*
X124095238Y-63613515D01*
X124095238Y-64137324D01*
X124523809Y-64089705D02*
X124619047Y-64137324D01*
X124809523Y-64137324D01*
X124904761Y-64089705D01*
X124952380Y-63994467D01*
X124952380Y-63946848D01*
X124904761Y-63851610D01*
X124809523Y-63803991D01*
X124666666Y-63803991D01*
X124571428Y-63756372D01*
X124523809Y-63661134D01*
X124523809Y-63613515D01*
X124571428Y-63518277D01*
X124666666Y-63470658D01*
X124809523Y-63470658D01*
X124904761Y-63518277D01*
X125285714Y-63470658D02*
X125523809Y-64137324D01*
X125761904Y-63470658D02*
X125523809Y-64137324D01*
X125428571Y-64375420D01*
X125380952Y-64423039D01*
X125285714Y-64470658D01*
X125904761Y-64232563D02*
X126666666Y-64232563D01*
X127333333Y-63470658D02*
X127333333Y-64137324D01*
X127095238Y-63089705D02*
X126857142Y-63803991D01*
X127476190Y-63803991D01*
X127857142Y-64042086D02*
X127904761Y-64089705D01*
X127857142Y-64137324D01*
X127809523Y-64089705D01*
X127857142Y-64042086D01*
X127857142Y-64137324D01*
X128523809Y-63137324D02*
X128619047Y-63137324D01*
X128714285Y-63184944D01*
X128761904Y-63232563D01*
X128809523Y-63327801D01*
X128857142Y-63518277D01*
X128857142Y-63756372D01*
X128809523Y-63946848D01*
X128761904Y-64042086D01*
X128714285Y-64089705D01*
X128619047Y-64137324D01*
X128523809Y-64137324D01*
X128428571Y-64089705D01*
X128380952Y-64042086D01*
X128333333Y-63946848D01*
X128285714Y-63756372D01*
X128285714Y-63518277D01*
X128333333Y-63327801D01*
X128380952Y-63232563D01*
X128428571Y-63184944D01*
X128523809Y-63137324D01*
X125570666Y-76883333D02*
X124870666Y-76883333D01*
X125370666Y-76650000D01*
X124870666Y-76416666D01*
X125570666Y-76416666D01*
X125570666Y-76083333D02*
X124870666Y-76083333D01*
X125570666Y-75750000D02*
X124870666Y-75750000D01*
X125370666Y-75516666D01*
X124870666Y-75283333D01*
X125570666Y-75283333D01*
X124870666Y-75016666D02*
X125570666Y-74550000D01*
X124870666Y-74550000D02*
X125570666Y-75016666D01*
X125570666Y-73883333D02*
X125237333Y-74116666D01*
X125570666Y-74283333D02*
X124870666Y-74283333D01*
X124870666Y-74016666D01*
X124904000Y-73950000D01*
X124937333Y-73916666D01*
X125004000Y-73883333D01*
X125104000Y-73883333D01*
X125170666Y-73916666D01*
X125204000Y-73950000D01*
X125237333Y-74016666D01*
X125237333Y-74283333D01*
X124870666Y-73683333D02*
X124870666Y-73283333D01*
X125570666Y-73483333D02*
X124870666Y-73483333D01*
X125570666Y-72683333D02*
X125570666Y-73083333D01*
X125570666Y-72883333D02*
X124870666Y-72883333D01*
X124970666Y-72950000D01*
X125037333Y-73016666D01*
X125070666Y-73083333D01*
X124870666Y-72250000D02*
X124870666Y-72183333D01*
X124904000Y-72116666D01*
X124937333Y-72083333D01*
X125004000Y-72050000D01*
X125137333Y-72016666D01*
X125304000Y-72016666D01*
X125437333Y-72050000D01*
X125504000Y-72083333D01*
X125537333Y-72116666D01*
X125570666Y-72183333D01*
X125570666Y-72250000D01*
X125537333Y-72316666D01*
X125504000Y-72350000D01*
X125437333Y-72383333D01*
X125304000Y-72416666D01*
X125137333Y-72416666D01*
X125004000Y-72383333D01*
X124937333Y-72350000D01*
X124904000Y-72316666D01*
X124870666Y-72250000D01*
X124870666Y-71416666D02*
X124870666Y-71550000D01*
X124904000Y-71616666D01*
X124937333Y-71650000D01*
X125037333Y-71716666D01*
X125170666Y-71750000D01*
X125437333Y-71750000D01*
X125504000Y-71716666D01*
X125537333Y-71683333D01*
X125570666Y-71616666D01*
X125570666Y-71483333D01*
X125537333Y-71416666D01*
X125504000Y-71383333D01*
X125437333Y-71350000D01*
X125270666Y-71350000D01*
X125204000Y-71383333D01*
X125170666Y-71416666D01*
X125137333Y-71483333D01*
X125137333Y-71616666D01*
X125170666Y-71683333D01*
X125204000Y-71716666D01*
X125270666Y-71750000D01*
X124937333Y-71083333D02*
X124904000Y-71050000D01*
X124870666Y-70983333D01*
X124870666Y-70816666D01*
X124904000Y-70750000D01*
X124937333Y-70716666D01*
X125004000Y-70683333D01*
X125070666Y-70683333D01*
X125170666Y-70716666D01*
X125570666Y-71116666D01*
X125570666Y-70683333D01*
X127094666Y-75200000D02*
X126394666Y-75200000D01*
X126394666Y-75033333D01*
X126428000Y-74933333D01*
X126494666Y-74866666D01*
X126561333Y-74833333D01*
X126694666Y-74800000D01*
X126794666Y-74800000D01*
X126928000Y-74833333D01*
X126994666Y-74866666D01*
X127061333Y-74933333D01*
X127094666Y-75033333D01*
X127094666Y-75200000D01*
X126394666Y-74600000D02*
X127094666Y-74366666D01*
X126394666Y-74133333D01*
X127094666Y-73566666D02*
X127094666Y-73900000D01*
X126394666Y-73900000D01*
X126394666Y-73033333D02*
X126394666Y-73166666D01*
X126428000Y-73233333D01*
X126461333Y-73266666D01*
X126561333Y-73333333D01*
X126694666Y-73366666D01*
X126961333Y-73366666D01*
X127028000Y-73333333D01*
X127061333Y-73300000D01*
X127094666Y-73233333D01*
X127094666Y-73100000D01*
X127061333Y-73033333D01*
X127028000Y-73000000D01*
X126961333Y-72966666D01*
X126794666Y-72966666D01*
X126728000Y-73000000D01*
X126694666Y-73033333D01*
X126661333Y-73100000D01*
X126661333Y-73233333D01*
X126694666Y-73300000D01*
X126728000Y-73333333D01*
X126794666Y-73366666D01*
X126894666Y-72700000D02*
X126894666Y-72366666D01*
X127094666Y-72766666D02*
X126394666Y-72533333D01*
X127094666Y-72300000D01*
X129833333Y-54452380D02*
X129500000Y-53976190D01*
X129261904Y-54452380D02*
X129261904Y-53452380D01*
X129642857Y-53452380D01*
X129738095Y-53500000D01*
X129785714Y-53547619D01*
X129833333Y-53642857D01*
X129833333Y-53785714D01*
X129785714Y-53880952D01*
X129738095Y-53928571D01*
X129642857Y-53976190D01*
X129261904Y-53976190D01*
X130785714Y-54452380D02*
X130214285Y-54452380D01*
X130500000Y-54452380D02*
X130500000Y-53452380D01*
X130404761Y-53595238D01*
X130309523Y-53690476D01*
X130214285Y-53738095D01*
X117087023Y-91440836D02*
X116753690Y-90964646D01*
X116515595Y-91440836D02*
X116515595Y-90440836D01*
X116896547Y-90440836D01*
X116991785Y-90488456D01*
X117039404Y-90536075D01*
X117087023Y-90631313D01*
X117087023Y-90774170D01*
X117039404Y-90869408D01*
X116991785Y-90917027D01*
X116896547Y-90964646D01*
X116515595Y-90964646D01*
X117944166Y-91440836D02*
X117944166Y-90917027D01*
X117896547Y-90821789D01*
X117801309Y-90774170D01*
X117610833Y-90774170D01*
X117515595Y-90821789D01*
X117944166Y-91393217D02*
X117848928Y-91440836D01*
X117610833Y-91440836D01*
X117515595Y-91393217D01*
X117467976Y-91297979D01*
X117467976Y-91202741D01*
X117515595Y-91107503D01*
X117610833Y-91059884D01*
X117848928Y-91059884D01*
X117944166Y-91012265D01*
X118372738Y-91393217D02*
X118467976Y-91440836D01*
X118658452Y-91440836D01*
X118753690Y-91393217D01*
X118801309Y-91297979D01*
X118801309Y-91250360D01*
X118753690Y-91155122D01*
X118658452Y-91107503D01*
X118515595Y-91107503D01*
X118420357Y-91059884D01*
X118372738Y-90964646D01*
X118372738Y-90917027D01*
X118420357Y-90821789D01*
X118515595Y-90774170D01*
X118658452Y-90774170D01*
X118753690Y-90821789D01*
X119229880Y-90774170D02*
X119229880Y-91774170D01*
X119229880Y-90821789D02*
X119325119Y-90774170D01*
X119515595Y-90774170D01*
X119610833Y-90821789D01*
X119658452Y-90869408D01*
X119706071Y-90964646D01*
X119706071Y-91250360D01*
X119658452Y-91345598D01*
X119610833Y-91393217D01*
X119515595Y-91440836D01*
X119325119Y-91440836D01*
X119229880Y-91393217D01*
X120134642Y-91440836D02*
X120134642Y-90440836D01*
X120134642Y-90821789D02*
X120229880Y-90774170D01*
X120420357Y-90774170D01*
X120515595Y-90821789D01*
X120563214Y-90869408D01*
X120610833Y-90964646D01*
X120610833Y-91250360D01*
X120563214Y-91345598D01*
X120515595Y-91393217D01*
X120420357Y-91440836D01*
X120229880Y-91440836D01*
X120134642Y-91393217D01*
X121420357Y-91393217D02*
X121325119Y-91440836D01*
X121134642Y-91440836D01*
X121039404Y-91393217D01*
X120991785Y-91297979D01*
X120991785Y-90917027D01*
X121039404Y-90821789D01*
X121134642Y-90774170D01*
X121325119Y-90774170D01*
X121420357Y-90821789D01*
X121467976Y-90917027D01*
X121467976Y-91012265D01*
X120991785Y-91107503D01*
X121896547Y-91440836D02*
X121896547Y-90774170D01*
X121896547Y-90964646D02*
X121944166Y-90869408D01*
X121991785Y-90821789D01*
X122087023Y-90774170D01*
X122182261Y-90774170D01*
X122515595Y-91440836D02*
X122515595Y-90774170D01*
X122515595Y-90964646D02*
X122563214Y-90869408D01*
X122610833Y-90821789D01*
X122706071Y-90774170D01*
X122801309Y-90774170D01*
X123039404Y-90774170D02*
X123277500Y-91440836D01*
X123515595Y-90774170D02*
X123277500Y-91440836D01*
X123182261Y-91678932D01*
X123134642Y-91726551D01*
X123039404Y-91774170D01*
X123896547Y-91440836D02*
X123896547Y-90440836D01*
X124277500Y-90440836D01*
X124372738Y-90488456D01*
X124420357Y-90536075D01*
X124467976Y-90631313D01*
X124467976Y-90774170D01*
X124420357Y-90869408D01*
X124372738Y-90917027D01*
X124277500Y-90964646D01*
X123896547Y-90964646D01*
X124896547Y-91440836D02*
X124896547Y-90774170D01*
X124896547Y-90440836D02*
X124848928Y-90488456D01*
X124896547Y-90536075D01*
X124944166Y-90488456D01*
X124896547Y-90440836D01*
X124896547Y-90536075D01*
X125134642Y-91536075D02*
X125896547Y-91536075D01*
X126706071Y-91345598D02*
X126658452Y-91393217D01*
X126515595Y-91440836D01*
X126420357Y-91440836D01*
X126277500Y-91393217D01*
X126182261Y-91297979D01*
X126134642Y-91202741D01*
X126087023Y-91012265D01*
X126087023Y-90869408D01*
X126134642Y-90678932D01*
X126182261Y-90583694D01*
X126277500Y-90488456D01*
X126420357Y-90440836D01*
X126515595Y-90440836D01*
X126658452Y-90488456D01*
X126706071Y-90536075D01*
X127277500Y-91440836D02*
X127182261Y-91393217D01*
X127134642Y-91345598D01*
X127087023Y-91250360D01*
X127087023Y-90964646D01*
X127134642Y-90869408D01*
X127182261Y-90821789D01*
X127277500Y-90774170D01*
X127420357Y-90774170D01*
X127515595Y-90821789D01*
X127563214Y-90869408D01*
X127610833Y-90964646D01*
X127610833Y-91250360D01*
X127563214Y-91345598D01*
X127515595Y-91393217D01*
X127420357Y-91440836D01*
X127277500Y-91440836D01*
X128039404Y-90774170D02*
X128039404Y-91440836D01*
X128039404Y-90869408D02*
X128087023Y-90821789D01*
X128182261Y-90774170D01*
X128325119Y-90774170D01*
X128420357Y-90821789D01*
X128467976Y-90917027D01*
X128467976Y-91440836D01*
X128944166Y-90774170D02*
X128944166Y-91440836D01*
X128944166Y-90869408D02*
X128991785Y-90821789D01*
X129087023Y-90774170D01*
X129229880Y-90774170D01*
X129325119Y-90821789D01*
X129372738Y-90917027D01*
X129372738Y-91440836D01*
X130229880Y-91393217D02*
X130134642Y-91440836D01*
X129944166Y-91440836D01*
X129848928Y-91393217D01*
X129801309Y-91297979D01*
X129801309Y-90917027D01*
X129848928Y-90821789D01*
X129944166Y-90774170D01*
X130134642Y-90774170D01*
X130229880Y-90821789D01*
X130277500Y-90917027D01*
X130277500Y-91012265D01*
X129801309Y-91107503D01*
X131134642Y-91393217D02*
X131039404Y-91440836D01*
X130848928Y-91440836D01*
X130753690Y-91393217D01*
X130706071Y-91345598D01*
X130658452Y-91250360D01*
X130658452Y-90964646D01*
X130706071Y-90869408D01*
X130753690Y-90821789D01*
X130848928Y-90774170D01*
X131039404Y-90774170D01*
X131134642Y-90821789D01*
X131420357Y-90774170D02*
X131801309Y-90774170D01*
X131563214Y-90440836D02*
X131563214Y-91297979D01*
X131610833Y-91393217D01*
X131706071Y-91440836D01*
X131801309Y-91440836D01*
X132277500Y-91440836D02*
X132182261Y-91393217D01*
X132134642Y-91345598D01*
X132087023Y-91250360D01*
X132087023Y-90964646D01*
X132134642Y-90869408D01*
X132182261Y-90821789D01*
X132277500Y-90774170D01*
X132420357Y-90774170D01*
X132515595Y-90821789D01*
X132563214Y-90869408D01*
X132610833Y-90964646D01*
X132610833Y-91250360D01*
X132563214Y-91345598D01*
X132515595Y-91393217D01*
X132420357Y-91440836D01*
X132277500Y-91440836D01*
X133039404Y-91440836D02*
X133039404Y-90774170D01*
X133039404Y-90964646D02*
X133087023Y-90869408D01*
X133134642Y-90821789D01*
X133229880Y-90774170D01*
X133325119Y-90774170D01*
D11*
X113745000Y-89305000D02*
X118885000Y-89305000D01*
X118885000Y-89305000D02*
X118885000Y-86645000D01*
X111145000Y-86645000D02*
X112475000Y-86645000D01*
X113745000Y-89305000D02*
X113745000Y-86645000D01*
X113745000Y-86645000D02*
X118885000Y-86645000D01*
X111145000Y-87975000D02*
X111145000Y-86645000D01*
G36*
X95709058Y-71356183D02*
G01*
X95921959Y-70987796D01*
X96131468Y-70625370D01*
X96336306Y-70271114D01*
X96535200Y-69927238D01*
X96726872Y-69595949D01*
X96910046Y-69279458D01*
X97083448Y-68979973D01*
X97245799Y-68699704D01*
X97395826Y-68440858D01*
X97532251Y-68205645D01*
X97653799Y-67996275D01*
X97759194Y-67814956D01*
X97847159Y-67663896D01*
X97916419Y-67545306D01*
X97965697Y-67461394D01*
X97993718Y-67414370D01*
X98000000Y-67404583D01*
X98012416Y-67424536D01*
X98046980Y-67482920D01*
X98102416Y-67577524D01*
X98177450Y-67706141D01*
X98270803Y-67866560D01*
X98381202Y-68056573D01*
X98507369Y-68273972D01*
X98648029Y-68516546D01*
X98801906Y-68782088D01*
X98967723Y-69068387D01*
X99144205Y-69373236D01*
X99330075Y-69694424D01*
X99524059Y-70029744D01*
X99724878Y-70376985D01*
X99931259Y-70733940D01*
X100141925Y-71098398D01*
X100355599Y-71468151D01*
X100571006Y-71840991D01*
X100786869Y-72214707D01*
X101001913Y-72587092D01*
X101214863Y-72955935D01*
X101424440Y-73319028D01*
X101629371Y-73674163D01*
X101828378Y-74019129D01*
X102020186Y-74351718D01*
X102203519Y-74669721D01*
X102377101Y-74970929D01*
X102539655Y-75253133D01*
X102689907Y-75514124D01*
X102826579Y-75751694D01*
X102948396Y-75963632D01*
X103054081Y-76147729D01*
X103142360Y-76301778D01*
X103211955Y-76423569D01*
X103261592Y-76510893D01*
X103289993Y-76561541D01*
X103296553Y-76573983D01*
X103274163Y-76576773D01*
X103205349Y-76579392D01*
X103090592Y-76581836D01*
X102930377Y-76584105D01*
X102725183Y-76586195D01*
X102475495Y-76588105D01*
X102181794Y-76589832D01*
X101844563Y-76591376D01*
X101464283Y-76592732D01*
X101041438Y-76593900D01*
X100576508Y-76594878D01*
X100069978Y-76595662D01*
X99522328Y-76596252D01*
X98934041Y-76596645D01*
X98305600Y-76596839D01*
X98000000Y-76596861D01*
X97350197Y-76596760D01*
X96740891Y-76596458D01*
X96172529Y-76595958D01*
X95645553Y-76595261D01*
X95160408Y-76594369D01*
X94717538Y-76593285D01*
X94317387Y-76592009D01*
X93960399Y-76590544D01*
X93647018Y-76588892D01*
X93377688Y-76587055D01*
X93152853Y-76585034D01*
X92972958Y-76582832D01*
X92838446Y-76580451D01*
X92749762Y-76577892D01*
X92707349Y-76575158D01*
X92703448Y-76573929D01*
X92716258Y-76550206D01*
X92751195Y-76488265D01*
X92806982Y-76390314D01*
X92882344Y-76258562D01*
X92976005Y-76095218D01*
X93086688Y-75902492D01*
X93213117Y-75682593D01*
X93354017Y-75437728D01*
X93508112Y-75170108D01*
X93674125Y-74881941D01*
X93850781Y-74575437D01*
X94036803Y-74252803D01*
X94230916Y-73916250D01*
X94431843Y-73567987D01*
X94638309Y-73210221D01*
X94849038Y-72845163D01*
X95062753Y-72475021D01*
X95278179Y-72102004D01*
X95330328Y-72011727D01*
X95352500Y-72011727D01*
X96669410Y-74292567D01*
X96843202Y-74593364D01*
X97010521Y-74882560D01*
X97169869Y-75157587D01*
X97319750Y-75415878D01*
X97458663Y-75654863D01*
X97585112Y-75871975D01*
X97697598Y-76064644D01*
X97794624Y-76230304D01*
X97874690Y-76366386D01*
X97936300Y-76470321D01*
X97977955Y-76539541D01*
X97998156Y-76571479D01*
X97999827Y-76573407D01*
X98013095Y-76553513D01*
X98048281Y-76495543D01*
X98103887Y-76402065D01*
X98178413Y-76275647D01*
X98270363Y-76118858D01*
X98378237Y-75934265D01*
X98500538Y-75724438D01*
X98635767Y-75491943D01*
X98782427Y-75239349D01*
X98939020Y-74969225D01*
X99104046Y-74684138D01*
X99276009Y-74386657D01*
X99330350Y-74292567D01*
X100647366Y-72011727D01*
X99323683Y-72005670D01*
X99018558Y-72004540D01*
X98678713Y-72003748D01*
X98316332Y-72003293D01*
X97943602Y-72003175D01*
X97572707Y-72003395D01*
X97215832Y-72003952D01*
X96885164Y-72004846D01*
X96676250Y-72005670D01*
X95352500Y-72011727D01*
X95330328Y-72011727D01*
X95494039Y-71728322D01*
X95709058Y-71356183D01*
G37*
X103865155Y-79943009D02*
X103865155Y-81273009D01*
X101205155Y-82543009D02*
X103865155Y-82543009D01*
X101205155Y-90223009D02*
X103865155Y-90223009D01*
X101205155Y-82543009D02*
X101205155Y-90223009D01*
X103865155Y-82543009D02*
X103865155Y-90223009D01*
X102535155Y-79943009D02*
X103865155Y-79943009D01*
X132730000Y-46630000D02*
X139270000Y-46630000D01*
X132730000Y-49040000D02*
X132730000Y-49370000D01*
X132730000Y-46960000D02*
X132730000Y-46630000D01*
X139270000Y-49370000D02*
X139270000Y-49040000D01*
X132730000Y-49370000D02*
X139270000Y-49370000D01*
X139270000Y-46630000D02*
X139270000Y-46960000D01*
X118630000Y-49730000D02*
X118960000Y-49730000D01*
X118960000Y-56270000D02*
X118630000Y-56270000D01*
X121040000Y-56270000D02*
X121370000Y-56270000D01*
X118630000Y-56270000D02*
X118630000Y-49730000D01*
X121370000Y-56270000D02*
X121370000Y-49730000D01*
X121370000Y-49730000D02*
X121040000Y-49730000D01*
X118870000Y-45000000D02*
X118870000Y-43670000D01*
X118870000Y-43670000D02*
X120200000Y-43670000D01*
X129150000Y-46330000D02*
X129150000Y-43670000D01*
X121470000Y-43670000D02*
X129150000Y-43670000D01*
X121470000Y-46330000D02*
X121470000Y-43670000D01*
X121470000Y-46330000D02*
X129150000Y-46330000D01*
X145355000Y-49670000D02*
X145355000Y-57350000D01*
X145355000Y-47070000D02*
X145355000Y-48400000D01*
X142695000Y-57350000D02*
X145355000Y-57350000D01*
X144025000Y-47070000D02*
X145355000Y-47070000D01*
X142695000Y-49670000D02*
X145355000Y-49670000D01*
X142695000Y-49670000D02*
X142695000Y-57350000D01*
X132730000Y-52370000D02*
X139270000Y-52370000D01*
X132730000Y-49630000D02*
X139270000Y-49630000D01*
X139270000Y-49630000D02*
X139270000Y-49960000D01*
X132730000Y-49960000D02*
X132730000Y-49630000D01*
X139270000Y-52370000D02*
X139270000Y-52040000D01*
X132730000Y-52040000D02*
X132730000Y-52370000D01*
X121960000Y-56270000D02*
X121630000Y-56270000D01*
X124370000Y-56270000D02*
X124370000Y-49730000D01*
X121630000Y-56270000D02*
X121630000Y-49730000D01*
X121630000Y-49730000D02*
X121960000Y-49730000D01*
X124370000Y-49730000D02*
X124040000Y-49730000D01*
X124040000Y-56270000D02*
X124370000Y-56270000D01*
X127040000Y-49730000D02*
X127370000Y-49730000D01*
X124630000Y-49730000D02*
X124630000Y-56270000D01*
X127370000Y-49730000D02*
X127370000Y-56270000D01*
X127370000Y-56270000D02*
X127040000Y-56270000D01*
X124960000Y-49730000D02*
X124630000Y-49730000D01*
X124630000Y-56270000D02*
X124960000Y-56270000D01*
X97405000Y-43025000D02*
X97405000Y-40295000D01*
X106595000Y-46625000D02*
X106595000Y-45725000D01*
X106595000Y-43025000D02*
X106595000Y-40295000D01*
X97405000Y-46625000D02*
X97405000Y-45725000D01*
X106595000Y-40295000D02*
X97405000Y-40295000D01*
X106475000Y-49705000D02*
X97525000Y-49705000D01*
X144885000Y-89305000D02*
X144885000Y-86645000D01*
X139745000Y-89305000D02*
X139745000Y-86645000D01*
X139745000Y-89305000D02*
X144885000Y-89305000D01*
X139745000Y-86645000D02*
X144885000Y-86645000D01*
X137145000Y-87975000D02*
X137145000Y-86645000D01*
X137145000Y-86645000D02*
X138475000Y-86645000D01*
G36*
X145108915Y-60105876D02*
G01*
X145190408Y-60113352D01*
X145232983Y-60125576D01*
X145236284Y-60128183D01*
X145246901Y-60156211D01*
X145254454Y-60217531D01*
X145259113Y-60314617D01*
X145261047Y-60449942D01*
X145261125Y-60489720D01*
X145260716Y-60616222D01*
X145259063Y-60707517D01*
X145255527Y-60769797D01*
X145249469Y-60809252D01*
X145240252Y-60832073D01*
X145227236Y-60844452D01*
X145224364Y-60846090D01*
X145174699Y-60859172D01*
X145140608Y-60836003D01*
X145121389Y-60775583D01*
X145116219Y-60692288D01*
X145116219Y-60558761D01*
X144227972Y-60558761D01*
X144215730Y-60838223D01*
X144091524Y-60838223D01*
X144085649Y-60615689D01*
X144079773Y-60393154D01*
X145116219Y-60393154D01*
X145116219Y-60249801D01*
X144924972Y-60243849D01*
X144833574Y-60239994D01*
X144775733Y-60234186D01*
X144743604Y-60224719D01*
X144729345Y-60209885D01*
X144726604Y-60200676D01*
X144725506Y-60161113D01*
X144743420Y-60133556D01*
X144785632Y-60116056D01*
X144857428Y-60106661D01*
X144964094Y-60103422D01*
X144990408Y-60103342D01*
X145108915Y-60105876D01*
G37*
G36*
X144333266Y-62320395D02*
G01*
X144384380Y-62327878D01*
X144444795Y-62342748D01*
X144521063Y-62366970D01*
X144619735Y-62402506D01*
X144747364Y-62451321D01*
X144808959Y-62475384D01*
X144930629Y-62523630D01*
X145039944Y-62567972D01*
X145130728Y-62605824D01*
X145196800Y-62634598D01*
X145231984Y-62651708D01*
X145235249Y-62653876D01*
X145259236Y-62696260D01*
X145251509Y-62743402D01*
X145223213Y-62771890D01*
X145192641Y-62785574D01*
X145130187Y-62811546D01*
X145042555Y-62847089D01*
X144936450Y-62889483D01*
X144818575Y-62936011D01*
X144812932Y-62938225D01*
X144681272Y-62989433D01*
X144580494Y-63027090D01*
X144503135Y-63053258D01*
X144441729Y-63069999D01*
X144388814Y-63079372D01*
X144336927Y-63083441D01*
X144284105Y-63084271D01*
X144184472Y-63079800D01*
X144120869Y-63064904D01*
X144088741Y-63037361D01*
X144083536Y-62994945D01*
X144084838Y-62986936D01*
X144095101Y-62967473D01*
X144122446Y-62954383D01*
X144175081Y-62945354D01*
X144257330Y-62938339D01*
X144343865Y-62929277D01*
X144427170Y-62912604D01*
X144519536Y-62885060D01*
X144633249Y-62843382D01*
X144671149Y-62828513D01*
X144765793Y-62790300D01*
X144846417Y-62756424D01*
X144905189Y-62730271D01*
X144934277Y-62715227D01*
X144935524Y-62714210D01*
X144923138Y-62701601D01*
X144878290Y-62677628D01*
X144807343Y-62645296D01*
X144716665Y-62607611D01*
X144674850Y-62591151D01*
X144555928Y-62546256D01*
X144465444Y-62515560D01*
X144393942Y-62496593D01*
X144331962Y-62486883D01*
X144270046Y-62483959D01*
X144264534Y-62483945D01*
X144172194Y-62478835D01*
X144114671Y-62461778D01*
X144086449Y-62430180D01*
X144081174Y-62397729D01*
X144098627Y-62357030D01*
X144151922Y-62331046D01*
X144242467Y-62319229D01*
X144284900Y-62318337D01*
X144333266Y-62320395D01*
G37*
G36*
X148539128Y-69056203D02*
G01*
X148595237Y-69084304D01*
X148675768Y-69127253D01*
X148775155Y-69181871D01*
X148887828Y-69244976D01*
X149008221Y-69313390D01*
X149130767Y-69383932D01*
X149249897Y-69453423D01*
X149360044Y-69518683D01*
X149455640Y-69576532D01*
X149531119Y-69623789D01*
X149572087Y-69651004D01*
X149615030Y-69695387D01*
X149629578Y-69742720D01*
X149615214Y-69777560D01*
X149596957Y-69787606D01*
X149568767Y-69787631D01*
X149527048Y-69775936D01*
X149468202Y-69750822D01*
X149388631Y-69710591D01*
X149284737Y-69653545D01*
X149152924Y-69577984D01*
X148989593Y-69482210D01*
X148989087Y-69481911D01*
X148855846Y-69403099D01*
X148734378Y-69330982D01*
X148629209Y-69268269D01*
X148544863Y-69217666D01*
X148485864Y-69181882D01*
X148456737Y-69163624D01*
X148454540Y-69162011D01*
X148451196Y-69136400D01*
X148457322Y-69098845D01*
X148482893Y-69055189D01*
X148513009Y-69046129D01*
X148539128Y-69056203D01*
G37*
G36*
X147226216Y-73175349D02*
G01*
X147227710Y-73186308D01*
X147220136Y-73203347D01*
X147213910Y-73200109D01*
X147211432Y-73175542D01*
X147213910Y-73172507D01*
X147226216Y-73175349D01*
G37*
G36*
X147331215Y-81452447D02*
G01*
X147331215Y-84956997D01*
X147403668Y-85027221D01*
X147456295Y-85090594D01*
X147475814Y-85149892D01*
X147476248Y-85160662D01*
X147483987Y-85220979D01*
X147509834Y-85284102D01*
X147558107Y-85357861D01*
X147633127Y-85450084D01*
X147640787Y-85458923D01*
X147690621Y-85518576D01*
X147727528Y-85567249D01*
X147744745Y-85595914D01*
X147745233Y-85598342D01*
X147732061Y-85620690D01*
X147696413Y-85666168D01*
X147644088Y-85727662D01*
X147594633Y-85783044D01*
X147529088Y-85857839D01*
X147471972Y-85928174D01*
X147430750Y-85984571D01*
X147415427Y-86010513D01*
X147396289Y-86052964D01*
X147364798Y-86123792D01*
X147325186Y-86213442D01*
X147281686Y-86312359D01*
X147277884Y-86321027D01*
X147230713Y-86426610D01*
X147192884Y-86502157D01*
X147157696Y-86555798D01*
X147118445Y-86595663D01*
X147068432Y-86629883D01*
X147000952Y-86666587D01*
X146987147Y-86673718D01*
X146957296Y-86670309D01*
X146909448Y-86647660D01*
X146888136Y-86634228D01*
X146837990Y-86601318D01*
X146802032Y-86579719D01*
X146801846Y-86579607D01*
X146794662Y-86576111D01*
X146779449Y-86555209D01*
X146753443Y-86504772D01*
X146721092Y-86433758D01*
X146703987Y-86393480D01*
X146636356Y-86234421D01*
X146579413Y-86109846D01*
X146530655Y-86014994D01*
X146487581Y-85945104D01*
X146447688Y-85895416D01*
X146436224Y-85883979D01*
X146388894Y-85833281D01*
X146331862Y-85763713D01*
X146281806Y-85696353D01*
X146194989Y-85572526D01*
X146328383Y-85412718D01*
X146391810Y-85334296D01*
X146431792Y-85277164D01*
X146453290Y-85232489D01*
X146461262Y-85191439D01*
X146461777Y-85175178D01*
X146469016Y-85117594D01*
X146496438Y-85068566D01*
X146536475Y-85026106D01*
X146611173Y-84954768D01*
X146586911Y-81424816D01*
X146515303Y-81361943D01*
X146470166Y-81314122D01*
X146441418Y-81268290D01*
X146437210Y-81254379D01*
X146417853Y-81218743D01*
X146408634Y-81213189D01*
X146366809Y-81187991D01*
X146334319Y-81175287D01*
X146266329Y-81143661D01*
X146186245Y-81095924D01*
X146122134Y-81050463D01*
X146006357Y-80960040D01*
X146006357Y-80679673D01*
X146123980Y-80551728D01*
X146174775Y-80493114D01*
X146209117Y-80446788D01*
X146221826Y-80420055D01*
X146219830Y-80416526D01*
X146176451Y-80418986D01*
X146104330Y-80443140D01*
X146008574Y-80486843D01*
X145894289Y-80547950D01*
X145860323Y-80567502D01*
X145775851Y-80621121D01*
X145689728Y-80685432D01*
X145594925Y-80766283D01*
X145484415Y-80869518D01*
X145411206Y-80941111D01*
X145136920Y-81212610D01*
X145136920Y-80744795D01*
X144986838Y-80621590D01*
X144786430Y-80441911D01*
X144584943Y-80232951D01*
X144391930Y-80005439D01*
X144216946Y-79770109D01*
X144179343Y-79714634D01*
X144142198Y-79654965D01*
X144094740Y-79573141D01*
X144040543Y-79475951D01*
X143983178Y-79370189D01*
X143926219Y-79262645D01*
X143873238Y-79160111D01*
X143827809Y-79069379D01*
X143793503Y-78997239D01*
X143773893Y-78950484D01*
X143770660Y-78937749D01*
X143790691Y-78927237D01*
X143848856Y-78922522D01*
X143942267Y-78923819D01*
X143951793Y-78924216D01*
X144045072Y-78929881D01*
X144111121Y-78939621D01*
X144164110Y-78957116D01*
X144218209Y-78986046D01*
X144238720Y-78998728D01*
X144300170Y-79034420D01*
X144353092Y-79054554D01*
X144414260Y-79063456D01*
X144497481Y-79065451D01*
X144582518Y-79067551D01*
X144642032Y-79076384D01*
X144691811Y-79095928D01*
X144743603Y-79127465D01*
X144807169Y-79164532D01*
X144866524Y-79183250D01*
X144941862Y-79189288D01*
X144964528Y-79189479D01*
X145053693Y-79196154D01*
X145128648Y-79219161D01*
X145194751Y-79263180D01*
X145257361Y-79332894D01*
X145321838Y-79432980D01*
X145390028Y-79561113D01*
X145436324Y-79651946D01*
X145477199Y-79729616D01*
X145508504Y-79786411D01*
X145526088Y-79814618D01*
X145526988Y-79815627D01*
X145549206Y-79810452D01*
X145592158Y-79778343D01*
X145649846Y-79723986D01*
X145667196Y-79706076D01*
X145786325Y-79590938D01*
X145903760Y-79501463D01*
X146035961Y-79426146D01*
X146129978Y-79382634D01*
X146207565Y-79347675D01*
X146255375Y-79320812D01*
X146282055Y-79294724D01*
X146296250Y-79262087D01*
X146302289Y-79236706D01*
X146308072Y-79189862D01*
X146313498Y-79110479D01*
X146318142Y-79007422D01*
X146321577Y-78889553D01*
X146322990Y-78806601D01*
X146324392Y-78678482D01*
X146324579Y-78585855D01*
X146322854Y-78522815D01*
X146318517Y-78483454D01*
X146310873Y-78461867D01*
X146299223Y-78452148D01*
X146282870Y-78448390D01*
X146280644Y-78448071D01*
X146255414Y-78440929D01*
X146241409Y-78422035D01*
X146235377Y-78381591D01*
X146234067Y-78309795D01*
X146234067Y-78307691D01*
X146236911Y-78228134D01*
X146246507Y-78182161D01*
X146264454Y-78162274D01*
X146265118Y-78162009D01*
X146275205Y-78152876D01*
X146282887Y-78131004D01*
X146288465Y-78091577D01*
X146292240Y-78029776D01*
X146294513Y-77940785D01*
X146295583Y-77819785D01*
X146295761Y-77671013D01*
X146295353Y-77191932D01*
X146078810Y-76933170D01*
X145862268Y-76674409D01*
X145862201Y-76633007D01*
X145965772Y-76633007D01*
X146182095Y-76891769D01*
X146398417Y-77150530D01*
X146404599Y-77657702D01*
X146405866Y-77736370D01*
X146407223Y-77775288D01*
X146408634Y-77776108D01*
X146410060Y-77740481D01*
X146411461Y-77670060D01*
X146412801Y-77566495D01*
X146414041Y-77431438D01*
X146415143Y-77266542D01*
X146415578Y-77184025D01*
X146416644Y-76957066D01*
X146417333Y-76767784D01*
X146417510Y-76612453D01*
X146417040Y-76487349D01*
X146415788Y-76388748D01*
X146413617Y-76312924D01*
X146410393Y-76256152D01*
X146405980Y-76214709D01*
X146400242Y-76184868D01*
X146393043Y-76162906D01*
X146384250Y-76145098D01*
X146377364Y-76133582D01*
X146343345Y-76084642D01*
X146313743Y-76051838D01*
X146309013Y-76048335D01*
X146282519Y-76024062D01*
X146241862Y-75978657D01*
X146213093Y-75943570D01*
X146142514Y-75854459D01*
X146054774Y-76026374D01*
X146015541Y-76104797D01*
X145990163Y-76164147D01*
X145975589Y-76217863D01*
X145968770Y-76279387D01*
X145966652Y-76362158D01*
X145966404Y-76415648D01*
X145965772Y-76633007D01*
X145862201Y-76633007D01*
X145861859Y-76420410D01*
X145861451Y-76166410D01*
X145952069Y-75985691D01*
X145996477Y-75888453D01*
X146031932Y-75794325D01*
X146053194Y-75717649D01*
X146055865Y-75701467D01*
X146057050Y-75672873D01*
X146058519Y-75604445D01*
X146060256Y-75497749D01*
X146062247Y-75354352D01*
X146064082Y-75207532D01*
X146171964Y-75207532D01*
X146172403Y-75357230D01*
X146173948Y-75470691D01*
X146176947Y-75553072D01*
X146181746Y-75609530D01*
X146188689Y-75645223D01*
X146198124Y-75665308D01*
X146203016Y-75670416D01*
X146229115Y-75701694D01*
X146234067Y-75717099D01*
X146248998Y-75745075D01*
X146283199Y-75780283D01*
X146320780Y-75808092D01*
X146340739Y-75815322D01*
X146356423Y-75832077D01*
X146358272Y-75845550D01*
X146372064Y-75874138D01*
X146408445Y-75921543D01*
X146459924Y-75978136D01*
X146466952Y-75985281D01*
X146575632Y-76094784D01*
X146585982Y-77400481D01*
X146596333Y-78706179D01*
X146653299Y-78792232D01*
X146701369Y-78848720D01*
X146754289Y-78886680D01*
X146802032Y-78900559D01*
X146830182Y-78890180D01*
X146832955Y-78867420D01*
X146835893Y-78806883D01*
X146838925Y-78712195D01*
X146841979Y-78586982D01*
X146844983Y-78434868D01*
X146847867Y-78259478D01*
X146850558Y-78064437D01*
X146852984Y-77853371D01*
X146855076Y-77629904D01*
X146855094Y-77627685D01*
X146865444Y-76379738D01*
X146979299Y-76251552D01*
X147043202Y-76179850D01*
X147106178Y-76109590D01*
X147155728Y-76054713D01*
X147160201Y-76049797D01*
X147197108Y-76003317D01*
X147215662Y-75967737D01*
X147215590Y-75957365D01*
X147218036Y-75943413D01*
X147224741Y-75944190D01*
X147248662Y-75933074D01*
X147289683Y-75898444D01*
X147329784Y-75857552D01*
X147414018Y-75765227D01*
X147414018Y-74868073D01*
X147329087Y-74780557D01*
X147272942Y-74719244D01*
X147221910Y-74657804D01*
X147199706Y-74627810D01*
X147162891Y-74576288D01*
X147121641Y-74524824D01*
X147067942Y-74463986D01*
X146993780Y-74384340D01*
X146984475Y-74374497D01*
X146938211Y-74322894D01*
X146906343Y-74282157D01*
X146896496Y-74263479D01*
X146880461Y-74242296D01*
X146840377Y-74211225D01*
X146823781Y-74200490D01*
X146781662Y-74169331D01*
X146771775Y-74162017D01*
X146734562Y-74123337D01*
X146729774Y-74115766D01*
X146724282Y-74084404D01*
X146719477Y-74012973D01*
X146715389Y-73902800D01*
X146712048Y-73755214D01*
X146709483Y-73571540D01*
X146707724Y-73353107D01*
X146706801Y-73101243D01*
X146706784Y-73091849D01*
X146706194Y-72857510D01*
X146705237Y-72661331D01*
X146703817Y-72500072D01*
X146701837Y-72370492D01*
X146699200Y-72269351D01*
X146695811Y-72193408D01*
X146691572Y-72139421D01*
X146686386Y-72104152D01*
X146680157Y-72084359D01*
X146676585Y-72079216D01*
X146652471Y-72044014D01*
X146648085Y-72027058D01*
X146634706Y-71994254D01*
X146617034Y-71972348D01*
X146591012Y-71920866D01*
X146586200Y-71852192D01*
X146588029Y-71844055D01*
X146710029Y-71844055D01*
X146711633Y-71888205D01*
X146738080Y-71922010D01*
X146781662Y-71935465D01*
X146833303Y-71919430D01*
X146858207Y-71897243D01*
X146855298Y-71885670D01*
X146837947Y-71861984D01*
X146834393Y-71838375D01*
X146818738Y-71797830D01*
X146781870Y-71783379D01*
X146740975Y-71799567D01*
X146710029Y-71844055D01*
X146588029Y-71844055D01*
X146601522Y-71784022D01*
X146631288Y-71738052D01*
X146668808Y-71707843D01*
X146693390Y-71695844D01*
X146708308Y-71679022D01*
X146710188Y-71664792D01*
X146728703Y-71640140D01*
X146772290Y-71633741D01*
X146821594Y-71642999D01*
X146834393Y-71664792D01*
X146851377Y-71691378D01*
X146870620Y-71696502D01*
X146932038Y-71716299D01*
X146974653Y-71770552D01*
X146994335Y-71846225D01*
X146996320Y-71913553D01*
X146981053Y-71957410D01*
X146966632Y-71974666D01*
X146946035Y-71996043D01*
X146928877Y-72017854D01*
X146914838Y-72043888D01*
X146903599Y-72077931D01*
X146894841Y-72123772D01*
X146888244Y-72185200D01*
X146883488Y-72266001D01*
X146880254Y-72369965D01*
X146878223Y-72500878D01*
X146877074Y-72662530D01*
X146876490Y-72858707D01*
X146876208Y-73046797D01*
X146875011Y-73982106D01*
X146925252Y-74034451D01*
X146966309Y-74078488D01*
X147021107Y-74138846D01*
X147065375Y-74188469D01*
X147128346Y-74258700D01*
X147194742Y-74331234D01*
X147232885Y-74372037D01*
X147276079Y-74420841D01*
X147304263Y-74458893D01*
X147310514Y-74472939D01*
X147323204Y-74500035D01*
X147354059Y-74540252D01*
X147357091Y-74543658D01*
X147402439Y-74594131D01*
X147440649Y-74636827D01*
X147475443Y-74662717D01*
X147500775Y-74663979D01*
X147514054Y-74662192D01*
X147508343Y-74674879D01*
X147509052Y-74707787D01*
X147529791Y-74740994D01*
X147541279Y-74756986D01*
X147550161Y-74779838D01*
X147556784Y-74814652D01*
X147561493Y-74866530D01*
X147564637Y-74940574D01*
X147566561Y-75041885D01*
X147567612Y-75175567D01*
X147568045Y-75303789D01*
X147568154Y-75467274D01*
X147567399Y-75594726D01*
X147565459Y-75691510D01*
X147562009Y-75762990D01*
X147556726Y-75814532D01*
X147549286Y-75851501D01*
X147539366Y-75879262D01*
X147532517Y-75892950D01*
X147501687Y-75937089D01*
X147472885Y-75959520D01*
X147468562Y-75960228D01*
X147440788Y-75977141D01*
X147417785Y-76011980D01*
X147393580Y-76050050D01*
X147373060Y-76063733D01*
X147352774Y-76079666D01*
X147351915Y-76085912D01*
X147335917Y-76121663D01*
X147300518Y-76154804D01*
X147268176Y-76167237D01*
X147252347Y-76183507D01*
X147254224Y-76207931D01*
X147257346Y-76239484D01*
X147251463Y-76246047D01*
X147213508Y-76253414D01*
X147178192Y-76278738D01*
X147165607Y-76304008D01*
X147150715Y-76330605D01*
X147139731Y-76333721D01*
X147113305Y-76350361D01*
X147078610Y-76390899D01*
X147067278Y-76407609D01*
X147020701Y-76480621D01*
X147020701Y-77654997D01*
X147020923Y-77921800D01*
X147021622Y-78149588D01*
X147022847Y-78340746D01*
X147024648Y-78497659D01*
X147027074Y-78622712D01*
X147030175Y-78718290D01*
X147033999Y-78786777D01*
X147038597Y-78830559D01*
X147044017Y-78852020D01*
X147045542Y-78854214D01*
X147097187Y-78879148D01*
X147161835Y-78870615D01*
X147230949Y-78830504D01*
X147256468Y-78807515D01*
X147284052Y-78778191D01*
X147305191Y-78748553D01*
X147321118Y-78712446D01*
X147333068Y-78663714D01*
X147342276Y-78596203D01*
X147349975Y-78503757D01*
X147357400Y-78380222D01*
X147362829Y-78277146D01*
X147367459Y-78170998D01*
X147368049Y-78098577D01*
X147367734Y-78094955D01*
X147517523Y-78094955D01*
X147527110Y-78142389D01*
X147548574Y-78154523D01*
X147569869Y-78141256D01*
X147578899Y-78096963D01*
X147579625Y-78069185D01*
X147577641Y-78017013D01*
X147569201Y-77998996D01*
X147550576Y-78007979D01*
X147548574Y-78009617D01*
X147525606Y-78048265D01*
X147517523Y-78094955D01*
X147367734Y-78094955D01*
X147364035Y-78052356D01*
X147354852Y-78024805D01*
X147342839Y-78010674D01*
X147315893Y-77976494D01*
X147310514Y-77957545D01*
X147293765Y-77928384D01*
X147276926Y-77918354D01*
X147257503Y-77902313D01*
X147249806Y-77867281D01*
X147251865Y-77803035D01*
X147252705Y-77792506D01*
X147252932Y-77790865D01*
X147374605Y-77790865D01*
X147376338Y-77803423D01*
X147406111Y-77844764D01*
X147449591Y-77858848D01*
X147484736Y-77845450D01*
X147512888Y-77814909D01*
X147510608Y-77784434D01*
X147489465Y-77751449D01*
X147456670Y-77727634D01*
X147436006Y-77727407D01*
X147421907Y-77727252D01*
X147400036Y-77746703D01*
X147401283Y-77772806D01*
X147402743Y-77794057D01*
X147390395Y-77790451D01*
X147374605Y-77790865D01*
X147252932Y-77790865D01*
X147262883Y-77719086D01*
X147282363Y-77671943D01*
X147317345Y-77636071D01*
X147372616Y-77592594D01*
X147372616Y-77255119D01*
X147371734Y-77100158D01*
X147368666Y-76981787D01*
X147362786Y-76895225D01*
X147353464Y-76835690D01*
X147340072Y-76798400D01*
X147321981Y-76778572D01*
X147309288Y-76773241D01*
X147272463Y-76742621D01*
X147252610Y-76675034D01*
X147249980Y-76629636D01*
X147377711Y-76629636D01*
X147397929Y-76668190D01*
X147436006Y-76681663D01*
X147482579Y-76662238D01*
X147486558Y-76658883D01*
X147513053Y-76627767D01*
X147512038Y-76592896D01*
X147504957Y-76572598D01*
X147476475Y-76546285D01*
X147433085Y-76541660D01*
X147395018Y-76558516D01*
X147384712Y-76573821D01*
X147377711Y-76629636D01*
X147249980Y-76629636D01*
X147248976Y-76612306D01*
X147257016Y-76524908D01*
X147283795Y-76467680D01*
X147333303Y-76432106D01*
X147333432Y-76432049D01*
X147374995Y-76409243D01*
X147393277Y-76390484D01*
X147393317Y-76389894D01*
X147410697Y-76377169D01*
X147434719Y-76374246D01*
X147468357Y-76382915D01*
X147476121Y-76394947D01*
X147491628Y-76412413D01*
X147522365Y-76413902D01*
X147543456Y-76400122D01*
X147547726Y-76400582D01*
X147545831Y-76410473D01*
X147552031Y-76434142D01*
X147559574Y-76436349D01*
X147577264Y-76453170D01*
X147579625Y-76468050D01*
X147596373Y-76502591D01*
X147610677Y-76511666D01*
X147635891Y-76541046D01*
X147643278Y-76593635D01*
X147633941Y-76655826D01*
X147608984Y-76714007D01*
X147592505Y-76735740D01*
X147567161Y-76766918D01*
X147548197Y-76802384D01*
X147534712Y-76848371D01*
X147525804Y-76911111D01*
X147520571Y-76996840D01*
X147518112Y-77111789D01*
X147517523Y-77254087D01*
X147518186Y-77384543D01*
X147520511Y-77479476D01*
X147525001Y-77544749D01*
X147532158Y-77586225D01*
X147542485Y-77609765D01*
X147548574Y-77616300D01*
X147561338Y-77622627D01*
X147570088Y-77612896D01*
X147575558Y-77581425D01*
X147578483Y-77522532D01*
X147579598Y-77430537D01*
X147579706Y-77375599D01*
X147579786Y-77109128D01*
X147737297Y-76912469D01*
X147800231Y-76832365D01*
X147854371Y-76760613D01*
X147893855Y-76705169D01*
X147912646Y-76674409D01*
X147918933Y-76638968D01*
X147923528Y-76571245D01*
X147926057Y-76480340D01*
X147926144Y-76375353D01*
X147925837Y-76353545D01*
X147923291Y-76237719D01*
X147919136Y-76153594D01*
X147911869Y-76091470D01*
X147899985Y-76041648D01*
X147881983Y-75994427D01*
X147864263Y-75956335D01*
X147807335Y-75838587D01*
X147807335Y-75157212D01*
X147807002Y-74932683D01*
X147805850Y-74746199D01*
X147803647Y-74594406D01*
X147800162Y-74473950D01*
X147795163Y-74381479D01*
X147788421Y-74313638D01*
X147779702Y-74267076D01*
X147768777Y-74238437D01*
X147755414Y-74224369D01*
X147742815Y-74221353D01*
X147707591Y-74238442D01*
X147674488Y-74280202D01*
X147673259Y-74282527D01*
X147629665Y-74334457D01*
X147569359Y-74357259D01*
X147518095Y-74360783D01*
X147487640Y-74362876D01*
X147422684Y-74348885D01*
X147384479Y-74317852D01*
X147380569Y-74308715D01*
X147360939Y-74258741D01*
X147350404Y-74237159D01*
X147337218Y-74192190D01*
X147334625Y-74165968D01*
X147479600Y-74165968D01*
X147493551Y-74207923D01*
X147518095Y-74221353D01*
X147531135Y-74208742D01*
X147528020Y-74200889D01*
X147531352Y-74189126D01*
X147547499Y-74192753D01*
X147572019Y-74187213D01*
X147580591Y-74153006D01*
X147571283Y-74100426D01*
X147567060Y-74088490D01*
X147541777Y-74058778D01*
X147510907Y-74063561D01*
X147486769Y-74100005D01*
X147484633Y-74107452D01*
X147479600Y-74165968D01*
X147334625Y-74165968D01*
X147331246Y-74131788D01*
X147331215Y-74127539D01*
X147348576Y-74049436D01*
X147394709Y-73991818D01*
X147460690Y-73958052D01*
X147537591Y-73951506D01*
X147616489Y-73975547D01*
X147658654Y-74003993D01*
X147699746Y-74037242D01*
X147730946Y-74056189D01*
X147753615Y-74057001D01*
X147769114Y-74035842D01*
X147778805Y-73988879D01*
X147784047Y-73912277D01*
X147786203Y-73802201D01*
X147786634Y-73654817D01*
X147786634Y-73643453D01*
X147785703Y-73484910D01*
X147782832Y-73365674D01*
X147777909Y-73283694D01*
X147770818Y-73236916D01*
X147763308Y-73223385D01*
X147743766Y-73197415D01*
X147732072Y-73143729D01*
X147728687Y-73075346D01*
X147734073Y-73005286D01*
X147748692Y-72946570D01*
X147753130Y-72936595D01*
X147776140Y-72861985D01*
X147784724Y-72771020D01*
X147778749Y-72681520D01*
X147758084Y-72611302D01*
X147755583Y-72606683D01*
X147734167Y-72543741D01*
X147726309Y-72465171D01*
X147732052Y-72388457D01*
X147751436Y-72331082D01*
X147754925Y-72326002D01*
X147773826Y-72279588D01*
X147784684Y-72209315D01*
X147785976Y-72177139D01*
X147779911Y-72103990D01*
X147759554Y-72069420D01*
X147723344Y-72072612D01*
X147669719Y-72112750D01*
X147667271Y-72115037D01*
X147602042Y-72151434D01*
X147536907Y-72160717D01*
X147521530Y-72162908D01*
X147442814Y-72149136D01*
X147393148Y-72120212D01*
X147367984Y-72092442D01*
X147355771Y-72059201D01*
X147353851Y-72007608D01*
X147357638Y-71948208D01*
X147359774Y-71933965D01*
X147486328Y-71933965D01*
X147492504Y-71983850D01*
X147503608Y-72010485D01*
X147525604Y-72047442D01*
X147536907Y-72049626D01*
X147537752Y-72042584D01*
X147547929Y-72011849D01*
X147558924Y-72006357D01*
X147577034Y-71991086D01*
X147578049Y-71957434D01*
X147564189Y-71923641D01*
X147547183Y-71909805D01*
X147505534Y-71907020D01*
X147486328Y-71933965D01*
X147359774Y-71933965D01*
X147371484Y-71855892D01*
X147398689Y-71797774D01*
X147444419Y-71767467D01*
X147511000Y-71758605D01*
X147593560Y-71766998D01*
X147653036Y-71791559D01*
X147681685Y-71828614D01*
X147683130Y-71840237D01*
X147694802Y-71872856D01*
X147735660Y-71882152D01*
X147788189Y-71882152D01*
X147775381Y-71442258D01*
X147770665Y-71307678D01*
X147764836Y-71183914D01*
X147758347Y-71078118D01*
X147751656Y-70997443D01*
X147745217Y-70949044D01*
X147743552Y-70942347D01*
X147730605Y-70880646D01*
X147725310Y-70810844D01*
X147727573Y-70746830D01*
X147737301Y-70702492D01*
X147745233Y-70691850D01*
X147757901Y-70663837D01*
X147764391Y-70608266D01*
X147764929Y-70538482D01*
X147759741Y-70467831D01*
X147749052Y-70409657D01*
X147740057Y-70386231D01*
X147687732Y-70307701D01*
X147634511Y-70263501D01*
X147572001Y-70247243D01*
X147556795Y-70246781D01*
X147497091Y-70254705D01*
X147452245Y-70274142D01*
X147448107Y-70277752D01*
X147387822Y-70317635D01*
X147316499Y-70335967D01*
X147301026Y-70335363D01*
X147245998Y-70333216D01*
X147188176Y-70309848D01*
X147154892Y-70266331D01*
X147154851Y-70266203D01*
X147136248Y-70233430D01*
X147122811Y-70226080D01*
X147110720Y-70207712D01*
X147103996Y-70161826D01*
X147103505Y-70143276D01*
X147106967Y-70098597D01*
X147237394Y-70098597D01*
X147240389Y-70160096D01*
X147257297Y-70207998D01*
X147287818Y-70225281D01*
X147301026Y-70226080D01*
X147345444Y-70214270D01*
X147365395Y-70175142D01*
X147366258Y-70122575D01*
X147349948Y-70079133D01*
X147313301Y-70063895D01*
X147260976Y-70067342D01*
X147237394Y-70098597D01*
X147106967Y-70098597D01*
X147107523Y-70091417D01*
X147117562Y-70062580D01*
X147121618Y-70060473D01*
X147138029Y-70042626D01*
X147151771Y-70000272D01*
X147180794Y-69946715D01*
X147235071Y-69914699D01*
X147303761Y-69905488D01*
X147376023Y-69920344D01*
X147441017Y-69960531D01*
X147446629Y-69965920D01*
X147471245Y-70000539D01*
X147476121Y-70017592D01*
X147491004Y-70038875D01*
X147496822Y-70039772D01*
X147516269Y-70023397D01*
X147517840Y-70013896D01*
X147524353Y-70002317D01*
X147537194Y-70018114D01*
X147555822Y-70036759D01*
X147583863Y-70032281D01*
X147611837Y-70018450D01*
X147655657Y-69987182D01*
X147679098Y-69957304D01*
X147704873Y-69919870D01*
X147728344Y-69898867D01*
X147750252Y-69861852D01*
X147763377Y-69796989D01*
X147767491Y-69716939D01*
X147762365Y-69634362D01*
X147747770Y-69561919D01*
X147735010Y-69529791D01*
X147707533Y-69455544D01*
X147712497Y-69388273D01*
X147733083Y-69339419D01*
X147739251Y-69322394D01*
X147744300Y-69295293D01*
X147748255Y-69255013D01*
X147751140Y-69198447D01*
X147752979Y-69122489D01*
X147753796Y-69024033D01*
X147753616Y-68899975D01*
X147752462Y-68747207D01*
X147750360Y-68562625D01*
X147747332Y-68343121D01*
X147743404Y-68085592D01*
X147743035Y-68062167D01*
X147739592Y-67838621D01*
X147736488Y-67625506D01*
X147733769Y-67426764D01*
X147731478Y-67246336D01*
X147729663Y-67088165D01*
X147728370Y-66956192D01*
X147727642Y-66854359D01*
X147727527Y-66786609D01*
X147727949Y-66758680D01*
X147729675Y-66702280D01*
X147730993Y-66608558D01*
X147731905Y-66476994D01*
X147732409Y-66307064D01*
X147732507Y-66098248D01*
X147732199Y-65850024D01*
X147731485Y-65561869D01*
X147730365Y-65233263D01*
X147729149Y-64934326D01*
X147728140Y-64713148D01*
X147727073Y-64529488D01*
X147725765Y-64379463D01*
X147724031Y-64259187D01*
X147721686Y-64164779D01*
X147718546Y-64092354D01*
X147714428Y-64038029D01*
X147714181Y-64036154D01*
X147709145Y-63997919D01*
X147702514Y-63968142D01*
X147694351Y-63944813D01*
X147684472Y-63924050D01*
X147680854Y-63917194D01*
X147650252Y-63866667D01*
X147618218Y-63840416D01*
X147568617Y-63828241D01*
X147539445Y-63825019D01*
X147534112Y-63824430D01*
X147451929Y-63809337D01*
X147399822Y-63777908D01*
X147370608Y-63722204D01*
X147357102Y-63634285D01*
X147356748Y-63629394D01*
X147483342Y-63629394D01*
X147506997Y-63658618D01*
X147539445Y-63663896D01*
X147569756Y-63655634D01*
X147570338Y-63653545D01*
X147703831Y-63653545D01*
X147714181Y-63663896D01*
X147724532Y-63653545D01*
X147714181Y-63643195D01*
X147703831Y-63653545D01*
X147570338Y-63653545D01*
X147578121Y-63625623D01*
X147566701Y-63566026D01*
X147566578Y-63565566D01*
X147544498Y-63526309D01*
X147528799Y-63525171D01*
X147516237Y-63524261D01*
X147492026Y-63558626D01*
X147488082Y-63571694D01*
X147483342Y-63629394D01*
X147356748Y-63629394D01*
X147356668Y-63628296D01*
X147354351Y-63554622D01*
X147362179Y-63507384D01*
X147383178Y-63472238D01*
X147391529Y-63462928D01*
X147402913Y-63449668D01*
X147412099Y-63433638D01*
X147419322Y-63410573D01*
X147421144Y-63399176D01*
X147600326Y-63399176D01*
X147650747Y-63438837D01*
X147691136Y-63486255D01*
X147711480Y-63534971D01*
X147714211Y-63533251D01*
X147715778Y-63495337D01*
X147716158Y-63426420D01*
X147715330Y-63331693D01*
X147713273Y-63216346D01*
X147712870Y-63198126D01*
X147709984Y-63046748D01*
X147707481Y-62869316D01*
X147705523Y-62681175D01*
X147704273Y-62497672D01*
X147703889Y-62353598D01*
X147703831Y-61902387D01*
X147601627Y-61976773D01*
X147600977Y-62687974D01*
X147600326Y-63399176D01*
X147421144Y-63399176D01*
X147424817Y-63376208D01*
X147428822Y-63326279D01*
X147431570Y-63256520D01*
X147433298Y-63162667D01*
X147434242Y-63040456D01*
X147434637Y-62885622D01*
X147434719Y-62693899D01*
X147434719Y-62681469D01*
X147434248Y-62511588D01*
X147432910Y-62355555D01*
X147430813Y-62218021D01*
X147428067Y-62103633D01*
X147424783Y-62017039D01*
X147421070Y-61962890D01*
X147417341Y-61945721D01*
X147392969Y-61926867D01*
X147371595Y-61877683D01*
X147356758Y-61809240D01*
X147353737Y-61766636D01*
X147479322Y-61766636D01*
X147490911Y-61803095D01*
X147492682Y-61804955D01*
X147528799Y-61818541D01*
X147563165Y-61801707D01*
X147579567Y-61762824D01*
X147579625Y-61760063D01*
X147565410Y-61725117D01*
X147537574Y-61718011D01*
X147497667Y-61732870D01*
X147479322Y-61766636D01*
X147353737Y-61766636D01*
X147351915Y-61740947D01*
X147363025Y-61654351D01*
X147399184Y-61599048D01*
X147464639Y-61570731D01*
X147525670Y-61564740D01*
X147607466Y-61573443D01*
X147662833Y-61604156D01*
X147709004Y-61645558D01*
X147694770Y-61573105D01*
X147640047Y-61308780D01*
X147580468Y-61046566D01*
X147517959Y-60793851D01*
X147454449Y-60558022D01*
X147391866Y-60346466D01*
X147332137Y-60166572D01*
X147316620Y-60124042D01*
X147280562Y-60033028D01*
X147236932Y-59931386D01*
X147189085Y-59825975D01*
X147140374Y-59723656D01*
X147094154Y-59631290D01*
X147053776Y-59555736D01*
X147022596Y-59503854D01*
X147003966Y-59482506D01*
X147002917Y-59482315D01*
X146987114Y-59500351D01*
X146958322Y-59550210D01*
X146919516Y-59625513D01*
X146873675Y-59719882D01*
X146823773Y-59826941D01*
X146772789Y-59940311D01*
X146723699Y-60053616D01*
X146679479Y-60160477D01*
X146645424Y-60248245D01*
X146600921Y-60373879D01*
X146560053Y-60502523D01*
X146520818Y-60641721D01*
X146481210Y-60799019D01*
X146439227Y-60981964D01*
X146392863Y-61198099D01*
X146391798Y-61203188D01*
X146368749Y-61318939D01*
X146348885Y-61432391D01*
X146331927Y-61547825D01*
X146317595Y-61669524D01*
X146305610Y-61801768D01*
X146295692Y-61948838D01*
X146287561Y-62115015D01*
X146280939Y-62304581D01*
X146275545Y-62521817D01*
X146271100Y-62771003D01*
X146267324Y-63056422D01*
X146266600Y-63120497D01*
X146256490Y-64036512D01*
X146316758Y-64036512D01*
X146388942Y-64046287D01*
X146446847Y-64071709D01*
X146479208Y-64106923D01*
X146482478Y-64122638D01*
X146487622Y-64145222D01*
X146508803Y-64158169D01*
X146554646Y-64164019D01*
X146627384Y-64165317D01*
X146688749Y-64163121D01*
X146719366Y-64151484D01*
X146729847Y-64122836D01*
X146730889Y-64091472D01*
X146715742Y-64021219D01*
X146689487Y-63984760D01*
X146658048Y-63942897D01*
X146648085Y-63909098D01*
X146638769Y-63877242D01*
X146627384Y-63870905D01*
X146613973Y-63852643D01*
X146606974Y-63807465D01*
X146606952Y-63806499D01*
X146741451Y-63806499D01*
X146751000Y-63836603D01*
X146761076Y-63847861D01*
X146792779Y-63867074D01*
X146833865Y-63858730D01*
X146843979Y-63854319D01*
X146886830Y-63824922D01*
X146893084Y-63795940D01*
X146865444Y-63774886D01*
X146837932Y-63748822D01*
X146834393Y-63734134D01*
X146823679Y-63707724D01*
X146798482Y-63710717D01*
X146769220Y-63739438D01*
X146756666Y-63761548D01*
X146741451Y-63806499D01*
X146606952Y-63806499D01*
X146606683Y-63794746D01*
X146614494Y-63736678D01*
X146643879Y-63687771D01*
X146678776Y-63652554D01*
X146728200Y-63611993D01*
X146768437Y-63596206D01*
X146817695Y-63598924D01*
X146828857Y-63600882D01*
X146925089Y-63627422D01*
X146985475Y-63668635D01*
X147014461Y-63730800D01*
X147016490Y-63820195D01*
X147011651Y-63859101D01*
X146990441Y-63934441D01*
X146951176Y-63980837D01*
X146947237Y-63983518D01*
X146928952Y-63996496D01*
X146915691Y-64011997D01*
X146906646Y-64036281D01*
X146901011Y-64075606D01*
X146897979Y-64136231D01*
X146896744Y-64224415D01*
X146896497Y-64346418D01*
X146896496Y-64377159D01*
X146896762Y-64507548D01*
X146897986Y-64602448D01*
X146900803Y-64667770D01*
X146905848Y-64709427D01*
X146913757Y-64733329D01*
X146925166Y-64745389D01*
X146936619Y-64750287D01*
X146973233Y-64781192D01*
X147000698Y-64839638D01*
X147014581Y-64912035D01*
X147011448Y-64979834D01*
X146979810Y-65061920D01*
X146921126Y-65112850D01*
X146834666Y-65133199D01*
X146816594Y-65133659D01*
X146792399Y-65137086D01*
X146732902Y-65145514D01*
X146674912Y-65178430D01*
X146648899Y-65228433D01*
X146648085Y-65240372D01*
X146640026Y-65272247D01*
X146630207Y-65278566D01*
X146593883Y-65295685D01*
X146553726Y-65337771D01*
X146520147Y-65390917D01*
X146503560Y-65441217D01*
X146503179Y-65448217D01*
X146508214Y-65487385D01*
X146520367Y-65498081D01*
X146520760Y-65497853D01*
X146543965Y-65502960D01*
X146565948Y-65540556D01*
X146583673Y-65601766D01*
X146594109Y-65677717D01*
X146595638Y-65716909D01*
X146593450Y-65791108D01*
X146583374Y-65837208D01*
X146561702Y-65868301D01*
X146549756Y-65878823D01*
X146517962Y-65915412D01*
X146503223Y-65952976D01*
X146509126Y-65978368D01*
X146521521Y-65982396D01*
X146543925Y-66000354D01*
X146569182Y-66045100D01*
X146591464Y-66102941D01*
X146604939Y-66160182D01*
X146606577Y-66182183D01*
X146595621Y-66236184D01*
X146568255Y-66301323D01*
X146555471Y-66323961D01*
X146510528Y-66433975D01*
X146504167Y-66550751D01*
X146535406Y-66668848D01*
X146603263Y-66782825D01*
X146647334Y-66833226D01*
X146694415Y-66882798D01*
X146749793Y-66942822D01*
X146768544Y-66963548D01*
X146819484Y-67012374D01*
X146858629Y-67029493D01*
X146877688Y-67027190D01*
X146951979Y-67021426D01*
X147018918Y-67046920D01*
X147064398Y-67098096D01*
X147066041Y-67101644D01*
X147084419Y-67136048D01*
X147108649Y-67154193D01*
X147151135Y-67161237D01*
X147212063Y-67162347D01*
X147331215Y-67162347D01*
X147330857Y-67084719D01*
X147316904Y-67009706D01*
X147279105Y-66958341D01*
X147242824Y-66911962D01*
X147225719Y-66866794D01*
X147225613Y-66865187D01*
X147225780Y-66815384D01*
X147358916Y-66815384D01*
X147385803Y-66844138D01*
X147432635Y-66842145D01*
X147469463Y-66814712D01*
X147471178Y-66773175D01*
X147446548Y-66736500D01*
X147405547Y-66709298D01*
X147375959Y-66721871D01*
X147360036Y-66760195D01*
X147358916Y-66815384D01*
X147225780Y-66815384D01*
X147225905Y-66778324D01*
X147233829Y-66700373D01*
X147247737Y-66646491D01*
X147249895Y-66642052D01*
X147290739Y-66605126D01*
X147355669Y-66584881D01*
X147430556Y-66582061D01*
X147501274Y-66597414D01*
X147548574Y-66626289D01*
X147580055Y-66682362D01*
X147592022Y-66760281D01*
X147584711Y-66845502D01*
X147558355Y-66923482D01*
X147543399Y-66948183D01*
X147529854Y-66968331D01*
X147519228Y-66989698D01*
X147511165Y-67017267D01*
X147505312Y-67056021D01*
X147501316Y-67110942D01*
X147498823Y-67187012D01*
X147497479Y-67289216D01*
X147496930Y-67422535D01*
X147496822Y-67591952D01*
X147496822Y-67604215D01*
X147497484Y-67769551D01*
X147499378Y-67914647D01*
X147502367Y-68035225D01*
X147506314Y-68127007D01*
X147511079Y-68185713D01*
X147516212Y-68206932D01*
X147544809Y-68240540D01*
X147573292Y-68297375D01*
X147594134Y-68359932D01*
X147600249Y-68402406D01*
X147586348Y-68467298D01*
X147551471Y-68533091D01*
X147505602Y-68583963D01*
X147474586Y-68601547D01*
X147413932Y-68605297D01*
X147407277Y-68603638D01*
X147345201Y-68588168D01*
X147284458Y-68556399D01*
X147247766Y-68516227D01*
X147246385Y-68512926D01*
X147230501Y-68443669D01*
X147229803Y-68405180D01*
X147358544Y-68405180D01*
X147374573Y-68447585D01*
X147405735Y-68466468D01*
X147407277Y-68466504D01*
X147429611Y-68453044D01*
X147427638Y-68436507D01*
X147428556Y-68415502D01*
X147446124Y-68418020D01*
X147471156Y-68416692D01*
X147473314Y-68392597D01*
X147452523Y-68357528D01*
X147446548Y-68351170D01*
X147404827Y-68323781D01*
X147385803Y-68331527D01*
X147374340Y-68336194D01*
X147364011Y-68355565D01*
X147358544Y-68405180D01*
X147229803Y-68405180D01*
X147229138Y-68368556D01*
X147240291Y-68298685D01*
X147261954Y-68245151D01*
X147292124Y-68219051D01*
X147299651Y-68218093D01*
X147310287Y-68213411D01*
X147318279Y-68196052D01*
X147323987Y-68161041D01*
X147327772Y-68103408D01*
X147329995Y-68018180D01*
X147331018Y-67900384D01*
X147331215Y-67783374D01*
X147331215Y-67348655D01*
X147216371Y-67348655D01*
X147143746Y-67352010D01*
X147096796Y-67365340D01*
X147060108Y-67393546D01*
X147053565Y-67400408D01*
X146988723Y-67442494D01*
X146969989Y-67445288D01*
X146909523Y-67454307D01*
X146829935Y-67435771D01*
X146778390Y-67401906D01*
X146742560Y-67357949D01*
X146722831Y-67300723D01*
X146715225Y-67241771D01*
X146840969Y-67241771D01*
X146851780Y-67263465D01*
X146868094Y-67276590D01*
X146921628Y-67302729D01*
X146969989Y-67302841D01*
X146987073Y-67292580D01*
X146999672Y-67255727D01*
X146985155Y-67214921D01*
X146951209Y-67188631D01*
X146943038Y-67186779D01*
X146891325Y-67195360D01*
X146862885Y-67213702D01*
X146840969Y-67241771D01*
X146715225Y-67241771D01*
X146714821Y-67238640D01*
X146704987Y-67167516D01*
X146684058Y-67114005D01*
X146643483Y-67059633D01*
X146619840Y-67033509D01*
X146554797Y-66963221D01*
X146482995Y-66885192D01*
X146446251Y-66845069D01*
X146417656Y-66813762D01*
X146358272Y-66748747D01*
X146358272Y-66572581D01*
X146356641Y-66481216D01*
X146350549Y-66421260D01*
X146338197Y-66382807D01*
X146319206Y-66357348D01*
X146279848Y-66311775D01*
X146268170Y-66294848D01*
X146257733Y-66279720D01*
X146251321Y-66280708D01*
X146246081Y-66309373D01*
X146241934Y-66367998D01*
X146238800Y-66458869D01*
X146236602Y-66584271D01*
X146235261Y-66746489D01*
X146234697Y-66947808D01*
X146234697Y-66948788D01*
X146234067Y-67656419D01*
X146290995Y-67662969D01*
X146347922Y-67669519D01*
X146353681Y-67954156D01*
X146357326Y-68065411D01*
X146363016Y-68153810D01*
X146370215Y-68213444D01*
X146378385Y-68238403D01*
X146379558Y-68238794D01*
X146398340Y-68255163D01*
X146399802Y-68264670D01*
X146413327Y-68292500D01*
X146447831Y-68338336D01*
X146494438Y-68392449D01*
X146544269Y-68445108D01*
X146588448Y-68486586D01*
X146618097Y-68507153D01*
X146621742Y-68507905D01*
X146643950Y-68525116D01*
X146653632Y-68547582D01*
X146668284Y-68572441D01*
X146702501Y-68584336D01*
X146763336Y-68587259D01*
X146831378Y-68591875D01*
X146874086Y-68609354D01*
X146899820Y-68635561D01*
X146927374Y-68683010D01*
X146937437Y-68720090D01*
X146947604Y-68750824D01*
X146958598Y-68756316D01*
X146974160Y-68774032D01*
X146979299Y-68808068D01*
X146973629Y-68846992D01*
X146962757Y-68859821D01*
X146945700Y-68877285D01*
X146924509Y-68920460D01*
X146920015Y-68932274D01*
X146895694Y-68979526D01*
X146869038Y-69003848D01*
X146864104Y-69004727D01*
X146844201Y-69018575D01*
X146835313Y-69064147D01*
X146834393Y-69097881D01*
X146834393Y-69191035D01*
X146912596Y-69191035D01*
X146989017Y-69177192D01*
X147026248Y-69149633D01*
X147078396Y-69117685D01*
X147151531Y-69108795D01*
X147231868Y-69123545D01*
X147269212Y-69139334D01*
X147321850Y-69188474D01*
X147345846Y-69263970D01*
X147340042Y-69361215D01*
X147332763Y-69392293D01*
X147294535Y-69466475D01*
X147232122Y-69509567D01*
X147157074Y-69516937D01*
X147152579Y-69517378D01*
X147129543Y-69513009D01*
X147075036Y-69501284D01*
X147039266Y-69495779D01*
X147010430Y-69482083D01*
X147006301Y-69471236D01*
X147002999Y-69413499D01*
X146984598Y-69385964D01*
X146940727Y-69377703D01*
X146917197Y-69377343D01*
X146834393Y-69377343D01*
X146834393Y-70230472D01*
X146886145Y-70271180D01*
X146925164Y-70318168D01*
X146937898Y-70362138D01*
X146945176Y-70400317D01*
X146958598Y-70412388D01*
X146975418Y-70429726D01*
X146979299Y-70453790D01*
X146970630Y-70487428D01*
X146958598Y-70495192D01*
X146942641Y-70512794D01*
X146937898Y-70543446D01*
X146918596Y-70593635D01*
X146886145Y-70619397D01*
X146840904Y-70659466D01*
X146831295Y-70713317D01*
X146857674Y-70782464D01*
X146920398Y-70868425D01*
X146953522Y-70905475D01*
X147037434Y-70985334D01*
X147107551Y-71028309D01*
X147166916Y-71035342D01*
X147218568Y-71007372D01*
X147233257Y-70992013D01*
X147271257Y-70960513D01*
X147299961Y-70950611D01*
X147327639Y-70939496D01*
X147331215Y-70929910D01*
X147348930Y-70914349D01*
X147382967Y-70909209D01*
X147421870Y-70916296D01*
X147434719Y-70929910D01*
X147451240Y-70948812D01*
X147462562Y-70950611D01*
X147496417Y-70964798D01*
X147527529Y-70991633D01*
X147549109Y-71039488D01*
X147557854Y-71110801D01*
X147554750Y-71191089D01*
X147540778Y-71265866D01*
X147516922Y-71320648D01*
X147504283Y-71334141D01*
X147454600Y-71354797D01*
X147390223Y-71360228D01*
X147364713Y-71357260D01*
X147323518Y-71352467D01*
X147266848Y-71333546D01*
X147232580Y-71305499D01*
X147227710Y-71288672D01*
X147209172Y-71240235D01*
X147156099Y-71209616D01*
X147072991Y-71199022D01*
X147000250Y-71192298D01*
X146948849Y-71167848D01*
X146926606Y-71148211D01*
X146891979Y-71105328D01*
X146891041Y-71103215D01*
X147334771Y-71103215D01*
X147338901Y-71162394D01*
X147364713Y-71193137D01*
X147403598Y-71191563D01*
X147428681Y-71163920D01*
X147434343Y-71119422D01*
X147422916Y-71074765D01*
X147396730Y-71046645D01*
X147382967Y-71043765D01*
X147349759Y-71056782D01*
X147335010Y-71101200D01*
X147334771Y-71103215D01*
X146891041Y-71103215D01*
X146875931Y-71069180D01*
X146875795Y-71066802D01*
X146858428Y-71037309D01*
X146830183Y-71021728D01*
X146784147Y-71000333D01*
X146762905Y-70984107D01*
X146754565Y-70971292D01*
X146724520Y-70925124D01*
X146691821Y-70844248D01*
X146671829Y-70760966D01*
X146668786Y-70722927D01*
X146661603Y-70660383D01*
X146636872Y-70625284D01*
X146627384Y-70619397D01*
X146594240Y-70585779D01*
X146585982Y-70557788D01*
X146578494Y-70519956D01*
X146569762Y-70508311D01*
X146556636Y-70478652D01*
X146558242Y-70443723D01*
X146699837Y-70443723D01*
X146716555Y-70476772D01*
X146754565Y-70493143D01*
X146795655Y-70488544D01*
X146816140Y-70471127D01*
X146816382Y-70439630D01*
X146789607Y-70410593D01*
X146755015Y-70397892D01*
X146749150Y-70395739D01*
X146731289Y-70396547D01*
X146705469Y-70419231D01*
X146699837Y-70443723D01*
X146558242Y-70443723D01*
X146559044Y-70426289D01*
X146573877Y-70365486D01*
X146598027Y-70310507D01*
X146618842Y-70283095D01*
X146668071Y-70236430D01*
X146668428Y-69621385D01*
X146668450Y-69445716D01*
X146668075Y-69306759D01*
X146668029Y-69302202D01*
X147086893Y-69302202D01*
X147110216Y-69341437D01*
X147157074Y-69356262D01*
X147197868Y-69348692D01*
X147224938Y-69326808D01*
X147217278Y-69291077D01*
X147201834Y-69267768D01*
X147164979Y-69243334D01*
X147123481Y-69245566D01*
X147092930Y-69269794D01*
X147086893Y-69302202D01*
X146668029Y-69302202D01*
X146666986Y-69199825D01*
X146664866Y-69120224D01*
X146661397Y-69063267D01*
X146656262Y-69024264D01*
X146649142Y-68998525D01*
X146639721Y-68981362D01*
X146627680Y-68968085D01*
X146623948Y-68964567D01*
X146591447Y-68917072D01*
X146573372Y-68843764D01*
X146569726Y-68809629D01*
X146568118Y-68798002D01*
X146699837Y-68798002D01*
X146709415Y-68838141D01*
X146745847Y-68854598D01*
X146755015Y-68855852D01*
X146800789Y-68851384D01*
X146818800Y-68824800D01*
X146810706Y-68781640D01*
X146776466Y-68748713D01*
X146731289Y-68740476D01*
X146706671Y-68763709D01*
X146699837Y-68798002D01*
X146568118Y-68798002D01*
X146559870Y-68738369D01*
X146538908Y-68684706D01*
X146498292Y-68630133D01*
X146474833Y-68604122D01*
X146412491Y-68536585D01*
X146347792Y-68466170D01*
X146316871Y-68432366D01*
X146288073Y-68400324D01*
X146267237Y-68380093D01*
X146252899Y-68376123D01*
X146243591Y-68392865D01*
X146237848Y-68434771D01*
X146234204Y-68506290D01*
X146231192Y-68611874D01*
X146228920Y-68699389D01*
X146221836Y-68963325D01*
X146282470Y-68963325D01*
X146339549Y-68980119D01*
X146393902Y-69021807D01*
X146431752Y-69075350D01*
X146441051Y-69113407D01*
X146450836Y-69144128D01*
X146461777Y-69149633D01*
X146477338Y-69167349D01*
X146482478Y-69201386D01*
X146475392Y-69240289D01*
X146461777Y-69253138D01*
X146442875Y-69269659D01*
X146441076Y-69280981D01*
X146426887Y-69314761D01*
X146399674Y-69346292D01*
X146373139Y-69382459D01*
X146360622Y-69436736D01*
X146358272Y-69495885D01*
X146362819Y-69563959D01*
X146374470Y-69616892D01*
X146384149Y-69635273D01*
X146453409Y-69722669D01*
X146483389Y-69797479D01*
X146474058Y-69859596D01*
X146456602Y-69883830D01*
X146426923Y-69917656D01*
X146386967Y-69965870D01*
X146379201Y-69975505D01*
X146321932Y-70026583D01*
X146275469Y-70038503D01*
X146270521Y-70039772D01*
X146213366Y-70039772D01*
X146213366Y-71129923D01*
X146263287Y-71156640D01*
X146308687Y-71203389D01*
X146326653Y-71255028D01*
X146332089Y-71318861D01*
X146327186Y-71380892D01*
X146314123Y-71428088D01*
X146295074Y-71447419D01*
X146294525Y-71447433D01*
X146276897Y-71463864D01*
X146275469Y-71473884D01*
X146261021Y-71506291D01*
X146234067Y-71535784D01*
X146218892Y-71551523D01*
X146207944Y-71573008D01*
X146200540Y-71606634D01*
X146195996Y-71658797D01*
X146193629Y-71735892D01*
X146192756Y-71844312D01*
X146192665Y-71923351D01*
X146193526Y-72038479D01*
X146195913Y-72137310D01*
X146199529Y-72213238D01*
X146204081Y-72259652D01*
X146208191Y-72271095D01*
X146237421Y-72272013D01*
X146287358Y-72280170D01*
X146291336Y-72280997D01*
X146345701Y-72304825D01*
X146379867Y-72352565D01*
X146396688Y-72430031D01*
X146399674Y-72501734D01*
X146388040Y-72595184D01*
X146358272Y-72653733D01*
X146340483Y-72681051D01*
X146328590Y-72714907D01*
X146321453Y-72763697D01*
X146317931Y-72835817D01*
X146316885Y-72939660D01*
X146316871Y-72958598D01*
X146317602Y-73067553D01*
X146320581Y-73143589D01*
X146326991Y-73195179D01*
X146338011Y-73230791D01*
X146354821Y-73258897D01*
X146359600Y-73265151D01*
X146382566Y-73301496D01*
X146394473Y-73344662D01*
X146397594Y-73407407D01*
X146395827Y-73468493D01*
X146391684Y-73539663D01*
X146386750Y-73589979D01*
X146382005Y-73609831D01*
X146381427Y-73609648D01*
X146359395Y-73611640D01*
X146335947Y-73621896D01*
X146284405Y-73640002D01*
X146248586Y-73646130D01*
X146220266Y-73648473D01*
X146198808Y-73650249D01*
X146186862Y-74071611D01*
X146182944Y-74213695D01*
X146180684Y-74320620D01*
X146180563Y-74398613D01*
X146183062Y-74453901D01*
X146188665Y-74492711D01*
X146197851Y-74521269D01*
X146211104Y-74545803D01*
X146225192Y-74567061D01*
X146256164Y-74616507D01*
X146273866Y-74652143D01*
X146275469Y-74658960D01*
X146291915Y-74675904D01*
X146301345Y-74677343D01*
X146328650Y-74693193D01*
X146365881Y-74732200D01*
X146378973Y-74749226D01*
X146430726Y-74820539D01*
X146715363Y-74821109D01*
X146836577Y-74820340D01*
X146921026Y-74817195D01*
X146973298Y-74811271D01*
X146997983Y-74802159D01*
X147001455Y-74795803D01*
X147008838Y-74790722D01*
X147020701Y-74811328D01*
X147027045Y-74845959D01*
X147032591Y-74913559D01*
X147036883Y-75005698D01*
X147039464Y-75113946D01*
X147039947Y-75166204D01*
X147041171Y-75289980D01*
X147043903Y-75378231D01*
X147048728Y-75436825D01*
X147056232Y-75471628D01*
X147067002Y-75488508D01*
X147072453Y-75491594D01*
X147099991Y-75519259D01*
X147103505Y-75535210D01*
X147119182Y-75563084D01*
X147133358Y-75566911D01*
X147150988Y-75576472D01*
X147157258Y-75610703D01*
X147154488Y-75670695D01*
X147141833Y-75746366D01*
X147113360Y-75801802D01*
X147080153Y-75838614D01*
X147031977Y-75879493D01*
X146989049Y-75894729D01*
X146962644Y-75893418D01*
X146934573Y-75892025D01*
X146844168Y-75864826D01*
X146784940Y-75810833D01*
X146755698Y-75728635D01*
X146751947Y-75676397D01*
X146753060Y-75657452D01*
X146898387Y-75657452D01*
X146900164Y-75708216D01*
X146919880Y-75751598D01*
X146956695Y-75773157D01*
X146962644Y-75773603D01*
X146981029Y-75757376D01*
X147005301Y-75717821D01*
X147005720Y-75716993D01*
X147022174Y-75657509D01*
X147010040Y-75612514D01*
X146973274Y-75591249D01*
X146952023Y-75591531D01*
X146915392Y-75613744D01*
X146898387Y-75657452D01*
X146753060Y-75657452D01*
X146756269Y-75602825D01*
X146772806Y-75555065D01*
X146796895Y-75526316D01*
X146834415Y-75496107D01*
X146858997Y-75484108D01*
X146865595Y-75464768D01*
X146870975Y-75412182D01*
X146874565Y-75334501D01*
X146875795Y-75244864D01*
X146875795Y-75005621D01*
X146619625Y-75011979D01*
X146499783Y-75013447D01*
X146419839Y-75010836D01*
X146378482Y-75004061D01*
X146371938Y-74996347D01*
X146362152Y-74971919D01*
X146329265Y-74946978D01*
X146284643Y-74912527D01*
X146236790Y-74860613D01*
X146225037Y-74845009D01*
X146171964Y-74770419D01*
X146171964Y-75207532D01*
X146064082Y-75207532D01*
X146064478Y-75175819D01*
X146066933Y-74963719D01*
X146069598Y-74719616D01*
X146072458Y-74445078D01*
X146075498Y-74141670D01*
X146078704Y-73810960D01*
X146082060Y-73454514D01*
X146082296Y-73428843D01*
X146192961Y-73428843D01*
X146200286Y-73473707D01*
X146216868Y-73496326D01*
X146220266Y-73496822D01*
X146262173Y-73482559D01*
X146274236Y-73440948D01*
X146256051Y-73373758D01*
X146251178Y-73362652D01*
X146229951Y-73328551D01*
X146226321Y-73329324D01*
X146212571Y-73332254D01*
X146210093Y-73335802D01*
X146195896Y-73377590D01*
X146192961Y-73428843D01*
X146082296Y-73428843D01*
X146085552Y-73073898D01*
X146089166Y-72670678D01*
X146090906Y-72472127D01*
X146192665Y-72472127D01*
X146202042Y-72525148D01*
X146226321Y-72546966D01*
X146259721Y-72532671D01*
X146261668Y-72530780D01*
X146273217Y-72513437D01*
X146272190Y-72486198D01*
X146262421Y-72446251D01*
X146241640Y-72405458D01*
X146217321Y-72400930D01*
X146198248Y-72429408D01*
X146192665Y-72472127D01*
X146090906Y-72472127D01*
X146092885Y-72246422D01*
X146096697Y-71802695D01*
X146100585Y-71341065D01*
X146104536Y-70863097D01*
X146108534Y-70370357D01*
X146112564Y-69864413D01*
X146112654Y-69852963D01*
X146216307Y-69852963D01*
X146233380Y-69871092D01*
X146275469Y-69874165D01*
X146319445Y-69870507D01*
X146335000Y-69850943D01*
X146333708Y-69806887D01*
X146323724Y-69759692D01*
X146299448Y-69741578D01*
X146275646Y-69739624D01*
X146275469Y-69739609D01*
X146238484Y-69746672D01*
X146221726Y-69775961D01*
X146217230Y-69806887D01*
X146216307Y-69852963D01*
X146112654Y-69852963D01*
X146116613Y-69346831D01*
X146117795Y-69193030D01*
X146217473Y-69193030D01*
X146218384Y-69230746D01*
X146241024Y-69245751D01*
X146275646Y-69248608D01*
X146320023Y-69245880D01*
X146334932Y-69226966D01*
X146333641Y-69194861D01*
X146320035Y-69152855D01*
X146284987Y-69139535D01*
X146275469Y-69139283D01*
X146234728Y-69149111D01*
X146218381Y-69186192D01*
X146217473Y-69193030D01*
X146117795Y-69193030D01*
X146120434Y-68849470D01*
X146124898Y-68270972D01*
X146129360Y-67708286D01*
X146133804Y-67162753D01*
X146138217Y-66635716D01*
X146142113Y-66183167D01*
X146361711Y-66183167D01*
X146376136Y-66215683D01*
X146383238Y-66223242D01*
X146417656Y-66244240D01*
X146458704Y-66232450D01*
X146459362Y-66232099D01*
X146497481Y-66195982D01*
X146495394Y-66151799D01*
X146470649Y-66118431D01*
X146430068Y-66089374D01*
X146411204Y-66095102D01*
X146399108Y-66098775D01*
X146374858Y-66138418D01*
X146361711Y-66183167D01*
X146142113Y-66183167D01*
X146142584Y-66128515D01*
X146144140Y-65953010D01*
X146254768Y-65953010D01*
X146257816Y-66011063D01*
X146268170Y-66033552D01*
X146280644Y-66031121D01*
X146338167Y-65984430D01*
X146357171Y-65940170D01*
X146337095Y-65901561D01*
X146306520Y-65882658D01*
X146274850Y-65870370D01*
X146259763Y-65877363D01*
X146257303Y-65895673D01*
X146255110Y-65911995D01*
X146254768Y-65953010D01*
X146144140Y-65953010D01*
X146146307Y-65708553D01*
X146362870Y-65708553D01*
X146388112Y-65761260D01*
X146411204Y-65786350D01*
X146432976Y-65783187D01*
X146459907Y-65761835D01*
X146496026Y-65724147D01*
X146496214Y-65697196D01*
X146460498Y-65671198D01*
X146460159Y-65671017D01*
X146405020Y-65655235D01*
X146370481Y-65670390D01*
X146362870Y-65708553D01*
X146146307Y-65708553D01*
X146146893Y-65642493D01*
X146151128Y-65178990D01*
X146155277Y-64739349D01*
X146158097Y-64450530D01*
X146253598Y-64450530D01*
X146255451Y-65000787D01*
X146257303Y-65551044D01*
X146302613Y-65521113D01*
X146337697Y-65480463D01*
X146353656Y-65412491D01*
X146354365Y-65403990D01*
X146382697Y-65288954D01*
X146448030Y-65191053D01*
X146489417Y-65153345D01*
X146562565Y-65071311D01*
X146601495Y-64971014D01*
X146606683Y-64916205D01*
X146609758Y-64899274D01*
X146742693Y-64899274D01*
X146745059Y-64941414D01*
X146760415Y-64965048D01*
X146792399Y-64984805D01*
X146833191Y-64976857D01*
X146843979Y-64972167D01*
X146883944Y-64951660D01*
X146894453Y-64931992D01*
X146883949Y-64897340D01*
X146883931Y-64897292D01*
X146855317Y-64871770D01*
X146809106Y-64864854D01*
X146792779Y-64869038D01*
X146764549Y-64876272D01*
X146742693Y-64899274D01*
X146609758Y-64899274D01*
X146619231Y-64847121D01*
X146662030Y-64783179D01*
X146669166Y-64775446D01*
X146699506Y-64741202D01*
X146717630Y-64709913D01*
X146726233Y-64670126D01*
X146728007Y-64610387D01*
X146726094Y-64533333D01*
X146720538Y-64357376D01*
X146622747Y-64351088D01*
X146545416Y-64353252D01*
X146481986Y-64376084D01*
X146447160Y-64397665D01*
X146385913Y-64430638D01*
X146326924Y-64449103D01*
X146311480Y-64450530D01*
X146253598Y-64450530D01*
X146158097Y-64450530D01*
X146159324Y-64324911D01*
X146160019Y-64256342D01*
X146258833Y-64256342D01*
X146260552Y-64304851D01*
X146282954Y-64327937D01*
X146296322Y-64332362D01*
X146336539Y-64329684D01*
X146358469Y-64298840D01*
X146373024Y-64237043D01*
X146355779Y-64201311D01*
X146316587Y-64191769D01*
X146279158Y-64199311D01*
X146262564Y-64230040D01*
X146258833Y-64256342D01*
X146160019Y-64256342D01*
X146163257Y-63937017D01*
X146167062Y-63577008D01*
X146170723Y-63246228D01*
X146174229Y-62946016D01*
X146177564Y-62677715D01*
X146180715Y-62442665D01*
X146183668Y-62242209D01*
X146186409Y-62077689D01*
X146188924Y-61950444D01*
X146191199Y-61861818D01*
X146193220Y-61813152D01*
X146193360Y-61811165D01*
X146216428Y-61591434D01*
X146253779Y-61345864D01*
X146302850Y-61086436D01*
X146361078Y-60825129D01*
X146425899Y-60573925D01*
X146494751Y-60344803D01*
X146527740Y-60248248D01*
X146568211Y-60141477D01*
X146617251Y-60022074D01*
X146672109Y-59895741D01*
X146730037Y-59768177D01*
X146788284Y-59645082D01*
X146844100Y-59532155D01*
X146894737Y-59435097D01*
X146937444Y-59359607D01*
X146969470Y-59311386D01*
X146987121Y-59296007D01*
X147020378Y-59314665D01*
X147065057Y-59367321D01*
X147118624Y-59448994D01*
X147178541Y-59554703D01*
X147242273Y-59679468D01*
X147307282Y-59818308D01*
X147371034Y-59966244D01*
X147430990Y-60118295D01*
X147484616Y-60269481D01*
X147487869Y-60279299D01*
X147524770Y-60399065D01*
X147567172Y-60549589D01*
X147612609Y-60721002D01*
X147658621Y-60903435D01*
X147702743Y-61087015D01*
X147742514Y-61261875D01*
X147775470Y-61418143D01*
X147787455Y-61479951D01*
X147789180Y-61508941D01*
X147791161Y-61578001D01*
X147793385Y-61685801D01*
X147795839Y-61831012D01*
X147798509Y-62012303D01*
X147801383Y-62228344D01*
X147804446Y-62477804D01*
X147807685Y-62759354D01*
X147811088Y-63071662D01*
X147814641Y-63413400D01*
X147818331Y-63783236D01*
X147822143Y-64179841D01*
X147826066Y-64601883D01*
X147830086Y-65048034D01*
X147834189Y-65516963D01*
X147838362Y-66007339D01*
X147842592Y-66517832D01*
X147846866Y-67047112D01*
X147851170Y-67593849D01*
X147855490Y-68156713D01*
X147859392Y-68677204D01*
X147911964Y-75770953D01*
X147974784Y-75922518D01*
X147998175Y-75980515D01*
X148014894Y-76029556D01*
X148026057Y-76078355D01*
X148032780Y-76135627D01*
X148036181Y-76210086D01*
X148037375Y-76310448D01*
X148037492Y-76412091D01*
X148037381Y-76750099D01*
X147963445Y-76840327D01*
X147910853Y-76903744D01*
X147845838Y-76981088D01*
X147786504Y-77050893D01*
X147683498Y-77171231D01*
X147683314Y-77671013D01*
X147683577Y-77830490D01*
X147684690Y-77953287D01*
X147686936Y-78044121D01*
X147690601Y-78107710D01*
X147695968Y-78148771D01*
X147703323Y-78172023D01*
X147712950Y-78182181D01*
X147714181Y-78182710D01*
X147732296Y-78201773D01*
X147742115Y-78246481D01*
X147745225Y-78324348D01*
X147745233Y-78329831D01*
X147743823Y-78403162D01*
X147737873Y-78444132D01*
X147724795Y-78461732D01*
X147706365Y-78465037D01*
X147676659Y-78467441D01*
X147653977Y-78477505D01*
X147638031Y-78499500D01*
X147628529Y-78537701D01*
X147625183Y-78596383D01*
X147627701Y-78679817D01*
X147635795Y-78792279D01*
X147649173Y-78938042D01*
X147664112Y-79087659D01*
X147688469Y-79327315D01*
X147773778Y-79350215D01*
X147872930Y-79389907D01*
X147987479Y-79457457D01*
X148108897Y-79546934D01*
X148228657Y-79652407D01*
X148275644Y-79699254D01*
X148338194Y-79762897D01*
X148390102Y-79813552D01*
X148424771Y-79844908D01*
X148435277Y-79851997D01*
X148448598Y-79834598D01*
X148476641Y-79786895D01*
X148515641Y-79715630D01*
X148561832Y-79627544D01*
X148575242Y-79601372D01*
X148629874Y-79496363D01*
X148672420Y-79421378D01*
X148708257Y-79368902D01*
X148742764Y-79331421D01*
X148781318Y-79301420D01*
X148797453Y-79290859D01*
X148862771Y-79254843D01*
X148924752Y-79236721D01*
X149003673Y-79231078D01*
X149021672Y-79230970D01*
X149105327Y-79227135D01*
X149168603Y-79211882D01*
X149232113Y-79179588D01*
X149249381Y-79168867D01*
X149308277Y-79135054D01*
X149361432Y-79116228D01*
X149425553Y-79108209D01*
X149497474Y-79106764D01*
X149582310Y-79104535D01*
X149644119Y-79094581D01*
X149701180Y-79072005D01*
X149767708Y-79034365D01*
X149831526Y-78997910D01*
X149883504Y-78976276D01*
X149939006Y-78965635D01*
X150013396Y-78962158D01*
X150058558Y-78961911D01*
X150140097Y-78962810D01*
X150193720Y-78969301D01*
X150220961Y-78986993D01*
X150223353Y-79021490D01*
X150202429Y-79078399D01*
X150159723Y-79163327D01*
X150129311Y-79220619D01*
X149956143Y-79529178D01*
X149783095Y-79802508D01*
X149605514Y-80046510D01*
X149418749Y-80267081D01*
X149218149Y-80470119D01*
X148999062Y-80661523D01*
X148982111Y-80675286D01*
X148842380Y-80788201D01*
X148842380Y-81264135D01*
X148744658Y-81153217D01*
X148655073Y-81054959D01*
X148569268Y-80969445D01*
X148476814Y-80887255D01*
X148367284Y-80798968D01*
X148273105Y-80727170D01*
X148175008Y-80656974D01*
X148074155Y-80590750D01*
X147976883Y-80532014D01*
X147889530Y-80484282D01*
X147818436Y-80451067D01*
X147769939Y-80435887D01*
X147752320Y-80438335D01*
X147758773Y-80458854D01*
X147789195Y-80500169D01*
X147837610Y-80554482D01*
X147855096Y-80572495D01*
X147913462Y-80632726D01*
X147948449Y-80675886D01*
X147966038Y-80714095D01*
X147972208Y-80759472D01*
X147972942Y-80811350D01*
X147970615Y-80882351D01*
X147959835Y-80927510D01*
X147934908Y-80962296D01*
X147908378Y-80986707D01*
X147834397Y-81046116D01*
X147755268Y-81102742D01*
X147680154Y-81150745D01*
X147618216Y-81184287D01*
X147578615Y-81197530D01*
X147577537Y-81197555D01*
X147548574Y-81211289D01*
X147544304Y-81213314D01*
X147538224Y-81237725D01*
X147522819Y-81272293D01*
X147482066Y-81321044D01*
X147449591Y-81351310D01*
X147434719Y-81365170D01*
X147331215Y-81452447D01*
G37*
G36*
X147236842Y-73635961D02*
G01*
X147206347Y-73618536D01*
X147192370Y-73589056D01*
X147189061Y-73569326D01*
X147178883Y-73454205D01*
X147274391Y-73454205D01*
X147299932Y-73486157D01*
X147312185Y-73498493D01*
X147344135Y-73527030D01*
X147363990Y-73526582D01*
X147383980Y-73503668D01*
X147411154Y-73447789D01*
X147399220Y-73399279D01*
X147383706Y-73380749D01*
X147357953Y-73362856D01*
X147341008Y-73369656D01*
X147332071Y-73373242D01*
X147311253Y-73392578D01*
X147278216Y-73428858D01*
X147274391Y-73454205D01*
X147178883Y-73454205D01*
X147178510Y-73449987D01*
X147181095Y-73363055D01*
X147197597Y-73301423D01*
X147222649Y-73264149D01*
X147248972Y-73228589D01*
X147263207Y-73184321D01*
X147268651Y-73118091D01*
X147269112Y-73077361D01*
X147266807Y-72998149D01*
X147257397Y-72946240D01*
X147237143Y-72907673D01*
X147217360Y-72884189D01*
X147174483Y-72808815D01*
X147169951Y-72744688D01*
X147270561Y-72744688D01*
X147288418Y-72751589D01*
X147309441Y-72768674D01*
X147320864Y-72792991D01*
X147341008Y-72829334D01*
X147365149Y-72824508D01*
X147388753Y-72787816D01*
X147408502Y-72741683D01*
X147407880Y-72715342D01*
X147386169Y-72692149D01*
X147384589Y-72690833D01*
X147351415Y-72677245D01*
X147312136Y-72693278D01*
X147277344Y-72722456D01*
X147270561Y-72744688D01*
X147169951Y-72744688D01*
X147167959Y-72716496D01*
X147195295Y-72617105D01*
X147236371Y-72557119D01*
X147298727Y-72528668D01*
X147386750Y-72529981D01*
X147403752Y-72532880D01*
X147468076Y-72563773D01*
X147513612Y-72621901D01*
X147537945Y-72696470D01*
X147538659Y-72776688D01*
X147513339Y-72851762D01*
X147483830Y-72890669D01*
X147456037Y-72923005D01*
X147438786Y-72959138D01*
X147430266Y-73008755D01*
X147428666Y-73081545D01*
X147431474Y-73170782D01*
X147441221Y-73228803D01*
X147463725Y-73248411D01*
X147463745Y-73248411D01*
X147494840Y-73266997D01*
X147518007Y-73315428D01*
X147532133Y-73382709D01*
X147536106Y-73457850D01*
X147528812Y-73529855D01*
X147509139Y-73587734D01*
X147499544Y-73602104D01*
X147456254Y-73637168D01*
X147394790Y-73648332D01*
X147380514Y-73648310D01*
X147344135Y-73646843D01*
X147292138Y-73644747D01*
X147236842Y-73635961D01*
G37*
G36*
X147765933Y-73258761D02*
G01*
X147755583Y-73269112D01*
X147745233Y-73258761D01*
X147755583Y-73248411D01*
X147765933Y-73258761D01*
G37*
G36*
X146710188Y-64605786D02*
G01*
X146699837Y-64616137D01*
X146689487Y-64605786D01*
X146699837Y-64595436D01*
X146710188Y-64605786D01*
G37*
G36*
X148690298Y-71316725D02*
G01*
X148725961Y-71366244D01*
X148774035Y-71438822D01*
X148830268Y-71528124D01*
X148864060Y-71583615D01*
X148921539Y-71678469D01*
X148971352Y-71759400D01*
X149009732Y-71820387D01*
X149032908Y-71855407D01*
X149037933Y-71861451D01*
X149050251Y-71844638D01*
X149079781Y-71798291D01*
X149122721Y-71728549D01*
X149175268Y-71641550D01*
X149205122Y-71591539D01*
X149263451Y-71495914D01*
X149316980Y-71412697D01*
X149361145Y-71348650D01*
X149391384Y-71310533D01*
X149399520Y-71303482D01*
X149445569Y-71297471D01*
X149486381Y-71319075D01*
X149504613Y-71358888D01*
X149504629Y-71360483D01*
X149494348Y-71388956D01*
X149465918Y-71446369D01*
X149422776Y-71526331D01*
X149368356Y-71622453D01*
X149313146Y-71716544D01*
X149121842Y-72037408D01*
X148958459Y-72037408D01*
X148765901Y-71716544D01*
X148703981Y-71611475D01*
X148650326Y-71516819D01*
X148608383Y-71438955D01*
X148581600Y-71384264D01*
X148573306Y-71360182D01*
X148590815Y-71322015D01*
X148630859Y-71297185D01*
X148671302Y-71296600D01*
X148690298Y-71316725D01*
G37*
G36*
X147350422Y-73444461D02*
G01*
X147351915Y-73455420D01*
X147344341Y-73472459D01*
X147338115Y-73469220D01*
X147335637Y-73444653D01*
X147338115Y-73441619D01*
X147350422Y-73444461D01*
G37*
G36*
X148529756Y-75787510D02*
G01*
X148553908Y-75800213D01*
X148586579Y-75828120D01*
X148631488Y-75874728D01*
X148692352Y-75943537D01*
X148772891Y-76038045D01*
X148852730Y-76133009D01*
X148917491Y-76208361D01*
X148973860Y-76270455D01*
X149016062Y-76313169D01*
X149038321Y-76330383D01*
X149039039Y-76330476D01*
X149058600Y-76315385D01*
X149099771Y-76273604D01*
X149157756Y-76210331D01*
X149227762Y-76130768D01*
X149286903Y-76061603D01*
X149372552Y-75961303D01*
X149436792Y-75889181D01*
X149484055Y-75841070D01*
X149518774Y-75812802D01*
X149545384Y-75800209D01*
X149566366Y-75798868D01*
X149606896Y-75809708D01*
X149625199Y-75832444D01*
X149619886Y-75870325D01*
X149589569Y-75926596D01*
X149532861Y-76004505D01*
X149448373Y-76107298D01*
X149420653Y-76139700D01*
X149209847Y-76384597D01*
X149403200Y-76390608D01*
X149506676Y-76396537D01*
X149577361Y-76406553D01*
X149611210Y-76420058D01*
X149612466Y-76421659D01*
X149627364Y-76467408D01*
X149623413Y-76512447D01*
X149615214Y-76526053D01*
X149590074Y-76531160D01*
X149530398Y-76535119D01*
X149442709Y-76537974D01*
X149333529Y-76539772D01*
X149209382Y-76540557D01*
X149076790Y-76540376D01*
X148942277Y-76539274D01*
X148812365Y-76537296D01*
X148693577Y-76534488D01*
X148592436Y-76530896D01*
X148515465Y-76526565D01*
X148469188Y-76521540D01*
X148458686Y-76517976D01*
X148452835Y-76482505D01*
X148457671Y-76446270D01*
X148465653Y-76423217D01*
X148481076Y-76408313D01*
X148512126Y-76399409D01*
X148566988Y-76394356D01*
X148653845Y-76391003D01*
X148669952Y-76390519D01*
X148869727Y-76384597D01*
X148659395Y-76139967D01*
X148586800Y-76053108D01*
X148525049Y-75974597D01*
X148478860Y-75910805D01*
X148452956Y-75868103D01*
X148449063Y-75856058D01*
X148465746Y-75816142D01*
X148492143Y-75793723D01*
X148510408Y-75786513D01*
X148529756Y-75787510D01*
G37*
G36*
X147000000Y-71602690D02*
G01*
X146989650Y-71613040D01*
X146979299Y-71602690D01*
X146989650Y-71592339D01*
X147000000Y-71602690D01*
G37*
G36*
X144523947Y-70896553D02*
G01*
X144417630Y-70849290D01*
X144350810Y-70816318D01*
X144243455Y-70760572D01*
X144168592Y-70715586D01*
X144120595Y-70675959D01*
X144093840Y-70636286D01*
X144082703Y-70591165D01*
X144081222Y-70558355D01*
X144236431Y-70558355D01*
X144253833Y-70578002D01*
X144299973Y-70609646D01*
X144365747Y-70648482D01*
X144442053Y-70689705D01*
X144519789Y-70728510D01*
X144589850Y-70760094D01*
X144643136Y-70779651D01*
X144663202Y-70783611D01*
X144693073Y-70775675D01*
X144750036Y-70753784D01*
X144824122Y-70722442D01*
X144905364Y-70686151D01*
X144983793Y-70649413D01*
X145049440Y-70616731D01*
X145092339Y-70592607D01*
X145101815Y-70585499D01*
X145113007Y-70567723D01*
X145106655Y-70548646D01*
X145078006Y-70524506D01*
X145022309Y-70491540D01*
X144934811Y-70445983D01*
X144909586Y-70433278D01*
X144822784Y-70391417D01*
X144746846Y-70357913D01*
X144690916Y-70336610D01*
X144666350Y-70330947D01*
X144626950Y-70340978D01*
X144565412Y-70365988D01*
X144490808Y-70401179D01*
X144412212Y-70441751D01*
X144338695Y-70482905D01*
X144279332Y-70519843D01*
X144243194Y-70547764D01*
X144236431Y-70558355D01*
X144081222Y-70558355D01*
X144081174Y-70557294D01*
X144085325Y-70505923D01*
X144101530Y-70463424D01*
X144135412Y-70424395D01*
X144192597Y-70383432D01*
X144278708Y-70335132D01*
X144350810Y-70298270D01*
X144460855Y-70245160D01*
X144543976Y-70210543D01*
X144608634Y-70191417D01*
X144663290Y-70184781D01*
X144671149Y-70184678D01*
X144725036Y-70189698D01*
X144787654Y-70206760D01*
X144867466Y-70238862D01*
X144972933Y-70289007D01*
X144991489Y-70298270D01*
X145081168Y-70345574D01*
X145157840Y-70390366D01*
X145213357Y-70427590D01*
X145239555Y-70452166D01*
X145258670Y-70521411D01*
X145255179Y-70599681D01*
X145230514Y-70665959D01*
X145224438Y-70674372D01*
X145191832Y-70701438D01*
X145130979Y-70740473D01*
X145051120Y-70785872D01*
X144976864Y-70824453D01*
X144861210Y-70879533D01*
X144768760Y-70914422D01*
X144688844Y-70928980D01*
X144663202Y-70927038D01*
X144610795Y-70923070D01*
X144523947Y-70896553D01*
G37*
G36*
X147634828Y-74373159D02*
G01*
X147631986Y-74385466D01*
X147621027Y-74386960D01*
X147603988Y-74379386D01*
X147607227Y-74373159D01*
X147631794Y-74370682D01*
X147634828Y-74373159D01*
G37*
G36*
X146254768Y-69801712D02*
G01*
X146244418Y-69812062D01*
X146234067Y-69801712D01*
X146244418Y-69791361D01*
X146254768Y-69801712D01*
G37*
G36*
X147372616Y-65288916D02*
G01*
X147362266Y-65299267D01*
X147351915Y-65288916D01*
X147362266Y-65278566D01*
X147372616Y-65288916D01*
G37*
G36*
X144081174Y-65049828D02*
G01*
X144082793Y-64912588D01*
X144088801Y-64810153D01*
X144100927Y-64736011D01*
X144120900Y-64683650D01*
X144150448Y-64646559D01*
X144191298Y-64618227D01*
X144196482Y-64615405D01*
X144268088Y-64593151D01*
X144357026Y-64586890D01*
X144445149Y-64596168D01*
X144514307Y-64620532D01*
X144518974Y-64623446D01*
X144580317Y-64688357D01*
X144616331Y-64784619D01*
X144623829Y-64835862D01*
X144629748Y-64900331D01*
X144906673Y-64738217D01*
X145016850Y-64674728D01*
X145097516Y-64631031D01*
X145154095Y-64604699D01*
X145192010Y-64593303D01*
X145216682Y-64594413D01*
X145222361Y-64596848D01*
X145255825Y-64633084D01*
X145254463Y-64680237D01*
X145219042Y-64728070D01*
X145212156Y-64733665D01*
X145177131Y-64757134D01*
X145113844Y-64796223D01*
X145030103Y-64846231D01*
X144933717Y-64902456D01*
X144891594Y-64926650D01*
X144786349Y-64987490D01*
X144712155Y-65032661D01*
X144663702Y-65066299D01*
X144635681Y-65092535D01*
X144622783Y-65115503D01*
X144619699Y-65138295D01*
X144619397Y-65194684D01*
X144935086Y-65200398D01*
X145055757Y-65202885D01*
X145141240Y-65205874D01*
X145197750Y-65210281D01*
X145231498Y-65217020D01*
X145248697Y-65227006D01*
X145255560Y-65241153D01*
X145256743Y-65247756D01*
X145250027Y-65294411D01*
X145237077Y-65315034D01*
X145217397Y-65323241D01*
X145174363Y-65329673D01*
X145104557Y-65334480D01*
X145004560Y-65337810D01*
X144870953Y-65339810D01*
X144700317Y-65340630D01*
X144646308Y-65340668D01*
X144081174Y-65340668D01*
X144081174Y-65195762D01*
X144226080Y-65195762D01*
X144474491Y-65195762D01*
X144474491Y-64992893D01*
X144471763Y-64882443D01*
X144463831Y-64805928D01*
X144451071Y-64766801D01*
X144449650Y-64765183D01*
X144413350Y-64748450D01*
X144357534Y-64740456D01*
X144350285Y-64740342D01*
X144298006Y-64743938D01*
X144262763Y-64759184D01*
X144241267Y-64792769D01*
X144230229Y-64851381D01*
X144226359Y-64941710D01*
X144226080Y-64992893D01*
X144226080Y-65195762D01*
X144081174Y-65195762D01*
X144081174Y-65049828D01*
G37*
G36*
X145070597Y-61587391D02*
G01*
X145072205Y-61660353D01*
X145066534Y-61703308D01*
X145050999Y-61727385D01*
X145035732Y-61737473D01*
X144968855Y-61756827D01*
X144895675Y-61754712D01*
X144839543Y-61732959D01*
X144818663Y-61708372D01*
X144809221Y-61667145D01*
X144808995Y-61598108D01*
X144809710Y-61582878D01*
X144816056Y-61459250D01*
X145064466Y-61459250D01*
X145070597Y-61587391D01*
G37*
G36*
X144081174Y-68403373D02*
G01*
X144082793Y-68266133D01*
X144088801Y-68163698D01*
X144100927Y-68089556D01*
X144120900Y-68037195D01*
X144150448Y-68000105D01*
X144191298Y-67971772D01*
X144196482Y-67968950D01*
X144268088Y-67946697D01*
X144357026Y-67940435D01*
X144445149Y-67949713D01*
X144514307Y-67974078D01*
X144518974Y-67976991D01*
X144580317Y-68041902D01*
X144616331Y-68138164D01*
X144623829Y-68189407D01*
X144629748Y-68253876D01*
X144906673Y-68091762D01*
X145016850Y-68028273D01*
X145097516Y-67984577D01*
X145154095Y-67958244D01*
X145192010Y-67946848D01*
X145216682Y-67947958D01*
X145222361Y-67950393D01*
X145255825Y-67986629D01*
X145254463Y-68033782D01*
X145219042Y-68081615D01*
X145212156Y-68087210D01*
X145177131Y-68110679D01*
X145113844Y-68149768D01*
X145030103Y-68199776D01*
X144933717Y-68256001D01*
X144891594Y-68280196D01*
X144786349Y-68341035D01*
X144712155Y-68386207D01*
X144663702Y-68419844D01*
X144635681Y-68446081D01*
X144622783Y-68469048D01*
X144619699Y-68491841D01*
X144619397Y-68548229D01*
X144935086Y-68553943D01*
X145055757Y-68556430D01*
X145141240Y-68559419D01*
X145197750Y-68563826D01*
X145231498Y-68570565D01*
X145248697Y-68580551D01*
X145255560Y-68594698D01*
X145256743Y-68601301D01*
X145250027Y-68647956D01*
X145237077Y-68668579D01*
X145217397Y-68676786D01*
X145174363Y-68683219D01*
X145104557Y-68688025D01*
X145004560Y-68691355D01*
X144870953Y-68693356D01*
X144700317Y-68694175D01*
X144646308Y-68694214D01*
X144081174Y-68694214D01*
X144081174Y-68549307D01*
X144226080Y-68549307D01*
X144474491Y-68549307D01*
X144474491Y-68346438D01*
X144471763Y-68235989D01*
X144463831Y-68159473D01*
X144451071Y-68120347D01*
X144449650Y-68118729D01*
X144413350Y-68101995D01*
X144357534Y-68094001D01*
X144350285Y-68093888D01*
X144298006Y-68097483D01*
X144262763Y-68112729D01*
X144241267Y-68146314D01*
X144230229Y-68204927D01*
X144226359Y-68295255D01*
X144226080Y-68346438D01*
X144226080Y-68549307D01*
X144081174Y-68549307D01*
X144081174Y-68403373D01*
G37*
G36*
X146792991Y-63581092D02*
G01*
X146774626Y-63564325D01*
X146772290Y-63550041D01*
X146758336Y-63522151D01*
X146746414Y-63518335D01*
X146714709Y-63505139D01*
X146670641Y-63473603D01*
X146663611Y-63467576D01*
X146625754Y-63425150D01*
X146609389Y-63375121D01*
X146606683Y-63323324D01*
X146607296Y-63313985D01*
X146743506Y-63313985D01*
X146756342Y-63364144D01*
X146782848Y-63402710D01*
X146800864Y-63412060D01*
X146858892Y-63411136D01*
X146888788Y-63379908D01*
X146892643Y-63327648D01*
X146882072Y-63279545D01*
X146854803Y-63258617D01*
X146826289Y-63253395D01*
X146798814Y-63254976D01*
X146778283Y-63256157D01*
X146751104Y-63271364D01*
X146743506Y-63313985D01*
X146607296Y-63313985D01*
X146610353Y-63267420D01*
X146619647Y-63233685D01*
X146625339Y-63229177D01*
X146646569Y-63212944D01*
X146677023Y-63172362D01*
X146687442Y-63155540D01*
X146696687Y-63139002D01*
X146704517Y-63121002D01*
X146711051Y-63098167D01*
X146716406Y-63067124D01*
X146720699Y-63024498D01*
X146724048Y-62966916D01*
X146726568Y-62891003D01*
X146728379Y-62793386D01*
X146729597Y-62670691D01*
X146730340Y-62519545D01*
X146730725Y-62336572D01*
X146730868Y-62118400D01*
X146730889Y-61905928D01*
X146730849Y-61655561D01*
X146730657Y-61443281D01*
X146730201Y-61265771D01*
X146729368Y-61119715D01*
X146728047Y-61001798D01*
X146726126Y-60908703D01*
X146723494Y-60837117D01*
X146720039Y-60783721D01*
X146715649Y-60745201D01*
X146710212Y-60718242D01*
X146703616Y-60699526D01*
X146695750Y-60685739D01*
X146689487Y-60677318D01*
X146660564Y-60634078D01*
X146648096Y-60602609D01*
X146648085Y-60602073D01*
X146633438Y-60580455D01*
X146627384Y-60579462D01*
X146613701Y-60561264D01*
X146606862Y-60516517D01*
X146606683Y-60507009D01*
X146606801Y-60505921D01*
X146732833Y-60505921D01*
X146750814Y-60547943D01*
X146762553Y-60559270D01*
X146798814Y-60574990D01*
X146845357Y-60562249D01*
X146887051Y-60528617D01*
X146894629Y-60489358D01*
X146868358Y-60456496D01*
X146842763Y-60446259D01*
X146785665Y-60445417D01*
X146746736Y-60468525D01*
X146732833Y-60505921D01*
X146606801Y-60505921D01*
X146611883Y-60459120D01*
X146624667Y-60435182D01*
X146627384Y-60434556D01*
X146646404Y-60418095D01*
X146648085Y-60407408D01*
X146666912Y-60356885D01*
X146716022Y-60316169D01*
X146784354Y-60292826D01*
X146819674Y-60290007D01*
X146908148Y-60305792D01*
X146969159Y-60352436D01*
X147002875Y-60430129D01*
X147010351Y-60508134D01*
X147006621Y-60578773D01*
X146991545Y-60625174D01*
X146959295Y-60664130D01*
X146954713Y-60668438D01*
X146899075Y-60720001D01*
X146897188Y-61888534D01*
X146897066Y-62105467D01*
X146897393Y-62310528D01*
X146898132Y-62499883D01*
X146899248Y-62669697D01*
X146900704Y-62816135D01*
X146902465Y-62935364D01*
X146904495Y-63023549D01*
X146906757Y-63076855D01*
X146908463Y-63091370D01*
X146932887Y-63120830D01*
X146948438Y-63125672D01*
X146976586Y-63144336D01*
X146998623Y-63192707D01*
X147013100Y-63259352D01*
X147018569Y-63332840D01*
X147013579Y-63401740D01*
X146996684Y-63454618D01*
X146991194Y-63463006D01*
X146952331Y-63491362D01*
X146895007Y-63511086D01*
X146888348Y-63512292D01*
X146837107Y-63527720D01*
X146814013Y-63549827D01*
X146813692Y-63552749D01*
X146801596Y-63578512D01*
X146800864Y-63578731D01*
X146792991Y-63581092D01*
G37*
G36*
X146254768Y-73424368D02*
G01*
X146244418Y-73434719D01*
X146234067Y-73424368D01*
X146244418Y-73414018D01*
X146254768Y-73424368D01*
G37*
G36*
X147723038Y-74293198D02*
G01*
X147724532Y-74304156D01*
X147716957Y-74321196D01*
X147710731Y-74317957D01*
X147708254Y-74293390D01*
X147710731Y-74290356D01*
X147723038Y-74293198D01*
G37*
G36*
X148449063Y-62793430D02*
G01*
X148450682Y-62656190D01*
X148456690Y-62553755D01*
X148468816Y-62479613D01*
X148488789Y-62427252D01*
X148518337Y-62390162D01*
X148559187Y-62361829D01*
X148564371Y-62359007D01*
X148635977Y-62336754D01*
X148724915Y-62330492D01*
X148813038Y-62339770D01*
X148882196Y-62364135D01*
X148886864Y-62367048D01*
X148948206Y-62431959D01*
X148984220Y-62528221D01*
X148991718Y-62579465D01*
X148997637Y-62643933D01*
X149274562Y-62481819D01*
X149384739Y-62418330D01*
X149465406Y-62374634D01*
X149521985Y-62348301D01*
X149559899Y-62336905D01*
X149584572Y-62338015D01*
X149590251Y-62340450D01*
X149623714Y-62376686D01*
X149622353Y-62423840D01*
X149586931Y-62471672D01*
X149580045Y-62477267D01*
X149545020Y-62500736D01*
X149481733Y-62539825D01*
X149397992Y-62589833D01*
X149301606Y-62646059D01*
X149259483Y-62670253D01*
X149154238Y-62731092D01*
X149080044Y-62776264D01*
X149031591Y-62809901D01*
X149003570Y-62836138D01*
X148990672Y-62859105D01*
X148987588Y-62881898D01*
X148987286Y-62938286D01*
X149302975Y-62944000D01*
X149423646Y-62946487D01*
X149509129Y-62949476D01*
X149565639Y-62953883D01*
X149599387Y-62960622D01*
X149616586Y-62970608D01*
X149623450Y-62984755D01*
X149624632Y-62991358D01*
X149617916Y-63038013D01*
X149604966Y-63058636D01*
X149585286Y-63066843D01*
X149542252Y-63073276D01*
X149472446Y-63078082D01*
X149372449Y-63081412D01*
X149238842Y-63083413D01*
X149068206Y-63084232D01*
X149014197Y-63084271D01*
X148449063Y-63084271D01*
X148449063Y-62939364D01*
X148593969Y-62939364D01*
X148842380Y-62939364D01*
X148842380Y-62736496D01*
X148839652Y-62626046D01*
X148831720Y-62549530D01*
X148818960Y-62510404D01*
X148817539Y-62508786D01*
X148781239Y-62492052D01*
X148725423Y-62484058D01*
X148718175Y-62483945D01*
X148665895Y-62487540D01*
X148630652Y-62502786D01*
X148609156Y-62536371D01*
X148598118Y-62594984D01*
X148594249Y-62685312D01*
X148593969Y-62736496D01*
X148593969Y-62939364D01*
X148449063Y-62939364D01*
X148449063Y-62793430D01*
G37*
G36*
X144221473Y-63782926D02*
G01*
X144227217Y-64077914D01*
X144596805Y-64077914D01*
X144602926Y-63940344D01*
X144610039Y-63856152D01*
X144623500Y-63805327D01*
X144643538Y-63781112D01*
X144687639Y-63769388D01*
X144719459Y-63796267D01*
X144738304Y-63860602D01*
X144743603Y-63945893D01*
X144743603Y-64077914D01*
X145115082Y-64077914D01*
X145120826Y-63782926D01*
X145126569Y-63487938D01*
X145250774Y-63487938D01*
X145262080Y-64222820D01*
X144080219Y-64222820D01*
X144085871Y-63855379D01*
X144091524Y-63487938D01*
X144215730Y-63487938D01*
X144221473Y-63782926D01*
G37*
G36*
X146772290Y-63819152D02*
G01*
X146761940Y-63829503D01*
X146751589Y-63819152D01*
X146761940Y-63808802D01*
X146772290Y-63819152D01*
G37*
G36*
X146972399Y-65161261D02*
G01*
X146969557Y-65173567D01*
X146958598Y-65175061D01*
X146941559Y-65167487D01*
X146944798Y-65161261D01*
X146969365Y-65158783D01*
X146972399Y-65161261D01*
G37*
G36*
X148589362Y-74982111D02*
G01*
X148595106Y-75277099D01*
X148964694Y-75277099D01*
X148970815Y-75139529D01*
X148977929Y-75055337D01*
X148991389Y-75004512D01*
X149011427Y-74980297D01*
X149055528Y-74968573D01*
X149087348Y-74995452D01*
X149106193Y-75059787D01*
X149111492Y-75145078D01*
X149111492Y-75277099D01*
X149482971Y-75277099D01*
X149488715Y-74982111D01*
X149494458Y-74687123D01*
X149618664Y-74687123D01*
X149624317Y-75054564D01*
X149629969Y-75422005D01*
X148448108Y-75422005D01*
X148453761Y-75054564D01*
X148459413Y-74687123D01*
X148583619Y-74687123D01*
X148589362Y-74982111D01*
G37*
G36*
X147232137Y-66128269D02*
G01*
X147199797Y-66066866D01*
X147189701Y-65985124D01*
X147191420Y-65972774D01*
X147310514Y-65972774D01*
X147313525Y-66011375D01*
X147319171Y-66023798D01*
X147343505Y-66030238D01*
X147360573Y-66036363D01*
X147388250Y-66034441D01*
X147393317Y-66015662D01*
X147403517Y-65986716D01*
X147413368Y-65982396D01*
X147423246Y-65966514D01*
X147414162Y-65926839D01*
X147399220Y-65894361D01*
X147377675Y-65885760D01*
X147347871Y-65903006D01*
X147340442Y-65912240D01*
X147321566Y-65935704D01*
X147310514Y-65972774D01*
X147191420Y-65972774D01*
X147202812Y-65890908D01*
X147240090Y-65792085D01*
X147240526Y-65791223D01*
X147273087Y-65718050D01*
X147286194Y-65656121D01*
X147284221Y-65582825D01*
X147283089Y-65571317D01*
X147273725Y-65506567D01*
X147262042Y-65460215D01*
X147254327Y-65446113D01*
X147225538Y-65406875D01*
X147201647Y-65342185D01*
X147187846Y-65267992D01*
X147186457Y-65240237D01*
X147312968Y-65240237D01*
X147314275Y-65282958D01*
X147339101Y-65311510D01*
X147340442Y-65312051D01*
X147381050Y-65311028D01*
X147415187Y-65286650D01*
X147427470Y-65251521D01*
X147425311Y-65242505D01*
X147414915Y-65202933D01*
X147414018Y-65192629D01*
X147396840Y-65179239D01*
X147367441Y-65178797D01*
X147331814Y-65199974D01*
X147312968Y-65240237D01*
X147186457Y-65240237D01*
X147186308Y-65237256D01*
X147198250Y-65172768D01*
X147228509Y-65111675D01*
X147268734Y-65066799D01*
X147307712Y-65050856D01*
X147330013Y-65036674D01*
X147331215Y-65030155D01*
X147348553Y-65013336D01*
X147372616Y-65009454D01*
X147406255Y-65018123D01*
X147414018Y-65030155D01*
X147429964Y-65050018D01*
X147436198Y-65050856D01*
X147476261Y-65069114D01*
X147515429Y-65115368D01*
X147545643Y-65176835D01*
X147558845Y-65240734D01*
X147558924Y-65245516D01*
X147550441Y-65291876D01*
X147529200Y-65350096D01*
X147501514Y-65407060D01*
X147473697Y-65449654D01*
X147453330Y-65464874D01*
X147443881Y-65483761D01*
X147437183Y-65533205D01*
X147434719Y-65600370D01*
X147436953Y-65678322D01*
X147446180Y-65728687D01*
X147466181Y-65765159D01*
X147486471Y-65787619D01*
X147521454Y-65830573D01*
X147538018Y-65866595D01*
X147538224Y-65869482D01*
X147549704Y-65896421D01*
X147558924Y-65899593D01*
X147574153Y-65908674D01*
X147574867Y-65941145D01*
X147561650Y-66003349D01*
X147521441Y-66088798D01*
X147454936Y-66145546D01*
X147369028Y-66169644D01*
X147360573Y-66168814D01*
X147285761Y-66161468D01*
X147232137Y-66128269D01*
G37*
G36*
X147765933Y-72265118D02*
G01*
X147755583Y-72275469D01*
X147745233Y-72265118D01*
X147755583Y-72254768D01*
X147765933Y-72265118D01*
G37*
G36*
X147248411Y-66986390D02*
G01*
X147238061Y-66996740D01*
X147227710Y-66986390D01*
X147238061Y-66976039D01*
X147248411Y-66986390D01*
G37*
G36*
X149059513Y-67918032D02*
G01*
X149096524Y-67941897D01*
X149140087Y-67989159D01*
X149193693Y-68063396D01*
X149260832Y-68168181D01*
X149316333Y-68259267D01*
X149391034Y-68385174D01*
X149445010Y-68481077D01*
X149480268Y-68551576D01*
X149498814Y-68601271D01*
X149502655Y-68634762D01*
X149493798Y-68656648D01*
X149491008Y-68659712D01*
X149461295Y-68670712D01*
X149430180Y-68673513D01*
X149408082Y-68667352D01*
X149381976Y-68645715D01*
X149348216Y-68603868D01*
X149303158Y-68537079D01*
X149243160Y-68440615D01*
X149214996Y-68394051D01*
X149157265Y-68298885D01*
X149107080Y-68217631D01*
X149068223Y-68156297D01*
X149044476Y-68120890D01*
X149039039Y-68114588D01*
X149026286Y-68131375D01*
X148996124Y-68177739D01*
X148952324Y-68247686D01*
X148898661Y-68335220D01*
X148862369Y-68395234D01*
X148797990Y-68501306D01*
X148750314Y-68576590D01*
X148715250Y-68626098D01*
X148688708Y-68654842D01*
X148666598Y-68667836D01*
X148644830Y-68670093D01*
X148638560Y-68669521D01*
X148591667Y-68650573D01*
X148577391Y-68619538D01*
X148585811Y-68586769D01*
X148613013Y-68526765D01*
X148654726Y-68446682D01*
X148706679Y-68353677D01*
X148764601Y-68254905D01*
X148824222Y-68157522D01*
X148881271Y-68068685D01*
X148931477Y-67995548D01*
X148970569Y-67945268D01*
X148991184Y-67926194D01*
X149025563Y-67913990D01*
X149059513Y-67918032D01*
G37*
G36*
X144653999Y-69664070D02*
G01*
X144526245Y-69626419D01*
X144405270Y-69590213D01*
X144297700Y-69557388D01*
X144210159Y-69529875D01*
X144149273Y-69509609D01*
X144127751Y-69501504D01*
X144090469Y-69468023D01*
X144084934Y-69434298D01*
X144443440Y-69434298D01*
X144597942Y-69480467D01*
X144678926Y-69505154D01*
X144749649Y-69527574D01*
X144796260Y-69543322D01*
X144799776Y-69544631D01*
X144825986Y-69552382D01*
X144840136Y-69544647D01*
X144845936Y-69513136D01*
X144847102Y-69449555D01*
X144847107Y-69438933D01*
X144846320Y-69373621D01*
X144844276Y-69328900D01*
X144841932Y-69315517D01*
X144821232Y-69321212D01*
X144769625Y-69336333D01*
X144695826Y-69358308D01*
X144640098Y-69375046D01*
X144443440Y-69434298D01*
X144084934Y-69434298D01*
X144082968Y-69422322D01*
X144107050Y-69382224D01*
X144134368Y-69370307D01*
X144195079Y-69349440D01*
X144282623Y-69321524D01*
X144390436Y-69288462D01*
X144511959Y-69252154D01*
X144640629Y-69214502D01*
X144769886Y-69177407D01*
X144893168Y-69142770D01*
X145003913Y-69112492D01*
X145095560Y-69088476D01*
X145161548Y-69072621D01*
X145195316Y-69066830D01*
X145195476Y-69066830D01*
X145240098Y-69082975D01*
X145258951Y-69122154D01*
X145246680Y-69167905D01*
X145216036Y-69192140D01*
X145159652Y-69218914D01*
X145114005Y-69234842D01*
X145002364Y-69268434D01*
X144996384Y-69434706D01*
X144990405Y-69600979D01*
X145120590Y-69639738D01*
X145192557Y-69663359D01*
X145233294Y-69684334D01*
X145252028Y-69708811D01*
X145256900Y-69730529D01*
X145256318Y-69775557D01*
X145248275Y-69797311D01*
X145217251Y-69809610D01*
X145191871Y-69812062D01*
X145162572Y-69806340D01*
X145100301Y-69790462D01*
X145011683Y-69766363D01*
X144903343Y-69735975D01*
X144825986Y-69713844D01*
X144781907Y-69701233D01*
X144653999Y-69664070D01*
G37*
G36*
X144221473Y-73864262D02*
G01*
X144227217Y-74159250D01*
X144596805Y-74159250D01*
X144602926Y-74021680D01*
X144610039Y-73937489D01*
X144623500Y-73886663D01*
X144643538Y-73862449D01*
X144687639Y-73850725D01*
X144719459Y-73877604D01*
X144738304Y-73941939D01*
X144743603Y-74027229D01*
X144743603Y-74159250D01*
X145115082Y-74159250D01*
X145120826Y-73864262D01*
X145126569Y-73569275D01*
X145250774Y-73569275D01*
X145256427Y-73936716D01*
X145262080Y-74304156D01*
X144080219Y-74304156D01*
X144085871Y-73936716D01*
X144091524Y-73569275D01*
X144215730Y-73569275D01*
X144221473Y-73864262D01*
G37*
G36*
X145167082Y-75805976D02*
G01*
X145214548Y-75842011D01*
X145233728Y-75862165D01*
X145246778Y-75886388D01*
X145254870Y-75922471D01*
X145259176Y-75978207D01*
X145260867Y-76061386D01*
X145261125Y-76151737D01*
X145261125Y-76418833D01*
X145199284Y-76480674D01*
X145146570Y-76523209D01*
X145095395Y-76536968D01*
X145069903Y-76536009D01*
X145021563Y-76525298D01*
X145000590Y-76498070D01*
X144995758Y-76471997D01*
X144997915Y-76428921D01*
X145024656Y-76403695D01*
X145052685Y-76392344D01*
X145116219Y-76370196D01*
X145116219Y-76154862D01*
X145114831Y-76066215D01*
X145111080Y-75995485D01*
X145105584Y-75951211D01*
X145100693Y-75940505D01*
X145080644Y-75952995D01*
X145032787Y-75987513D01*
X144961857Y-76040500D01*
X144872593Y-76108394D01*
X144769730Y-76187633D01*
X144702201Y-76240118D01*
X144577444Y-76336849D01*
X144480271Y-76410565D01*
X144406065Y-76464275D01*
X144350209Y-76500990D01*
X144308087Y-76523716D01*
X144275081Y-76535464D01*
X144246574Y-76539242D01*
X144243108Y-76539304D01*
X144178449Y-76529889D01*
X144131611Y-76494455D01*
X144124078Y-76485309D01*
X144105742Y-76457752D01*
X144093467Y-76424766D01*
X144086072Y-76377894D01*
X144082380Y-76308680D01*
X144081210Y-76208666D01*
X144081174Y-76177588D01*
X144081860Y-76068790D01*
X144084727Y-75992867D01*
X144090990Y-75941303D01*
X144101865Y-75905583D01*
X144118566Y-75877192D01*
X144125294Y-75868320D01*
X144186967Y-75810833D01*
X144252087Y-75785704D01*
X144311495Y-75796019D01*
X144343193Y-75831022D01*
X144341959Y-75875711D01*
X144310216Y-75918231D01*
X144283008Y-75935288D01*
X144257679Y-75948680D01*
X144241261Y-75965313D01*
X144231822Y-75993490D01*
X144227430Y-76041512D01*
X144226154Y-76117682D01*
X144226080Y-76179939D01*
X144227182Y-76279891D01*
X144230930Y-76343691D01*
X144237989Y-76376543D01*
X144249026Y-76383648D01*
X144251956Y-76382330D01*
X144275503Y-76365688D01*
X144326619Y-76327729D01*
X144400071Y-76272400D01*
X144490631Y-76203645D01*
X144593064Y-76125413D01*
X144627983Y-76098649D01*
X144735190Y-76017014D01*
X144834302Y-75942684D01*
X144919573Y-75879878D01*
X144985257Y-75832814D01*
X145025608Y-75805713D01*
X145031650Y-75802242D01*
X145099537Y-75784844D01*
X145167082Y-75805976D01*
G37*
G36*
X144084822Y-71766757D02*
G01*
X144091524Y-71465055D01*
X144178702Y-71383791D01*
X144227337Y-71340698D01*
X144266929Y-71316372D01*
X144312631Y-71305459D01*
X144379595Y-71302610D01*
X144408795Y-71302527D01*
X144496009Y-71305685D01*
X144554793Y-71316940D01*
X144597760Y-71338964D01*
X144604345Y-71343928D01*
X144644768Y-71372600D01*
X144670524Y-71385295D01*
X144671149Y-71385330D01*
X144695716Y-71373725D01*
X144735782Y-71345627D01*
X144737954Y-71343928D01*
X144779497Y-71319826D01*
X144834730Y-71306942D01*
X144916267Y-71302606D01*
X144933504Y-71302527D01*
X145010757Y-71303895D01*
X145061772Y-71311569D01*
X145101700Y-71330899D01*
X145145694Y-71367238D01*
X145163597Y-71383791D01*
X145250774Y-71465055D01*
X145257477Y-71766757D01*
X145264179Y-72068460D01*
X144078119Y-72068460D01*
X144081798Y-71902853D01*
X144226080Y-71902853D01*
X144598696Y-71902853D01*
X144743603Y-71902853D01*
X145116219Y-71902853D01*
X145116219Y-71725954D01*
X145115100Y-71637674D01*
X145110131Y-71579915D01*
X145098887Y-71541819D01*
X145078946Y-71512529D01*
X145065407Y-71498244D01*
X145009324Y-71459711D01*
X144936590Y-71447486D01*
X144929911Y-71447433D01*
X144855159Y-71457963D01*
X144798478Y-71494269D01*
X144794414Y-71498244D01*
X144769378Y-71527173D01*
X144754215Y-71559638D01*
X144746502Y-71606497D01*
X144743817Y-71678605D01*
X144743603Y-71725954D01*
X144743603Y-71902853D01*
X144598696Y-71902853D01*
X144598696Y-71725954D01*
X144597578Y-71637674D01*
X144592608Y-71579915D01*
X144581364Y-71541819D01*
X144561423Y-71512529D01*
X144547885Y-71498244D01*
X144491802Y-71459711D01*
X144419067Y-71447486D01*
X144412388Y-71447433D01*
X144337636Y-71457963D01*
X144280956Y-71494269D01*
X144276891Y-71498244D01*
X144251856Y-71527173D01*
X144236693Y-71559638D01*
X144228980Y-71606497D01*
X144226295Y-71678605D01*
X144226080Y-71725954D01*
X144226080Y-71902853D01*
X144081798Y-71902853D01*
X144084822Y-71766757D01*
G37*
G36*
X148981461Y-63478246D02*
G01*
X149145159Y-63478605D01*
X149272728Y-63479797D01*
X149369444Y-63482704D01*
X149440581Y-63488207D01*
X149491412Y-63497186D01*
X149527211Y-63510523D01*
X149553254Y-63529098D01*
X149574813Y-63553794D01*
X149593738Y-63580523D01*
X149610691Y-63614656D01*
X149621469Y-63663552D01*
X149627198Y-63735829D01*
X149629005Y-63840105D01*
X149629014Y-63850204D01*
X149627475Y-63957446D01*
X149622105Y-64031992D01*
X149611778Y-64082459D01*
X149595366Y-64117467D01*
X149593738Y-64119885D01*
X149571822Y-64150531D01*
X149549947Y-64174303D01*
X149522839Y-64192080D01*
X149485224Y-64204744D01*
X149431828Y-64213175D01*
X149357376Y-64218255D01*
X149256595Y-64220864D01*
X149124210Y-64221884D01*
X148981461Y-64222162D01*
X148821152Y-64222121D01*
X148697430Y-64221333D01*
X148605483Y-64219494D01*
X148540500Y-64216301D01*
X148497669Y-64211450D01*
X148472177Y-64204636D01*
X148459213Y-64195557D01*
X148455469Y-64188955D01*
X148454579Y-64143665D01*
X148463535Y-64121677D01*
X148475099Y-64110721D01*
X148497623Y-64102229D01*
X148536155Y-64095801D01*
X148595741Y-64091039D01*
X148681428Y-64087543D01*
X148798262Y-64084915D01*
X148951290Y-64082757D01*
X148956834Y-64082691D01*
X149131188Y-64079608D01*
X149270034Y-64074940D01*
X149371822Y-64068774D01*
X149435000Y-64061199D01*
X149456590Y-64054280D01*
X149472075Y-64022701D01*
X149481094Y-63957014D01*
X149484105Y-63853807D01*
X149484108Y-63850204D01*
X149481264Y-63745853D01*
X149472427Y-63679121D01*
X149457137Y-63646597D01*
X149456590Y-63646127D01*
X149424992Y-63637502D01*
X149353562Y-63630216D01*
X149243850Y-63624358D01*
X149097404Y-63620016D01*
X148956834Y-63617716D01*
X148802566Y-63615566D01*
X148684653Y-63612960D01*
X148598049Y-63609498D01*
X148537707Y-63604782D01*
X148498580Y-63598414D01*
X148475622Y-63589994D01*
X148463786Y-63579123D01*
X148463535Y-63578731D01*
X148451805Y-63533608D01*
X148455469Y-63511453D01*
X148463263Y-63500881D01*
X148480720Y-63492756D01*
X148512655Y-63486774D01*
X148563878Y-63482631D01*
X148639201Y-63480023D01*
X148743437Y-63478646D01*
X148881397Y-63478197D01*
X148981461Y-63478246D01*
G37*
G36*
X145070597Y-66079486D02*
G01*
X145072205Y-66152447D01*
X145066534Y-66195403D01*
X145050999Y-66219480D01*
X145035732Y-66229567D01*
X144968855Y-66248922D01*
X144895675Y-66246806D01*
X144839543Y-66225054D01*
X144818663Y-66200467D01*
X144809221Y-66159240D01*
X144808995Y-66090203D01*
X144809710Y-66074972D01*
X144816056Y-65951345D01*
X145064466Y-65951345D01*
X145070597Y-66079486D01*
G37*
G36*
X146253274Y-76094176D02*
G01*
X146254768Y-76105134D01*
X146247194Y-76122174D01*
X146240967Y-76118935D01*
X146238490Y-76094368D01*
X146240967Y-76091334D01*
X146253274Y-76094176D01*
G37*
G36*
X147495328Y-73175349D02*
G01*
X147496822Y-73186308D01*
X147489248Y-73203347D01*
X147483021Y-73200109D01*
X147480544Y-73175542D01*
X147483021Y-73172507D01*
X147495328Y-73175349D01*
G37*
G36*
X144222216Y-67498737D02*
G01*
X144212881Y-67545360D01*
X144188720Y-67563451D01*
X144153627Y-67566015D01*
X144091524Y-67566015D01*
X144085665Y-67357491D01*
X144084690Y-67252353D01*
X144086520Y-67232931D01*
X144226060Y-67232931D01*
X144239280Y-67246228D01*
X144272462Y-67255376D01*
X144330004Y-67261143D01*
X144416300Y-67264299D01*
X144535747Y-67265611D01*
X144671149Y-67265852D01*
X144817653Y-67265706D01*
X144927900Y-67264950D01*
X145007038Y-67263107D01*
X145060213Y-67259702D01*
X145092569Y-67254257D01*
X145109253Y-67246296D01*
X145115412Y-67235343D01*
X145116219Y-67224639D01*
X145106789Y-67200708D01*
X145075093Y-67172218D01*
X145016021Y-67135586D01*
X144924463Y-67087228D01*
X144909586Y-67079732D01*
X144823340Y-67037823D01*
X144748602Y-67004033D01*
X144694288Y-66982240D01*
X144671112Y-66976039D01*
X144638360Y-66985235D01*
X144579923Y-67009524D01*
X144505693Y-67043954D01*
X144425561Y-67083577D01*
X144349419Y-67123443D01*
X144287158Y-67158602D01*
X144248669Y-67184103D01*
X144241923Y-67190817D01*
X144228406Y-67214717D01*
X144226060Y-67232931D01*
X144086520Y-67232931D01*
X144092116Y-67173557D01*
X144113281Y-67113229D01*
X144153518Y-67063495D01*
X144218165Y-67016482D01*
X144312557Y-66964316D01*
X144372847Y-66933703D01*
X144488496Y-66878572D01*
X144580761Y-66844793D01*
X144661082Y-66832339D01*
X144740893Y-66841186D01*
X144831633Y-66871310D01*
X144944737Y-66922684D01*
X144964714Y-66932405D01*
X145076912Y-66989263D01*
X145156596Y-67037623D01*
X145209297Y-67085314D01*
X145240547Y-67140169D01*
X145255877Y-67210019D01*
X145260817Y-67302696D01*
X145261125Y-67352097D01*
X145259739Y-67451485D01*
X145254969Y-67516206D01*
X145245896Y-67552921D01*
X145231600Y-67568291D01*
X145231283Y-67568415D01*
X145172792Y-67575654D01*
X145134308Y-67547107D01*
X145120082Y-67498567D01*
X145113596Y-67431459D01*
X144228703Y-67431459D01*
X144222216Y-67498737D01*
G37*
G36*
X144653999Y-77509709D02*
G01*
X144526245Y-77472058D01*
X144405270Y-77435853D01*
X144297700Y-77403028D01*
X144210159Y-77375515D01*
X144149273Y-77355249D01*
X144127751Y-77347144D01*
X144090469Y-77313663D01*
X144084934Y-77279938D01*
X144443440Y-77279938D01*
X144597942Y-77326107D01*
X144678926Y-77350794D01*
X144749649Y-77373213D01*
X144796260Y-77388962D01*
X144799776Y-77390271D01*
X144825986Y-77398021D01*
X144840136Y-77390287D01*
X144845936Y-77358776D01*
X144847102Y-77295194D01*
X144847107Y-77284573D01*
X144846320Y-77219261D01*
X144844276Y-77174540D01*
X144841932Y-77161157D01*
X144821232Y-77166852D01*
X144769625Y-77181973D01*
X144695826Y-77203948D01*
X144640098Y-77220686D01*
X144443440Y-77279938D01*
X144084934Y-77279938D01*
X144082968Y-77267961D01*
X144107050Y-77227864D01*
X144134368Y-77215946D01*
X144195079Y-77195079D01*
X144282623Y-77167164D01*
X144390436Y-77134102D01*
X144511959Y-77097794D01*
X144640629Y-77060142D01*
X144769886Y-77023047D01*
X144893168Y-76988410D01*
X145003913Y-76958132D01*
X145095560Y-76934116D01*
X145161548Y-76918261D01*
X145195316Y-76912470D01*
X145195476Y-76912469D01*
X145240098Y-76928615D01*
X145258951Y-76967794D01*
X145246680Y-77013545D01*
X145216036Y-77037779D01*
X145159652Y-77064554D01*
X145114005Y-77080482D01*
X145002364Y-77114074D01*
X144996384Y-77280346D01*
X144990405Y-77446618D01*
X145120590Y-77485378D01*
X145192557Y-77508999D01*
X145233294Y-77529974D01*
X145252028Y-77554451D01*
X145256900Y-77576169D01*
X145256318Y-77621196D01*
X145248275Y-77642951D01*
X145217251Y-77655249D01*
X145191871Y-77657702D01*
X145162572Y-77651980D01*
X145100301Y-77636102D01*
X145011683Y-77612003D01*
X144903343Y-77581615D01*
X144825986Y-77559484D01*
X144781907Y-77546873D01*
X144653999Y-77509709D01*
G37*
G36*
X148652380Y-61224963D02*
G01*
X148697936Y-61239106D01*
X148714885Y-61267857D01*
X148709396Y-61315453D01*
X148709379Y-61315520D01*
X148685735Y-61356119D01*
X148645327Y-61366096D01*
X148610582Y-61371580D01*
X148596360Y-61396134D01*
X148593969Y-61438549D01*
X148593969Y-61511002D01*
X149086651Y-61511002D01*
X149250728Y-61511367D01*
X149378034Y-61512933D01*
X149473199Y-61516406D01*
X149540852Y-61522493D01*
X149585620Y-61531900D01*
X149612133Y-61545336D01*
X149625018Y-61563505D01*
X149628906Y-61587115D01*
X149629014Y-61593806D01*
X149615203Y-61637272D01*
X149604173Y-61651769D01*
X149581632Y-61660426D01*
X149531418Y-61667074D01*
X149450511Y-61671857D01*
X149335891Y-61674921D01*
X149184539Y-61676409D01*
X149086651Y-61676610D01*
X148593969Y-61676610D01*
X148593969Y-61749063D01*
X148597856Y-61798080D01*
X148615262Y-61818143D01*
X148645327Y-61821516D01*
X148689879Y-61834765D01*
X148709379Y-61872092D01*
X148714891Y-61919712D01*
X148697971Y-61948482D01*
X148652451Y-61962640D01*
X148572162Y-61966422D01*
X148449063Y-61966422D01*
X148449063Y-61221190D01*
X148572047Y-61221190D01*
X148652380Y-61224963D01*
G37*
G36*
X144081174Y-72874767D02*
G01*
X144082793Y-72737527D01*
X144088801Y-72635092D01*
X144100927Y-72560950D01*
X144120900Y-72508589D01*
X144150448Y-72471498D01*
X144191298Y-72443166D01*
X144196482Y-72440344D01*
X144268088Y-72418090D01*
X144357026Y-72411829D01*
X144445149Y-72421107D01*
X144514307Y-72445471D01*
X144518974Y-72448385D01*
X144580317Y-72513296D01*
X144616331Y-72609558D01*
X144623829Y-72660801D01*
X144629748Y-72725270D01*
X144906673Y-72563156D01*
X145016850Y-72499667D01*
X145097516Y-72455970D01*
X145154095Y-72429638D01*
X145192010Y-72418241D01*
X145216682Y-72419352D01*
X145222361Y-72421787D01*
X145255825Y-72458023D01*
X145254463Y-72505176D01*
X145219042Y-72553009D01*
X145212156Y-72558603D01*
X145177131Y-72582073D01*
X145113844Y-72621162D01*
X145030103Y-72671170D01*
X144933717Y-72727395D01*
X144891594Y-72751589D01*
X144786349Y-72812428D01*
X144712155Y-72857600D01*
X144663702Y-72891238D01*
X144635681Y-72917474D01*
X144622783Y-72940442D01*
X144619699Y-72963234D01*
X144619397Y-73019623D01*
X144935086Y-73025337D01*
X145055757Y-73027824D01*
X145141240Y-73030813D01*
X145197750Y-73035220D01*
X145231498Y-73041959D01*
X145248697Y-73051944D01*
X145255560Y-73066092D01*
X145256743Y-73072695D01*
X145250027Y-73119350D01*
X145237077Y-73139973D01*
X145217397Y-73148180D01*
X145174363Y-73154612D01*
X145104557Y-73159419D01*
X145004560Y-73162749D01*
X144870953Y-73164749D01*
X144700317Y-73165569D01*
X144646308Y-73165607D01*
X144081174Y-73165607D01*
X144081174Y-73020701D01*
X144226080Y-73020701D01*
X144474491Y-73020701D01*
X144474491Y-72817832D01*
X144471763Y-72707382D01*
X144463831Y-72630867D01*
X144451071Y-72591740D01*
X144449650Y-72590122D01*
X144413350Y-72573388D01*
X144357534Y-72565395D01*
X144350285Y-72565281D01*
X144298006Y-72568877D01*
X144262763Y-72584123D01*
X144241267Y-72617708D01*
X144230229Y-72676320D01*
X144226359Y-72766649D01*
X144226080Y-72817832D01*
X144226080Y-73020701D01*
X144081174Y-73020701D01*
X144081174Y-72874767D01*
G37*
G36*
X148595861Y-77202282D02*
G01*
X149482216Y-77202282D01*
X149494458Y-76922820D01*
X149618664Y-76922820D01*
X149624330Y-77280372D01*
X149625920Y-77413168D01*
X149625611Y-77510122D01*
X149623031Y-77576765D01*
X149617812Y-77618626D01*
X149609585Y-77641236D01*
X149599663Y-77649563D01*
X149553185Y-77656046D01*
X149531894Y-77654063D01*
X149511118Y-77643162D01*
X149498446Y-77614288D01*
X149491214Y-77558467D01*
X149488337Y-77507406D01*
X149482216Y-77367889D01*
X148595861Y-77367889D01*
X148583619Y-77647351D01*
X148459413Y-77647351D01*
X148459413Y-76922820D01*
X148583619Y-76922820D01*
X148595861Y-77202282D01*
G37*
G36*
X148529756Y-64588325D02*
G01*
X148553908Y-64601028D01*
X148586579Y-64628935D01*
X148631488Y-64675543D01*
X148692352Y-64744352D01*
X148772891Y-64838860D01*
X148852730Y-64933824D01*
X148917491Y-65009176D01*
X148973860Y-65071270D01*
X149016062Y-65113984D01*
X149038321Y-65131198D01*
X149039039Y-65131291D01*
X149058600Y-65116200D01*
X149099771Y-65074419D01*
X149157756Y-65011146D01*
X149227762Y-64931583D01*
X149286903Y-64862418D01*
X149372552Y-64762118D01*
X149436792Y-64689996D01*
X149484055Y-64641885D01*
X149518774Y-64613617D01*
X149545384Y-64601024D01*
X149566366Y-64599683D01*
X149606896Y-64610523D01*
X149625199Y-64633259D01*
X149619886Y-64671140D01*
X149589569Y-64727411D01*
X149532861Y-64805320D01*
X149448373Y-64908113D01*
X149420653Y-64940515D01*
X149209847Y-65185412D01*
X149403200Y-65191423D01*
X149506676Y-65197352D01*
X149577361Y-65207368D01*
X149611210Y-65220873D01*
X149612466Y-65222474D01*
X149627364Y-65268223D01*
X149623413Y-65313262D01*
X149615214Y-65326868D01*
X149590074Y-65331975D01*
X149530398Y-65335934D01*
X149442709Y-65338789D01*
X149333529Y-65340587D01*
X149209382Y-65341372D01*
X149076790Y-65341191D01*
X148942277Y-65340089D01*
X148812365Y-65338111D01*
X148693577Y-65335303D01*
X148592436Y-65331711D01*
X148515465Y-65327380D01*
X148469188Y-65322355D01*
X148458686Y-65318791D01*
X148452835Y-65283320D01*
X148457671Y-65247085D01*
X148465653Y-65224032D01*
X148481076Y-65209128D01*
X148512126Y-65200224D01*
X148566988Y-65195171D01*
X148653845Y-65191818D01*
X148669952Y-65191334D01*
X148869727Y-65185412D01*
X148659395Y-64940782D01*
X148586800Y-64853923D01*
X148525049Y-64775412D01*
X148478860Y-64711620D01*
X148452956Y-64668918D01*
X148449063Y-64656873D01*
X148465746Y-64616957D01*
X148492143Y-64594538D01*
X148510408Y-64587328D01*
X148529756Y-64588325D01*
G37*
G36*
X149200893Y-78030526D02*
G01*
X149335566Y-78031322D01*
X149437875Y-78032965D01*
X149512336Y-78035711D01*
X149563469Y-78039819D01*
X149595791Y-78045547D01*
X149613820Y-78053153D01*
X149622073Y-78062894D01*
X149622608Y-78064183D01*
X149623503Y-78109479D01*
X149614555Y-78131461D01*
X149602557Y-78142606D01*
X149578911Y-78151380D01*
X149538549Y-78158240D01*
X149476401Y-78163646D01*
X149387400Y-78168057D01*
X149266475Y-78171932D01*
X149131410Y-78175224D01*
X148669311Y-78185575D01*
X148761021Y-78247677D01*
X148823206Y-78285490D01*
X148879716Y-78312806D01*
X148902269Y-78320130D01*
X148958594Y-78346587D01*
X148983125Y-78388304D01*
X148975913Y-78434083D01*
X148937008Y-78472726D01*
X148901519Y-78487042D01*
X148854025Y-78506548D01*
X148791606Y-78540528D01*
X148759669Y-78560561D01*
X148669367Y-78620293D01*
X149121692Y-78625882D01*
X149290412Y-78629034D01*
X149424807Y-78633835D01*
X149522976Y-78640173D01*
X149583019Y-78647936D01*
X149601515Y-78654293D01*
X149627757Y-78697215D01*
X149618809Y-78742252D01*
X149577615Y-78775399D01*
X149575914Y-78776063D01*
X149540933Y-78781635D01*
X149470550Y-78786596D01*
X149370764Y-78790740D01*
X149247575Y-78793862D01*
X149106980Y-78795757D01*
X148985939Y-78796251D01*
X148449063Y-78796251D01*
X148449244Y-78687571D01*
X148449425Y-78578892D01*
X148573449Y-78498984D01*
X148634393Y-78457982D01*
X148678649Y-78424896D01*
X148697347Y-78406396D01*
X148697474Y-78405709D01*
X148681532Y-78388502D01*
X148639531Y-78355648D01*
X148580210Y-78313937D01*
X148573839Y-78309659D01*
X148509771Y-78265621D01*
X148472799Y-78233375D01*
X148455418Y-78201983D01*
X148450121Y-78160504D01*
X148449634Y-78128647D01*
X148449063Y-78030318D01*
X149029338Y-78030318D01*
X149200893Y-78030526D01*
G37*
G36*
X146641185Y-63070470D02*
G01*
X146638343Y-63082777D01*
X146627384Y-63084271D01*
X146610345Y-63076696D01*
X146613584Y-63070470D01*
X146638151Y-63067993D01*
X146641185Y-63070470D01*
G37*
G36*
X146378973Y-73217359D02*
G01*
X146368623Y-73227710D01*
X146358272Y-73217359D01*
X146368623Y-73207009D01*
X146378973Y-73217359D01*
G37*
G36*
X148539128Y-70174051D02*
G01*
X148595237Y-70202152D01*
X148675768Y-70245102D01*
X148775155Y-70299719D01*
X148887828Y-70362825D01*
X149008221Y-70431238D01*
X149130767Y-70501781D01*
X149249897Y-70571272D01*
X149360044Y-70636531D01*
X149455640Y-70694380D01*
X149531119Y-70741638D01*
X149572087Y-70768852D01*
X149615030Y-70813235D01*
X149629578Y-70860568D01*
X149615214Y-70895409D01*
X149596957Y-70905455D01*
X149568767Y-70905479D01*
X149527048Y-70893784D01*
X149468202Y-70868671D01*
X149388631Y-70828440D01*
X149284737Y-70771393D01*
X149152924Y-70695832D01*
X148989593Y-70600058D01*
X148989087Y-70599759D01*
X148855846Y-70520947D01*
X148734378Y-70448831D01*
X148629209Y-70386118D01*
X148544863Y-70335515D01*
X148485864Y-70299731D01*
X148456737Y-70281472D01*
X148454540Y-70279859D01*
X148451196Y-70254248D01*
X148457322Y-70216693D01*
X148482893Y-70173038D01*
X148513009Y-70163977D01*
X148539128Y-70174051D01*
G37*
G36*
X147683130Y-63301630D02*
G01*
X147672779Y-63311980D01*
X147662429Y-63301630D01*
X147672779Y-63291280D01*
X147683130Y-63301630D01*
G37*
G36*
X144284490Y-74680546D02*
G01*
X144330047Y-74694689D01*
X144346996Y-74723440D01*
X144341506Y-74771036D01*
X144341490Y-74771103D01*
X144317846Y-74811701D01*
X144277438Y-74821679D01*
X144242693Y-74827162D01*
X144228471Y-74851717D01*
X144226080Y-74894132D01*
X144226080Y-74966585D01*
X144718761Y-74966585D01*
X144882838Y-74966950D01*
X145010145Y-74968516D01*
X145105310Y-74971988D01*
X145172963Y-74978075D01*
X145217731Y-74987483D01*
X145244243Y-75000918D01*
X145257129Y-75019087D01*
X145261017Y-75042697D01*
X145261125Y-75049389D01*
X145247314Y-75092855D01*
X145236284Y-75107351D01*
X145213743Y-75116009D01*
X145163529Y-75122657D01*
X145082622Y-75127440D01*
X144968002Y-75130503D01*
X144816650Y-75131992D01*
X144718761Y-75132192D01*
X144226080Y-75132192D01*
X144226080Y-75204645D01*
X144229967Y-75253662D01*
X144247372Y-75273725D01*
X144277438Y-75277099D01*
X144321989Y-75290348D01*
X144341490Y-75327674D01*
X144347002Y-75375294D01*
X144330082Y-75404065D01*
X144284562Y-75418223D01*
X144204273Y-75422005D01*
X144081174Y-75422005D01*
X144081174Y-74676773D01*
X144204158Y-74676773D01*
X144284490Y-74680546D01*
G37*
G36*
X144833004Y-78030526D02*
G01*
X144967677Y-78031322D01*
X145069986Y-78032965D01*
X145144447Y-78035711D01*
X145195580Y-78039819D01*
X145227902Y-78045547D01*
X145245931Y-78053153D01*
X145254184Y-78062894D01*
X145254719Y-78064183D01*
X145255614Y-78109479D01*
X145246666Y-78131461D01*
X145234668Y-78142606D01*
X145211022Y-78151380D01*
X145170660Y-78158240D01*
X145108512Y-78163646D01*
X145019511Y-78168057D01*
X144898586Y-78171932D01*
X144763520Y-78175224D01*
X144301422Y-78185575D01*
X144393132Y-78247677D01*
X144455316Y-78285490D01*
X144511827Y-78312806D01*
X144534380Y-78320130D01*
X144590705Y-78346587D01*
X144615236Y-78388304D01*
X144608024Y-78434083D01*
X144569118Y-78472726D01*
X144533630Y-78487042D01*
X144486136Y-78506548D01*
X144423717Y-78540528D01*
X144391779Y-78560561D01*
X144301478Y-78620293D01*
X144753802Y-78625882D01*
X144922523Y-78629034D01*
X145056918Y-78633835D01*
X145155087Y-78640173D01*
X145215130Y-78647936D01*
X145233626Y-78654293D01*
X145259868Y-78697215D01*
X145250920Y-78742252D01*
X145209726Y-78775399D01*
X145208025Y-78776063D01*
X145173043Y-78781635D01*
X145102660Y-78786596D01*
X145002875Y-78790740D01*
X144879685Y-78793862D01*
X144739090Y-78795757D01*
X144618050Y-78796251D01*
X144081174Y-78796251D01*
X144081355Y-78687571D01*
X144081536Y-78578892D01*
X144205560Y-78498984D01*
X144266504Y-78457982D01*
X144310760Y-78424896D01*
X144329458Y-78406396D01*
X144329585Y-78405709D01*
X144313643Y-78388502D01*
X144271642Y-78355648D01*
X144212321Y-78313937D01*
X144205950Y-78309659D01*
X144141882Y-78265621D01*
X144104910Y-78233375D01*
X144087529Y-78201983D01*
X144082232Y-78160504D01*
X144081745Y-78128647D01*
X144081174Y-78030318D01*
X144661449Y-78030318D01*
X144833004Y-78030526D01*
G37*
X92340682Y-90247673D02*
X99960682Y-90247673D01*
X92340682Y-80087673D02*
X92340682Y-90247673D01*
X93610682Y-90247673D02*
X93610682Y-80087673D01*
X99960682Y-80087673D02*
X92340682Y-80087673D01*
X99960682Y-90247673D02*
X99960682Y-80087673D01*
X102424592Y-53413501D02*
X103754592Y-53413501D01*
X101094592Y-56013501D02*
X101094592Y-63693501D01*
X101094592Y-63693501D02*
X103754592Y-63693501D01*
X103754592Y-56013501D02*
X103754592Y-63693501D01*
X103754592Y-53413501D02*
X103754592Y-54743501D01*
X101094592Y-56013501D02*
X103754592Y-56013501D01*
X126745000Y-89305000D02*
X131885000Y-89305000D01*
X124145000Y-87975000D02*
X124145000Y-86645000D01*
X126745000Y-89305000D02*
X126745000Y-86645000D01*
X131885000Y-89305000D02*
X131885000Y-86645000D01*
X126745000Y-86645000D02*
X131885000Y-86645000D01*
X124145000Y-86645000D02*
X125475000Y-86645000D01*
X99810000Y-53460000D02*
X92190000Y-53460000D01*
X93460000Y-63620000D02*
X93460000Y-53460000D01*
X92190000Y-63620000D02*
X99810000Y-63620000D01*
X92190000Y-53460000D02*
X92190000Y-63620000D01*
X99810000Y-63620000D02*
X99810000Y-53460000D01*
D10*
X112300000Y-69990000D02*
X107220000Y-69990000D01*
X139732000Y-75070000D02*
X135160000Y-75070000D01*
X142780000Y-64910000D02*
X142780000Y-82690000D01*
X129445000Y-78880000D02*
X119285000Y-78880000D01*
X129445000Y-78880000D02*
X129445000Y-68720000D01*
X129445000Y-68720000D02*
X119285000Y-68720000D01*
X105950000Y-77610000D02*
X105950000Y-69990000D01*
X130080000Y-68720000D02*
X132620000Y-68720000D01*
X112300000Y-77610000D02*
X107220000Y-77610000D01*
X105950000Y-69990000D02*
X107220000Y-69990000D01*
X107220000Y-77610000D02*
X105950000Y-77610000D01*
X130080000Y-71895000D02*
X130080000Y-68720000D01*
X132620000Y-71895000D02*
X130080000Y-71895000D01*
X135160000Y-75070000D02*
X135160000Y-72530000D01*
X135160000Y-72530000D02*
X139732000Y-72530000D01*
X107220000Y-82690000D02*
X107220000Y-64910000D01*
X119285000Y-68720000D02*
X119285000Y-78880000D01*
X132620000Y-68720000D02*
X132620000Y-71895000D01*
X107220000Y-64910000D02*
X142780000Y-64910000D01*
X142780000Y-82690000D02*
X107220000Y-82690000D01*
X139732000Y-72530000D02*
X139732000Y-75070000D01*
X112300000Y-77610000D02*
X112300000Y-69990000D01*
G36*
X121952000Y-73673000D02*
G01*
X121698000Y-73927000D01*
X121444000Y-73546000D01*
X121698000Y-73292000D01*
X121952000Y-73673000D01*
G37*
D12*
X121952000Y-73673000D02*
X121698000Y-73927000D01*
X121444000Y-73546000D01*
X121698000Y-73292000D01*
X121952000Y-73673000D01*
G36*
X121571000Y-74054000D02*
G01*
X121317000Y-74308000D01*
X121063000Y-73927000D01*
X121317000Y-73673000D01*
X121571000Y-74054000D01*
G37*
X121571000Y-74054000D02*
X121317000Y-74308000D01*
X121063000Y-73927000D01*
X121317000Y-73673000D01*
X121571000Y-74054000D01*
G36*
X122714000Y-73800000D02*
G01*
X122460000Y-74054000D01*
X122206000Y-73673000D01*
X122460000Y-73419000D01*
X122714000Y-73800000D01*
G37*
X122714000Y-73800000D02*
X122460000Y-74054000D01*
X122206000Y-73673000D01*
X122460000Y-73419000D01*
X122714000Y-73800000D01*
G36*
X123095000Y-74308000D02*
G01*
X122841000Y-74562000D01*
X122587000Y-74181000D01*
X122841000Y-73927000D01*
X123095000Y-74308000D01*
G37*
X123095000Y-74308000D02*
X122841000Y-74562000D01*
X122587000Y-74181000D01*
X122841000Y-73927000D01*
X123095000Y-74308000D01*
G36*
X123476000Y-73927000D02*
G01*
X123222000Y-74181000D01*
X122968000Y-73800000D01*
X123222000Y-73546000D01*
X123476000Y-73927000D01*
G37*
X123476000Y-73927000D02*
X123222000Y-74181000D01*
X122968000Y-73800000D01*
X123222000Y-73546000D01*
X123476000Y-73927000D01*
G36*
X122333000Y-73292000D02*
G01*
X122079000Y-73546000D01*
X121825000Y-73165000D01*
X122079000Y-72911000D01*
X122333000Y-73292000D01*
G37*
X122333000Y-73292000D02*
X122079000Y-73546000D01*
X121825000Y-73165000D01*
X122079000Y-72911000D01*
X122333000Y-73292000D01*
G36*
X123095000Y-73419000D02*
G01*
X122841000Y-73673000D01*
X122587000Y-73292000D01*
X122841000Y-73038000D01*
X123095000Y-73419000D01*
G37*
X123095000Y-73419000D02*
X122841000Y-73673000D01*
X122587000Y-73292000D01*
X122841000Y-73038000D01*
X123095000Y-73419000D01*
G36*
X123857000Y-74435000D02*
G01*
X123603000Y-74689000D01*
X123349000Y-74308000D01*
X123603000Y-74054000D01*
X123857000Y-74435000D01*
G37*
X123857000Y-74435000D02*
X123603000Y-74689000D01*
X123349000Y-74308000D01*
X123603000Y-74054000D01*
X123857000Y-74435000D01*
D11*
X132730000Y-52630000D02*
X132730000Y-52960000D01*
X139270000Y-55040000D02*
X139270000Y-55370000D01*
X139270000Y-52960000D02*
X139270000Y-52630000D01*
X139270000Y-55370000D02*
X132730000Y-55370000D01*
X132730000Y-55370000D02*
X132730000Y-55040000D01*
X139270000Y-52630000D02*
X132730000Y-52630000D01*
M02*
