G04 #@! TF.GenerationSoftware,KiCad,Pcbnew,(6.0.4)*
G04 #@! TF.CreationDate,2022-04-28T11:38:27-07:00*
G04 #@! TF.ProjectId,Lec18-PCB_kicad,4c656331-382d-4504-9342-5f6b69636164,rev?*
G04 #@! TF.SameCoordinates,Original*
G04 #@! TF.FileFunction,Soldermask,Top*
G04 #@! TF.FilePolarity,Negative*
%FSLAX46Y46*%
G04 Gerber Fmt 4.6, Leading zero omitted, Abs format (unit mm)*
G04 Created by KiCad (PCBNEW (6.0.4)) date 2022-04-28 11:38:27*
%MOMM*%
%LPD*%
G01*
G04 APERTURE LIST*
%ADD10C,2.700000*%
%ADD11R,1.700000X1.700000*%
%ADD12O,1.700000X1.700000*%
%ADD13C,1.600000*%
%ADD14O,1.600000X1.600000*%
%ADD15C,0.700000*%
%ADD16O,0.900000X2.400000*%
%ADD17O,0.900000X1.700000*%
%ADD18R,3.000000X3.000000*%
%ADD19C,3.000000*%
G04 APERTURE END LIST*
D10*
X94050000Y-45550000D03*
X152050000Y-45550000D03*
X152050000Y-94550000D03*
X94050000Y-94550000D03*
D11*
X112475000Y-87975000D03*
D12*
X115015000Y-87975000D03*
X117555000Y-87975000D03*
D11*
X102535155Y-81273009D03*
D12*
X102535155Y-83813009D03*
X102535155Y-86353009D03*
X102535155Y-88893009D03*
D13*
X132190000Y-48000000D03*
D14*
X139810000Y-48000000D03*
D13*
X120000000Y-56810000D03*
D14*
X120000000Y-49190000D03*
D11*
X120200000Y-45000000D03*
D12*
X122740000Y-45000000D03*
X125280000Y-45000000D03*
X127820000Y-45000000D03*
D11*
X144025000Y-48400000D03*
D12*
X144025000Y-50940000D03*
X144025000Y-53480000D03*
X144025000Y-56020000D03*
D13*
X132190000Y-51000000D03*
D14*
X139810000Y-51000000D03*
D13*
X123000000Y-56810000D03*
D14*
X123000000Y-49190000D03*
D13*
X126000000Y-49190000D03*
D14*
X126000000Y-56810000D03*
D15*
X104975000Y-49025000D03*
X104125000Y-49025000D03*
X103275000Y-49025000D03*
X102425000Y-49025000D03*
X101575000Y-49025000D03*
X100725000Y-49025000D03*
X99875000Y-49025000D03*
X99025000Y-49025000D03*
X99025000Y-47675000D03*
X99875000Y-47675000D03*
X100725000Y-47675000D03*
X101575000Y-47675000D03*
X102425000Y-47675000D03*
X103275000Y-47675000D03*
X104125000Y-47675000D03*
X104975000Y-47675000D03*
D16*
X97675000Y-48045000D03*
X106325000Y-48045000D03*
D17*
X97675000Y-44665000D03*
X106325000Y-44665000D03*
D11*
X138475000Y-87975000D03*
D12*
X141015000Y-87975000D03*
X143555000Y-87975000D03*
D18*
X96150682Y-82627673D03*
D19*
X96150682Y-87707673D03*
D11*
X102424592Y-54743501D03*
D12*
X102424592Y-57283501D03*
X102424592Y-59823501D03*
X102424592Y-62363501D03*
D11*
X125475000Y-87975000D03*
D12*
X128015000Y-87975000D03*
X130555000Y-87975000D03*
D18*
X96000000Y-56000000D03*
D19*
X96000000Y-61080000D03*
D13*
X108490000Y-81420000D03*
X111030000Y-81420000D03*
X113570000Y-81420000D03*
X116110000Y-81420000D03*
X118650000Y-81420000D03*
X121190000Y-81420000D03*
X123730000Y-81420000D03*
X126270000Y-81420000D03*
X128810000Y-81420000D03*
X131350000Y-81420000D03*
X133890000Y-81420000D03*
X136430000Y-81420000D03*
X138970000Y-81420000D03*
X141510000Y-81420000D03*
X141510000Y-78880000D03*
X141510000Y-76340000D03*
X141510000Y-73800000D03*
X141510000Y-71260000D03*
X141510000Y-68720000D03*
X141510000Y-66180000D03*
X138970000Y-66180000D03*
X136430000Y-66180000D03*
X133890000Y-66180000D03*
X131350000Y-66180000D03*
X128810000Y-66180000D03*
X126270000Y-66180000D03*
X123730000Y-66180000D03*
X121190000Y-66180000D03*
X118650000Y-66180000D03*
X116110000Y-66180000D03*
X113570000Y-66180000D03*
X111030000Y-66180000D03*
X108490000Y-66180000D03*
X111030000Y-68720000D03*
X139810000Y-54000000D03*
D14*
X132190000Y-54000000D03*
D11*
X147180000Y-93280000D03*
D12*
X147180000Y-95820000D03*
X144640000Y-93280000D03*
X144640000Y-95820000D03*
X142100000Y-93280000D03*
X142100000Y-95820000D03*
X139560000Y-93280000D03*
X139560000Y-95820000D03*
X137020000Y-93280000D03*
X137020000Y-95820000D03*
X134480000Y-93280000D03*
X134480000Y-95820000D03*
X131940000Y-93280000D03*
X131940000Y-95820000D03*
X129400000Y-93280000D03*
X129400000Y-95820000D03*
X126860000Y-93280000D03*
X126860000Y-95820000D03*
X124320000Y-93280000D03*
X124320000Y-95820000D03*
X121780000Y-93280000D03*
X121780000Y-95820000D03*
X119240000Y-93280000D03*
X119240000Y-95820000D03*
X116700000Y-93280000D03*
X116700000Y-95820000D03*
X114160000Y-93280000D03*
X114160000Y-95820000D03*
X111620000Y-93280000D03*
X111620000Y-95820000D03*
X109080000Y-93280000D03*
X109080000Y-95820000D03*
X106540000Y-93280000D03*
X106540000Y-95820000D03*
X104000000Y-93280000D03*
X104000000Y-95820000D03*
X101460000Y-93280000D03*
X101460000Y-95820000D03*
X98920000Y-93280000D03*
X98920000Y-95820000D03*
G36*
X104439142Y-48875810D02*
G01*
X104483406Y-48927065D01*
X104549827Y-48946688D01*
X104616316Y-48927284D01*
X104660019Y-48877465D01*
X104661912Y-48876822D01*
X104663416Y-48878141D01*
X104663304Y-48879692D01*
X104644055Y-48917471D01*
X104627025Y-49025000D01*
X104644055Y-49132529D01*
X104665254Y-49174135D01*
X104665149Y-49176132D01*
X104663367Y-49177040D01*
X104661942Y-49176332D01*
X104617790Y-49123922D01*
X104551617Y-49103489D01*
X104484893Y-49122078D01*
X104440559Y-49171386D01*
X104438658Y-49172006D01*
X104437170Y-49170668D01*
X104437290Y-49169141D01*
X104455945Y-49132529D01*
X104472975Y-49025000D01*
X104455945Y-48917471D01*
X104435846Y-48878025D01*
X104435951Y-48876028D01*
X104437733Y-48875120D01*
X104439142Y-48875810D01*
G37*
G36*
X101039142Y-48875810D02*
G01*
X101083406Y-48927065D01*
X101149827Y-48946688D01*
X101216316Y-48927284D01*
X101260019Y-48877465D01*
X101261912Y-48876822D01*
X101263416Y-48878141D01*
X101263304Y-48879692D01*
X101244055Y-48917471D01*
X101227025Y-49025000D01*
X101244055Y-49132529D01*
X101265254Y-49174135D01*
X101265149Y-49176132D01*
X101263367Y-49177040D01*
X101261942Y-49176332D01*
X101217790Y-49123922D01*
X101151617Y-49103489D01*
X101084893Y-49122078D01*
X101040559Y-49171386D01*
X101038658Y-49172006D01*
X101037170Y-49170668D01*
X101037290Y-49169141D01*
X101055945Y-49132529D01*
X101072975Y-49025000D01*
X101055945Y-48917471D01*
X101035846Y-48878025D01*
X101035951Y-48876028D01*
X101037733Y-48875120D01*
X101039142Y-48875810D01*
G37*
G36*
X101889142Y-48875810D02*
G01*
X101933406Y-48927065D01*
X101999827Y-48946688D01*
X102066316Y-48927284D01*
X102110019Y-48877465D01*
X102111912Y-48876822D01*
X102113416Y-48878141D01*
X102113304Y-48879692D01*
X102094055Y-48917471D01*
X102077025Y-49025000D01*
X102094055Y-49132529D01*
X102115254Y-49174135D01*
X102115149Y-49176132D01*
X102113367Y-49177040D01*
X102111942Y-49176332D01*
X102067790Y-49123922D01*
X102001617Y-49103489D01*
X101934893Y-49122078D01*
X101890559Y-49171386D01*
X101888658Y-49172006D01*
X101887170Y-49170668D01*
X101887290Y-49169141D01*
X101905945Y-49132529D01*
X101922975Y-49025000D01*
X101905945Y-48917471D01*
X101885846Y-48878025D01*
X101885951Y-48876028D01*
X101887733Y-48875120D01*
X101889142Y-48875810D01*
G37*
G36*
X99339142Y-48875810D02*
G01*
X99383406Y-48927065D01*
X99449827Y-48946688D01*
X99516316Y-48927284D01*
X99560019Y-48877465D01*
X99561912Y-48876822D01*
X99563416Y-48878141D01*
X99563304Y-48879692D01*
X99544055Y-48917471D01*
X99527025Y-49025000D01*
X99544055Y-49132529D01*
X99565254Y-49174135D01*
X99565149Y-49176132D01*
X99563367Y-49177040D01*
X99561942Y-49176332D01*
X99517790Y-49123922D01*
X99451617Y-49103489D01*
X99384893Y-49122078D01*
X99340559Y-49171386D01*
X99338658Y-49172006D01*
X99337170Y-49170668D01*
X99337290Y-49169141D01*
X99355945Y-49132529D01*
X99372975Y-49025000D01*
X99355945Y-48917471D01*
X99335846Y-48878025D01*
X99335951Y-48876028D01*
X99337733Y-48875120D01*
X99339142Y-48875810D01*
G37*
G36*
X100189142Y-48875810D02*
G01*
X100233406Y-48927065D01*
X100299827Y-48946688D01*
X100366316Y-48927284D01*
X100410019Y-48877465D01*
X100411912Y-48876822D01*
X100413416Y-48878141D01*
X100413304Y-48879692D01*
X100394055Y-48917471D01*
X100377025Y-49025000D01*
X100394055Y-49132529D01*
X100415254Y-49174135D01*
X100415149Y-49176132D01*
X100413367Y-49177040D01*
X100411942Y-49176332D01*
X100367790Y-49123922D01*
X100301617Y-49103489D01*
X100234893Y-49122078D01*
X100190559Y-49171386D01*
X100188658Y-49172006D01*
X100187170Y-49170668D01*
X100187290Y-49169141D01*
X100205945Y-49132529D01*
X100222975Y-49025000D01*
X100205945Y-48917471D01*
X100185846Y-48878025D01*
X100185951Y-48876028D01*
X100187733Y-48875120D01*
X100189142Y-48875810D01*
G37*
G36*
X103589142Y-48875810D02*
G01*
X103633406Y-48927065D01*
X103699827Y-48946688D01*
X103766316Y-48927284D01*
X103810019Y-48877465D01*
X103811912Y-48876822D01*
X103813416Y-48878141D01*
X103813304Y-48879692D01*
X103794055Y-48917471D01*
X103777025Y-49025000D01*
X103794055Y-49132529D01*
X103815254Y-49174135D01*
X103815149Y-49176132D01*
X103813367Y-49177040D01*
X103811942Y-49176332D01*
X103767790Y-49123922D01*
X103701617Y-49103489D01*
X103634893Y-49122078D01*
X103590559Y-49171386D01*
X103588658Y-49172006D01*
X103587170Y-49170668D01*
X103587290Y-49169141D01*
X103605945Y-49132529D01*
X103622975Y-49025000D01*
X103605945Y-48917471D01*
X103585846Y-48878025D01*
X103585951Y-48876028D01*
X103587733Y-48875120D01*
X103589142Y-48875810D01*
G37*
G36*
X102739142Y-48875810D02*
G01*
X102783406Y-48927065D01*
X102849827Y-48946688D01*
X102916316Y-48927284D01*
X102960019Y-48877465D01*
X102961912Y-48876822D01*
X102963416Y-48878141D01*
X102963304Y-48879692D01*
X102944055Y-48917471D01*
X102927025Y-49025000D01*
X102944055Y-49132529D01*
X102965254Y-49174135D01*
X102965149Y-49176132D01*
X102963367Y-49177040D01*
X102961942Y-49176332D01*
X102917790Y-49123922D01*
X102851617Y-49103489D01*
X102784893Y-49122078D01*
X102740559Y-49171386D01*
X102738658Y-49172006D01*
X102737170Y-49170668D01*
X102737290Y-49169141D01*
X102755945Y-49132529D01*
X102772975Y-49025000D01*
X102755945Y-48917471D01*
X102735846Y-48878025D01*
X102735951Y-48876028D01*
X102737733Y-48875120D01*
X102739142Y-48875810D01*
G37*
G36*
X101039142Y-47525810D02*
G01*
X101083406Y-47577065D01*
X101149827Y-47596688D01*
X101216316Y-47577284D01*
X101260019Y-47527465D01*
X101261912Y-47526822D01*
X101263416Y-47528141D01*
X101263304Y-47529692D01*
X101244055Y-47567471D01*
X101227025Y-47675000D01*
X101244055Y-47782529D01*
X101265254Y-47824135D01*
X101265149Y-47826132D01*
X101263367Y-47827040D01*
X101261942Y-47826332D01*
X101217790Y-47773922D01*
X101151617Y-47753489D01*
X101084893Y-47772078D01*
X101040559Y-47821386D01*
X101038658Y-47822006D01*
X101037170Y-47820668D01*
X101037290Y-47819141D01*
X101055945Y-47782529D01*
X101072975Y-47675000D01*
X101055945Y-47567471D01*
X101035846Y-47528025D01*
X101035951Y-47526028D01*
X101037733Y-47525120D01*
X101039142Y-47525810D01*
G37*
G36*
X104439142Y-47525810D02*
G01*
X104483406Y-47577065D01*
X104549827Y-47596688D01*
X104616316Y-47577284D01*
X104660019Y-47527465D01*
X104661912Y-47526822D01*
X104663416Y-47528141D01*
X104663304Y-47529692D01*
X104644055Y-47567471D01*
X104627025Y-47675000D01*
X104644055Y-47782529D01*
X104665254Y-47824135D01*
X104665149Y-47826132D01*
X104663367Y-47827040D01*
X104661942Y-47826332D01*
X104617790Y-47773922D01*
X104551617Y-47753489D01*
X104484893Y-47772078D01*
X104440559Y-47821386D01*
X104438658Y-47822006D01*
X104437170Y-47820668D01*
X104437290Y-47819141D01*
X104455945Y-47782529D01*
X104472975Y-47675000D01*
X104455945Y-47567471D01*
X104435846Y-47528025D01*
X104435951Y-47526028D01*
X104437733Y-47525120D01*
X104439142Y-47525810D01*
G37*
G36*
X100189142Y-47525810D02*
G01*
X100233406Y-47577065D01*
X100299827Y-47596688D01*
X100366316Y-47577284D01*
X100410019Y-47527465D01*
X100411912Y-47526822D01*
X100413416Y-47528141D01*
X100413304Y-47529692D01*
X100394055Y-47567471D01*
X100377025Y-47675000D01*
X100394055Y-47782529D01*
X100415254Y-47824135D01*
X100415149Y-47826132D01*
X100413367Y-47827040D01*
X100411942Y-47826332D01*
X100367790Y-47773922D01*
X100301617Y-47753489D01*
X100234893Y-47772078D01*
X100190559Y-47821386D01*
X100188658Y-47822006D01*
X100187170Y-47820668D01*
X100187290Y-47819141D01*
X100205945Y-47782529D01*
X100222975Y-47675000D01*
X100205945Y-47567471D01*
X100185846Y-47528025D01*
X100185951Y-47526028D01*
X100187733Y-47525120D01*
X100189142Y-47525810D01*
G37*
G36*
X101889142Y-47525810D02*
G01*
X101933406Y-47577065D01*
X101999827Y-47596688D01*
X102066316Y-47577284D01*
X102110019Y-47527465D01*
X102111912Y-47526822D01*
X102113416Y-47528141D01*
X102113304Y-47529692D01*
X102094055Y-47567471D01*
X102077025Y-47675000D01*
X102094055Y-47782529D01*
X102115254Y-47824135D01*
X102115149Y-47826132D01*
X102113367Y-47827040D01*
X102111942Y-47826332D01*
X102067790Y-47773922D01*
X102001617Y-47753489D01*
X101934893Y-47772078D01*
X101890559Y-47821386D01*
X101888658Y-47822006D01*
X101887170Y-47820668D01*
X101887290Y-47819141D01*
X101905945Y-47782529D01*
X101922975Y-47675000D01*
X101905945Y-47567471D01*
X101885846Y-47528025D01*
X101885951Y-47526028D01*
X101887733Y-47525120D01*
X101889142Y-47525810D01*
G37*
G36*
X102739142Y-47525810D02*
G01*
X102783406Y-47577065D01*
X102849827Y-47596688D01*
X102916316Y-47577284D01*
X102960019Y-47527465D01*
X102961912Y-47526822D01*
X102963416Y-47528141D01*
X102963304Y-47529692D01*
X102944055Y-47567471D01*
X102927025Y-47675000D01*
X102944055Y-47782529D01*
X102965254Y-47824135D01*
X102965149Y-47826132D01*
X102963367Y-47827040D01*
X102961942Y-47826332D01*
X102917790Y-47773922D01*
X102851617Y-47753489D01*
X102784893Y-47772078D01*
X102740559Y-47821386D01*
X102738658Y-47822006D01*
X102737170Y-47820668D01*
X102737290Y-47819141D01*
X102755945Y-47782529D01*
X102772975Y-47675000D01*
X102755945Y-47567471D01*
X102735846Y-47528025D01*
X102735951Y-47526028D01*
X102737733Y-47525120D01*
X102739142Y-47525810D01*
G37*
G36*
X103589142Y-47525810D02*
G01*
X103633406Y-47577065D01*
X103699827Y-47596688D01*
X103766316Y-47577284D01*
X103810019Y-47527465D01*
X103811912Y-47526822D01*
X103813416Y-47528141D01*
X103813304Y-47529692D01*
X103794055Y-47567471D01*
X103777025Y-47675000D01*
X103794055Y-47782529D01*
X103815254Y-47824135D01*
X103815149Y-47826132D01*
X103813367Y-47827040D01*
X103811942Y-47826332D01*
X103767790Y-47773922D01*
X103701617Y-47753489D01*
X103634893Y-47772078D01*
X103590559Y-47821386D01*
X103588658Y-47822006D01*
X103587170Y-47820668D01*
X103587290Y-47819141D01*
X103605945Y-47782529D01*
X103622975Y-47675000D01*
X103605945Y-47567471D01*
X103585846Y-47528025D01*
X103585951Y-47526028D01*
X103587733Y-47525120D01*
X103589142Y-47525810D01*
G37*
G36*
X99339142Y-47525810D02*
G01*
X99383406Y-47577065D01*
X99449827Y-47596688D01*
X99516316Y-47577284D01*
X99560019Y-47527465D01*
X99561912Y-47526822D01*
X99563416Y-47528141D01*
X99563304Y-47529692D01*
X99544055Y-47567471D01*
X99527025Y-47675000D01*
X99544055Y-47782529D01*
X99565254Y-47824135D01*
X99565149Y-47826132D01*
X99563367Y-47827040D01*
X99561942Y-47826332D01*
X99517790Y-47773922D01*
X99451617Y-47753489D01*
X99384893Y-47772078D01*
X99340559Y-47821386D01*
X99338658Y-47822006D01*
X99337170Y-47820668D01*
X99337290Y-47819141D01*
X99355945Y-47782529D01*
X99372975Y-47675000D01*
X99355945Y-47567471D01*
X99335846Y-47528025D01*
X99335951Y-47526028D01*
X99337733Y-47525120D01*
X99339142Y-47525810D01*
G37*
M02*
